<svg width="32" height="32" viewBox="0 0 32 32" fill="none" xmlns="http://www.w3.org/2000/svg">
<path d="M5.39387 5.1071L5.39384 5.10707L5.3905 5.11164C5.09792 5.5115 4.96947 6.01946 4.96947 6.60156V26.0195C4.96947 26.5045 5.14335 26.9285 5.48507 27.2702C5.83245 27.6176 6.2594 27.7975 6.74744 27.7975C7.23162 27.7975 7.65492 27.6242 7.99633 27.2837C8.3473 26.9415 8.52541 26.5126 8.52541 26.0195V20.0658C8.68271 20.0272 8.87909 19.9802 9.11505 19.9247C9.47823 19.8392 9.93319 19.7936 10.4857 19.7936C11.4995 19.7936 12.4518 19.9003 13.344 20.112L13.3447 20.1122C14.2658 20.3289 15.1673 20.5765 16.0492 20.855L16.05 20.8553C16.9569 21.1392 17.8793 21.3914 18.8173 21.6121C19.7761 21.8377 20.7844 21.9498 21.8412 21.9498C22.4376 21.9498 22.9685 21.922 23.4319 21.8651L23.4319 21.8652L23.4381 21.8643C23.8966 21.8 24.3122 21.7148 24.6833 21.6076L24.6833 21.6076L24.6903 21.6055C25.0562 21.4916 25.4033 21.3571 25.7314 21.2014C26.2374 20.97 26.6291 20.6243 26.8884 20.1626C27.1523 19.7064 27.2754 19.1691 27.2754 18.5664V7.23438C27.2754 6.65951 27.0896 6.16405 26.6996 5.7829C26.3179 5.40203 25.8234 5.22203 25.2513 5.22203C24.8157 5.22203 24.3138 5.29423 23.7503 5.43097C23.2481 5.54719 22.5872 5.60875 21.7592 5.60875C20.7856 5.60875 19.8526 5.50229 18.9595 5.29035C18.046 5.07359 17.1402 4.82588 16.2422 4.54721C15.3267 4.25526 14.3956 4.00276 13.4489 3.78972C12.483 3.56445 11.4676 3.4525 10.4037 3.4525C9.83021 3.4525 9.31839 3.48034 8.86995 3.53741C8.42296 3.5943 8.01136 3.68028 7.63659 3.79688C7.27108 3.91059 6.90642 4.04841 6.54263 4.21009L6.54259 4.21L6.53499 4.2136C6.06239 4.43701 5.677 4.73265 5.39387 5.1071ZM11.7429 10.2519V12.9317C11.6406 12.9204 11.5352 12.9097 11.4266 12.8998C11.1589 12.8667 10.8485 12.8509 10.4974 12.8509C9.87422 12.8509 9.34358 12.9191 8.92186 13.0716L8.92186 13.0716L8.91952 13.0725C8.82699 13.1067 8.73832 13.1419 8.65431 13.1785V10.5875C8.76222 10.5194 8.92799 10.4386 9.16789 10.3498C9.48048 10.237 9.91823 10.1725 10.4974 10.1725C10.6558 10.1725 10.8875 10.1834 11.1971 10.2066L11.1971 10.2068L11.2065 10.2072C11.3968 10.2165 11.5755 10.2315 11.7429 10.2519ZM20.502 9.13881C20.6208 9.15169 20.7396 9.1637 20.8584 9.17483L20.8583 9.17501L20.8695 9.1757C21.1272 9.19181 21.3886 9.19984 21.6537 9.19984C22.117 9.19984 22.551 9.17988 22.9551 9.13946L22.9551 9.13953L22.9622 9.13869C23.1846 9.112 23.3942 9.08018 23.5906 9.04301V11.4053C23.4059 11.4452 23.187 11.4828 22.9324 11.5179C22.5513 11.5625 22.1254 11.5853 21.6537 11.5853C21.4918 11.5853 21.2848 11.5779 21.0312 11.5625C20.8724 11.5526 20.696 11.5377 20.502 11.5177V9.13881ZM16.4824 14.0594V11.4162C16.9933 11.571 17.5176 11.7118 18.0554 11.8387L18.0563 11.8389C18.6547 11.9785 19.23 12.0852 19.782 12.1585V14.8245C19.4568 14.7763 19.1396 14.7223 18.8303 14.6627C18.3916 14.5703 17.9568 14.4703 17.5259 14.3626C17.1833 14.2691 16.8355 14.1681 16.4824 14.0594ZM15.7624 14.5959V17.0559C15.2725 16.9167 14.7736 16.7844 14.2659 16.6589C13.6898 16.5082 13.0887 16.3929 12.4629 16.3127V13.7619C13.0259 13.858 13.5493 13.9736 14.0337 14.1085C14.5738 14.2589 15.1501 14.4214 15.7624 14.5959ZM12.4629 9.63048V7.25363C12.9983 7.34137 13.5211 7.45817 14.0313 7.60396L14.0313 7.60398L14.0352 7.60503C14.605 7.76105 15.1807 7.92298 15.7624 8.09084V10.4454C15.2556 10.2979 14.7557 10.155 14.2626 10.0167C13.6964 9.85784 13.0964 9.72925 12.4629 9.63048ZM20.502 15.6449C20.7011 15.6662 20.8911 15.6817 21.0718 15.6915L21.0717 15.6916L21.0817 15.6919C21.3807 15.6998 21.6418 15.7037 21.8646 15.7037C22.3288 15.7037 22.7371 15.6798 23.0867 15.6299C23.262 15.6055 23.43 15.5778 23.5906 15.5468V17.9321C23.4971 17.9932 23.339 18.0703 23.089 18.1538C22.7717 18.2547 22.3256 18.3119 21.7357 18.3119C21.4809 18.3119 21.226 18.3006 20.9711 18.2782C20.8178 18.2642 20.6614 18.2474 20.502 18.2278V15.6449Z" fill="#FF8BC5" stroke="black" stroke-width="0.72"/>
</svg>
