<svg width="59" height="59" viewBox="0 0 59 59" fill="none" xmlns="http://www.w3.org/2000/svg">
<g filter="url(#filter0_d_1018_8466)">
<circle cx="28" cy="28" r="28" fill="#96E1ED"/>
<circle cx="28" cy="28" r="27" stroke="black" stroke-width="2"/>
</g>
<path d="M20.5426 41C19.0756 41 17.9517 40.6159 17.171 39.8476C16.3903 39.0794 16 37.9654 16 36.5058V24.2138C16 22.7627 16.3903 21.653 17.171 20.8848C17.9517 20.108 19.0756 19.7196 20.5426 19.7196H22.2754C23.1876 19.7196 23.9271 20.4591 23.9271 21.3713C23.9271 22.2835 23.1876 23.023 22.2753 23.023H20.9029C20.3882 23.023 19.9936 23.1554 19.719 23.42C19.4531 23.6761 19.3201 24.0773 19.3201 24.6236V36.1088C19.3201 36.6466 19.4531 37.0435 19.719 37.2996C19.9936 37.5642 20.3882 37.6965 20.9029 37.6965H35.0842C35.5989 37.6965 35.9936 37.5642 36.2681 37.2996C36.5426 37.0435 36.6799 36.6466 36.6799 36.1088V24.6236C36.6799 24.0773 36.5426 23.6761 36.2681 23.42C35.9936 23.1554 35.5989 23.023 35.0842 23.023H33.789C32.8768 23.023 32.1373 22.2835 32.1373 21.3713C32.1373 20.4591 32.8768 19.7196 33.789 19.7196H35.4574C36.9244 19.7196 38.0483 20.108 38.829 20.8848C39.6097 21.653 40 22.7627 40 24.2138V36.5058C40 37.9569 39.6097 39.0666 38.829 39.8348C38.0483 40.6116 36.9244 41 35.4574 41H20.5426ZM27.9936 30.4878C27.5818 30.4878 27.23 30.3427 26.9383 30.0525C26.6552 29.7623 26.5137 29.4166 26.5137 29.0154V16.557L26.5616 15.8562C26.584 15.5288 26.1596 15.3817 25.9746 15.6527C25.9651 15.6665 25.9545 15.6796 25.943 15.6919L24.4161 17.3124C24.1501 17.5941 23.8241 17.735 23.4381 17.735C23.0949 17.735 22.7946 17.6197 22.5373 17.3892C22.2799 17.1588 22.1512 16.8643 22.1512 16.5058C22.1512 16.1729 22.2842 15.8698 22.5501 15.5967L26.8225 11.525C27.0198 11.3286 27.2129 11.1921 27.4016 11.1152C27.5989 11.0384 27.7962 11 27.9936 11C28.1995 11 28.3968 11.0384 28.5855 11.1152C28.7828 11.1921 28.9802 11.3286 29.1775 11.525L33.4499 15.5967C33.7158 15.8698 33.8488 16.1729 33.8488 16.5058C33.8488 16.8643 33.7158 17.1588 33.4499 17.3892C33.1925 17.6197 32.8965 17.735 32.5619 17.735C32.1759 17.735 31.8499 17.5941 31.5839 17.3124L30.0452 15.6928C30.033 15.68 30.0218 15.6661 30.012 15.6513C29.833 15.3842 29.4159 15.5268 29.4378 15.8475L29.4863 16.557V29.0154C29.4863 29.4166 29.3405 29.7623 29.0488 30.0525C28.7657 30.3427 28.4139 30.4878 27.9936 30.4878Z" fill="black"/>
<defs>
<filter id="filter0_d_1018_8466" x="0" y="0" width="59" height="59" filterUnits="userSpaceOnUse" color-interpolation-filters="sRGB">
<feFlood flood-opacity="0" result="BackgroundImageFix"/>
<feColorMatrix in="SourceAlpha" type="matrix" values="0 0 0 0 0 0 0 0 0 0 0 0 0 0 0 0 0 0 127 0" result="hardAlpha"/>
<feOffset dx="3" dy="3"/>
<feComposite in2="hardAlpha" operator="out"/>
<feColorMatrix type="matrix" values="0 0 0 0 0 0 0 0 0 0 0 0 0 0 0 0 0 0 0.9 0"/>
<feBlend mode="normal" in2="BackgroundImageFix" result="effect1_dropShadow_1018_8466"/>
<feBlend mode="normal" in="SourceGraphic" in2="effect1_dropShadow_1018_8466" result="shape"/>
</filter>
</defs>
</svg>
