<svg width="28" height="28" viewBox="0 0 28 28" fill="none" xmlns="http://www.w3.org/2000/svg">
<path d="M0 14C0 13.4153 0.209614 12.9133 0.628842 12.4941C1.04807 12.0749 1.55004 11.8652 2.13475 11.8652H11.8818V2.13475C11.8818 1.55004 12.0859 1.04807 12.4941 0.628842C12.9023 0.209614 13.4043 0 14 0C14.5847 0 15.0867 0.209614 15.5059 0.628842C15.9251 1.04807 16.1348 1.55004 16.1348 2.13475V11.8652H25.8818C26.4555 11.8652 26.9519 12.0749 27.3712 12.4941C27.7904 12.9133 28 13.4153 28 14C28 14.5957 27.7904 15.1032 27.3712 15.5225C26.9519 15.9307 26.4555 16.1348 25.8818 16.1348H16.1348V25.8818C16.1348 26.4555 15.9251 26.9519 15.5059 27.3712C15.0867 27.7904 14.5847 28 14 28C13.4043 28 12.9023 27.7904 12.4941 27.3712C12.0859 26.9519 11.8818 26.4555 11.8818 25.8818V16.1348H2.13475C1.55004 16.1348 1.04807 15.9307 0.628842 15.5225C0.209614 15.1032 0 14.5957 0 14Z" fill="black"/>
</svg>
