<svg width="32" height="32" viewBox="0 0 32 32" fill="none" xmlns="http://www.w3.org/2000/svg">
<path d="M10.4889 11.3656L10.4888 11.3657L10.4951 11.3724C10.7064 11.5955 10.9908 11.6852 11.2943 11.6852H17.5381C17.8351 11.6852 18.109 11.591 18.316 11.3726C18.5232 11.1544 18.6153 10.8777 18.6153 10.5764V8.92051C18.6153 8.62273 18.5251 8.34764 18.3161 8.13478C18.1113 7.91137 17.8379 7.81168 17.5381 7.81168H11.2943C10.9868 7.81168 10.7016 7.90758 10.492 8.13835C10.2909 8.35254 10.2066 8.62656 10.2066 8.92051V10.5764C10.2066 10.8725 10.2919 11.1468 10.4889 11.3656ZM21.6844 15.4188L21.6845 15.4189L21.6912 15.4118C21.8965 15.1951 21.9797 14.9149 21.9797 14.6158V12.96C21.9797 12.6645 21.8946 12.3892 21.6912 12.1745C21.482 11.9536 21.2028 11.8617 20.9025 11.8617H11.2943C10.9908 11.8617 10.7064 11.9514 10.4951 12.1745C10.2917 12.3892 10.2066 12.6645 10.2066 12.96V14.6264C10.2066 14.9218 10.2917 15.1972 10.4951 15.4118L10.495 15.4119L10.5019 15.4188C10.7143 15.6312 10.9963 15.7141 11.2943 15.7141H20.9025C21.1971 15.7141 21.474 15.6292 21.6844 15.4188ZM7.65269 26.6286L7.90558 26.3788L7.65269 26.6286C8.31928 27.3033 9.28079 27.611 10.4717 27.611H21.7041C22.895 27.611 23.8565 27.3033 24.5231 26.6286C25.1886 25.955 25.4918 24.988 25.4918 23.7916V7.87637C25.4918 6.68674 25.1884 5.72389 24.5239 5.05073C23.8575 4.36859 22.8957 4.05699 21.7041 4.05699H10.4717C9.2801 4.05699 8.3183 4.36857 7.65194 5.05069C6.98737 5.72385 6.68395 6.68672 6.68395 7.87637V23.7916C6.68395 24.988 6.98723 25.955 7.65269 26.6286ZM22.4236 7.13255L22.4236 7.13257L22.4269 7.13601C22.5942 7.30793 22.7046 7.58093 22.7046 8.01348V23.665C22.7046 24.0889 22.5951 24.3591 22.4269 24.532C22.2656 24.6978 21.9923 24.8132 21.5354 24.8132H10.651C10.194 24.8132 9.92074 24.6978 9.75939 24.532C9.59124 24.3591 9.48168 24.0889 9.48168 23.665V8.01348C9.48168 7.58093 9.59212 7.30793 9.75939 7.13601L9.75941 7.13603L9.76271 7.13255C9.92453 6.96174 10.1966 6.84418 10.651 6.84418H21.5354C21.9898 6.84418 22.2618 6.96174 22.4236 7.13255ZM19.1834 15.9011H11.2943C10.9925 15.9011 10.7094 15.9899 10.4985 16.2104C10.2906 16.4204 10.2066 16.6959 10.2066 16.9889V18.6658C10.2066 18.9613 10.2917 19.2366 10.4951 19.4513C10.7064 19.6744 10.9908 19.7641 11.2943 19.7641H19.1834C19.4805 19.7641 19.7545 19.6698 19.9615 19.4513C20.1649 19.2366 20.25 18.9613 20.25 18.6658V16.9889C20.25 16.6959 20.1661 16.4204 19.9582 16.2104C19.7516 15.9944 19.4789 15.9011 19.1834 15.9011ZM15.9455 19.9406H11.2943C10.9868 19.9406 10.7016 20.0365 10.492 20.2673C10.2908 20.4815 10.2066 20.7555 10.2066 21.0494V22.7053C10.2066 23.0007 10.2917 23.2761 10.4951 23.4908C10.7064 23.7138 10.9908 23.8036 11.2943 23.8036H15.9455C16.241 23.8036 16.5137 23.7103 16.7203 23.4943C16.9316 23.281 17.0227 23.0046 17.0227 22.7053V21.0494C17.0227 20.7516 16.9326 20.4765 16.7235 20.2637C16.5187 20.0403 16.2453 19.9406 15.9455 19.9406Z" fill="#FF8BC5" stroke="black" stroke-width="0.72"/>
</svg>
