<svg width="32" height="32" viewBox="0 0 32 32" fill="none" xmlns="http://www.w3.org/2000/svg">
<path d="M4.43722 21.3573L4.43807 21.3593C5.11036 22.9064 6.03914 24.2695 7.22324 25.4456C8.4069 26.6291 9.77383 27.5538 11.321 28.2181C12.8758 28.8935 14.5345 29.23 16.2924 29.23C18.0578 29.23 19.7206 28.8936 21.2757 28.218C22.8229 27.5536 24.1861 26.6288 25.3622 25.4449C26.546 24.269 27.4745 22.906 28.1467 21.3593C28.8225 19.8039 29.1591 18.1408 29.1591 16.375C29.1591 14.6167 28.8224 12.9575 28.1467 11.4024C27.4745 9.85574 26.5461 8.48917 25.3628 7.3057C24.1863 6.12121 22.8187 5.19623 21.2636 4.53184C19.7089 3.85646 18.0502 3.52 16.2924 3.52C14.5342 3.52 12.8717 3.85657 11.3095 4.53182C9.76188 5.19632 8.39465 6.12123 7.21076 7.30512L7.2096 7.30629C6.0342 8.48979 5.11 9.85618 4.43807 11.4024L4.43806 11.4024L4.43723 11.4044C3.76979 12.959 3.43736 14.6175 3.43736 16.375C3.43736 18.14 3.76967 19.8024 4.43722 21.3573ZM19.7262 24.4994L19.7236 24.5005C18.6617 24.9578 17.5196 25.188 16.2924 25.188C15.0733 25.188 13.9351 24.9579 12.8728 24.5005L12.8702 24.4994C11.8006 24.0463 10.864 23.4204 10.0568 22.6208C9.24991 21.8137 8.62063 20.8775 8.16793 19.8089C7.71783 18.7463 7.49111 17.6033 7.49111 16.375C7.49111 15.1466 7.71783 14.008 8.16746 12.954L8.16793 12.9529C8.62077 11.8839 9.25029 10.9475 10.0576 10.1402C10.8654 9.33238 11.7983 8.70281 12.8596 8.2501L12.8611 8.24947C13.923 7.79225 15.0651 7.56203 16.2924 7.56203C17.5196 7.56203 18.6617 7.79225 19.7236 8.24947L19.7236 8.24947L19.7262 8.25057C20.7948 8.70324 21.7267 9.33231 22.5256 10.1386L22.5272 10.1402C23.335 10.948 23.9689 11.8853 24.4296 12.9554L24.4301 12.9566C24.8868 14.01 25.117 15.1477 25.117 16.375C25.117 17.6023 24.8868 18.7443 24.4296 19.8063L24.4285 19.8089C23.9758 20.8775 23.3465 21.8137 22.5396 22.6208C21.7324 23.4204 20.7958 24.0463 19.7262 24.4994ZM17.0849 11.5043L17.0848 11.5043L17.0817 11.5065C16.7847 11.7164 16.5235 11.9529 16.3002 12.216C16.0744 11.9531 15.812 11.7166 15.5147 11.5065C14.9695 11.1211 14.3264 10.938 13.6088 10.938C12.9108 10.938 12.2667 11.1069 11.6879 11.4506L11.6879 11.4505L11.6851 11.4523C11.1178 11.7944 10.669 12.2676 10.3409 12.8617C10.0071 13.4662 9.84752 14.1538 9.84752 14.9102C9.84752 15.6543 9.99333 16.3674 10.285 17.0452L10.2859 17.0473C10.5686 17.6956 10.9341 18.3017 11.3813 18.8649L11.3813 18.8649L11.384 18.8683C11.8278 19.4169 12.297 19.9187 12.792 20.3731L12.7948 20.3757C13.29 20.823 13.7687 21.2135 14.2308 21.5459L14.2308 21.546L14.2386 21.5514C14.6944 21.8658 15.0753 22.1198 15.3798 22.3121L15.3939 22.321L15.4085 22.3289C15.5151 22.3863 15.6328 22.4471 15.7613 22.5114C15.9292 22.5953 16.1171 22.6558 16.3158 22.6558C16.5143 22.6558 16.6986 22.5906 16.8581 22.5056C16.9758 22.4428 17.0857 22.3839 17.1879 22.3289L17.2026 22.321L17.2166 22.3121C17.5245 22.1176 17.9037 21.858 18.3523 21.5353C18.8226 21.2028 19.3016 20.816 19.7896 20.376L19.7899 20.3757C20.2941 19.9203 20.7648 19.4171 21.2021 18.8666C21.6575 18.3032 22.0275 17.6966 22.3105 17.0473L22.3114 17.0452C22.6031 16.3674 22.7489 15.6543 22.7489 14.9102C22.7489 14.1538 22.5893 13.4662 22.2555 12.8617C21.9274 12.2676 21.4787 11.7944 20.9114 11.4523C20.3388 11.1069 19.6973 10.938 18.9994 10.938C18.2816 10.938 17.6362 11.1211 17.0849 11.5043Z" fill="#F4F4F4" stroke="#636363" stroke-width="0.96"/>
</svg>
