<svg width="33" height="32" viewBox="0 0 33 32" fill="none" xmlns="http://www.w3.org/2000/svg">
<path d="M12.9977 21.4388L12.9972 21.4397C12.5212 22.2727 12.2747 23.1177 12.2747 23.9703C12.2747 24.7427 12.5575 25.3683 13.1506 25.7839C13.7204 26.1831 14.5303 26.3553 15.5246 26.3553H28.4972C29.4915 26.3553 30.3015 26.1831 30.8712 25.7839C31.4643 25.3683 31.7471 24.7427 31.7471 23.9703C31.7471 23.117 31.4968 22.2719 31.0139 21.4393C30.5381 20.5998 29.8665 19.8355 29.0078 19.1442C28.1425 18.4475 27.1179 17.8912 25.939 17.4717C24.749 17.0483 23.4384 16.8392 22.0109 16.8392C20.5903 16.8392 19.2832 17.0484 18.0934 17.4717C16.9147 17.8911 15.8871 18.4472 15.0152 19.1432L15.0141 19.1442C14.1551 19.8357 13.4803 20.5999 12.9977 21.4388ZM28.0922 22.5036C28.3364 22.8698 28.4549 23.1659 28.4868 23.3994H15.5453C15.5765 23.1641 15.6929 22.8669 15.9317 22.5004C16.2048 22.0812 16.6142 21.6609 17.1734 21.243C17.7286 20.8334 18.4109 20.4871 19.2263 20.2084C20.0331 19.9351 20.9597 19.7951 22.0109 19.7951C23.0622 19.7951 23.9889 19.9351 24.7958 20.2085C25.6187 20.4874 26.3003 20.8336 26.8474 21.2423C27.4072 21.6604 27.8169 22.081 28.0901 22.5004L28.0901 22.5004L28.0922 22.5036ZM19.4409 15.7287L19.443 15.73C20.2133 16.2257 21.0723 16.4729 22.0109 16.4729C22.9559 16.4729 23.8186 16.226 24.5893 15.73L24.5901 15.7296C25.3592 15.2319 25.9695 14.5678 26.4191 13.7435C26.8719 12.9135 27.0959 11.9957 27.0959 10.9976C27.0959 10.0188 26.8675 9.12057 26.4063 8.31088C25.9559 7.50087 25.345 6.85154 24.5758 6.36879C23.806 5.88123 22.948 5.63841 22.0109 5.63841C21.0789 5.63841 20.2207 5.88576 19.4448 6.38012C18.6828 6.86305 18.0727 7.51209 17.6158 8.32097L17.6146 8.32319C17.1612 9.13929 16.9365 10.0403 16.9365 11.0187C16.9365 12.0103 17.1607 12.9244 17.6132 13.754L17.6132 13.754L17.6151 13.7574C18.0714 14.5727 18.6804 15.2317 19.4409 15.7287ZM23.7898 12.2985L23.7898 12.2985L23.7877 12.3027C23.5942 12.6898 23.3406 12.9858 23.0294 13.2013C22.7248 13.4122 22.3886 13.5169 22.0109 13.5169C21.6498 13.5169 21.3202 13.4136 21.0135 13.2013C20.7002 12.9843 20.4424 12.6897 20.2421 12.3082C20.0464 11.9286 19.9451 11.4978 19.9451 11.0082C19.9451 10.5401 20.0427 10.1313 20.2303 9.77381C20.4296 9.40043 20.6859 9.11323 20.9977 8.90304C21.3126 8.69539 21.6478 8.59435 22.0109 8.59435C22.3827 8.59435 22.7169 8.69625 23.0228 8.90214L23.0227 8.90222L23.0294 8.9065C23.345 9.10898 23.5988 9.39019 23.7899 9.76014L23.7899 9.76016L23.7921 9.76431C23.9873 10.1302 24.0872 10.539 24.0872 10.9976C24.0872 11.4876 23.9858 11.9188 23.7898 12.2985ZM1.80209 21.1848L1.80155 21.1858C1.35274 22.0311 1.12669 22.9256 1.12669 23.8648C1.12669 24.6345 1.35882 25.2735 1.87223 25.7181C2.3784 26.1634 3.09726 26.3553 3.96521 26.3553H12.0125H13.3276L12.1958 25.6855C11.928 25.527 11.7111 25.276 11.5532 24.9063C11.3983 24.5339 11.3439 24.1797 11.3792 23.8386L11.4202 23.4415H11.0211H4.24475C4.26794 23.0328 4.39438 22.6285 4.63271 22.2251C4.90839 21.7704 5.29017 21.3539 5.78523 20.9775C6.28556 20.6025 6.8653 20.3034 7.52788 20.0825L7.52992 20.0818C8.19288 19.8564 8.9058 19.7424 9.67107 19.7424C9.95873 19.7424 10.2662 19.7686 10.5939 19.8221L10.5939 19.8222L10.602 19.8233C10.9383 19.8704 11.2597 19.9374 11.5665 20.0241C11.8716 20.1104 12.1333 20.2112 12.3541 20.3248L12.6597 20.482L12.8309 20.184C13.0056 19.8798 13.2159 19.6016 13.4621 19.3489L13.4621 19.3489L13.4653 19.3456C13.7078 19.0903 14.0017 18.8568 14.3501 18.6464L14.8811 18.3258L14.3393 18.0238C13.8893 17.773 13.3978 17.5605 12.866 17.3855C12.3416 17.2036 11.806 17.0688 11.2595 16.9812C10.7145 16.8868 10.1848 16.8392 9.67107 16.8392C8.50038 16.8392 7.39694 17.0247 6.36346 17.3985L6.36269 17.3988C5.34214 17.7706 4.43701 18.2828 3.65062 18.9369L3.64935 18.9379C2.87141 19.5911 2.25412 20.34 1.80209 21.1848ZM7.39762 15.9615L7.39918 15.9625C8.08424 16.4013 8.84447 16.6205 9.67107 16.6205C10.4977 16.6205 11.2579 16.4013 11.943 15.9625L11.943 15.9625L11.9454 15.961C12.6226 15.5196 13.1589 14.933 13.5522 14.2071C13.9555 13.4687 14.1549 12.6531 14.1549 11.7676C14.1549 10.9015 13.9547 10.1054 13.5499 9.38715C13.1493 8.66941 12.6095 8.094 11.932 7.66724C11.2536 7.22838 10.4969 7.00951 9.67107 7.00951C8.85084 7.00951 8.09141 7.2291 7.40072 7.66654L7.40071 7.66654L7.39918 7.66752C6.7219 8.10129 6.182 8.68017 5.78129 9.39841C5.37697 10.1231 5.17995 10.9194 5.18724 11.7797C5.18747 12.6649 5.38701 13.4802 5.7903 14.2183L5.79107 14.2197C6.19102 14.9441 6.7268 15.527 7.39762 15.9615ZM11.0182 10.8264L11.0181 10.8265L11.0225 10.8344C11.1734 11.1073 11.2517 11.4157 11.2517 11.7676C11.2517 12.1452 11.1748 12.4792 11.0267 12.776C10.8759 13.071 10.6789 13.2975 10.4368 13.4647C10.2003 13.628 9.94796 13.7068 9.67107 13.7068C9.40277 13.7068 9.15369 13.6289 8.91585 13.4647C8.67342 13.2973 8.47617 13.0703 8.32534 12.7746C8.17812 12.4861 8.10099 12.1564 8.10099 11.7781C8.10099 11.4238 8.17683 11.1136 8.3225 10.8397L8.32251 10.8397L8.32395 10.837C8.47381 10.5493 8.66976 10.3295 8.911 10.1687L8.91102 10.1687L8.91585 10.1654C9.15369 10.0011 9.40277 9.92326 9.67107 9.92326C9.95074 9.92326 10.1998 10.0001 10.4278 10.1559L10.4278 10.1559L10.4311 10.1581C10.6724 10.3189 10.8683 10.5387 11.0182 10.8264Z" fill="#FF8BC5" stroke="black" stroke-width="0.72"/>
</svg>
