<svg width="32" height="32" viewBox="0 0 32 32" fill="none" xmlns="http://www.w3.org/2000/svg">
<path d="M4.54749 20.685L4.54812 20.6864C5.21443 22.2198 6.13461 23.5702 7.30779 24.7355C8.48065 25.9082 9.83488 26.8244 11.3682 27.4828C12.9074 28.1515 14.55 28.485 16.2924 28.485C18.0422 28.485 19.6887 28.1517 21.2281 27.4828C22.7615 26.8244 24.1121 25.9081 25.2774 24.735C26.4503 23.5699 27.3704 22.2196 28.0366 20.6864C28.7056 19.1469 29.0391 17.5001 29.0391 15.75C29.0391 14.0074 28.7055 12.3646 28.0366 10.8253C27.3704 9.2922 26.4505 7.93817 25.2778 6.76541C24.1122 5.59186 22.7574 4.67546 21.216 4.01701C19.6769 3.34839 18.0345 3.015 16.2924 3.015C14.5499 3.015 12.9036 3.34848 11.357 4.01703C9.82321 4.67556 8.46868 5.5919 7.29561 6.76497L7.29474 6.76585C6.12999 7.93863 5.21418 9.29253 4.54812 10.8253L4.54749 10.8267C3.88676 12.3658 3.55736 14.008 3.55736 15.75C3.55736 17.4995 3.88667 19.1458 4.54749 20.685ZM19.773 23.9849L19.7711 23.9858C18.6934 24.4498 17.5351 24.683 16.2924 24.683C15.0578 24.683 13.9033 24.4499 12.8254 23.9857L12.8234 23.9849C11.7399 23.526 10.7904 22.8914 9.97204 22.0807C9.15402 21.2625 8.51608 20.3134 8.05744 19.2307C7.60072 18.1525 7.37111 16.9935 7.37111 15.75C7.37111 14.5065 7.60072 13.3517 8.05708 12.2819L8.05744 12.281C8.51621 11.1981 9.15436 10.2487 9.9727 9.43034C10.7914 8.61159 11.7373 7.9734 12.8125 7.51473L12.8136 7.51425C13.8913 7.05024 15.0496 6.81703 16.2924 6.81703C17.5351 6.81703 18.6934 7.05024 19.7711 7.51425L19.773 7.51508C20.8557 7.97372 21.8007 8.61154 22.6108 9.42917L22.612 9.43034C23.4308 10.2491 24.0732 11.1991 24.5398 12.283L24.5402 12.2838C25.0038 13.3532 25.237 14.5073 25.237 15.75C25.237 16.9927 25.0038 18.151 24.5398 19.2287L24.539 19.2307C24.0803 20.3134 23.4424 21.2626 22.6243 22.0808C21.806 22.8915 20.8565 23.526 19.773 23.9849ZM19.9134 7.18367L19.9135 7.18359L19.9134 7.18367ZM17.1533 10.9778L17.1533 10.9778L17.151 10.9795C16.8202 11.2133 16.5361 11.48 16.3009 11.7801C16.0622 11.4802 15.7764 11.2134 15.4455 10.9795C14.9233 10.6103 14.3052 10.433 13.6088 10.433C12.931 10.433 12.3083 10.5968 11.7492 10.9287L11.7492 10.9287L11.747 10.93C11.1985 11.2609 10.7643 11.7183 10.446 12.2947C10.1233 12.879 9.96751 13.546 9.96751 14.2852C9.96751 15.0132 10.1101 15.7101 10.3953 16.3728L10.3959 16.3743C10.6743 17.0129 11.0344 17.6101 11.4753 18.1653L11.4753 18.1653L11.4773 18.1678C11.9175 18.7121 12.3828 19.2096 12.8731 19.6597L12.8753 19.6617C13.3677 20.1065 13.843 20.4941 14.3009 20.8235L14.3009 20.8236L14.3067 20.8276C14.7619 21.1415 15.1413 21.3945 15.4439 21.5856L15.4544 21.5923L15.4654 21.5982C15.5708 21.6549 15.6874 21.7152 15.815 21.779C15.9722 21.8576 16.1414 21.9108 16.3158 21.9108C16.4881 21.9108 16.6527 21.8541 16.8016 21.7747C16.9192 21.712 17.029 21.6532 17.131 21.5982L17.142 21.5923L17.1526 21.5856C17.4577 21.3929 17.8348 21.1347 18.2826 20.8126C18.7486 20.4832 19.2241 20.0993 19.7092 19.6619L19.7094 19.6617C20.2087 19.2107 20.675 18.7122 21.1085 18.1665C21.5574 17.6112 21.9218 17.0137 22.2005 16.3743L22.2012 16.3728C22.4864 15.7101 22.6289 15.0132 22.6289 14.2852C22.6289 13.546 22.4731 12.879 22.1505 12.2947C21.8321 11.7183 21.3979 11.2609 20.8494 10.93C20.2969 10.5968 19.6771 10.433 18.9994 10.433C18.3029 10.433 17.6821 10.6104 17.1533 10.9778Z" fill="#FF8BC5" stroke="black" stroke-width="0.72"/>
</svg>
