<svg width="32" height="32" viewBox="0 0 32 32" fill="none" xmlns="http://www.w3.org/2000/svg">
<path d="M10.4889 11.9906L10.4888 11.9907L10.4951 11.9974C10.7064 12.2205 10.9908 12.3102 11.2943 12.3102H17.5381C17.8351 12.3102 18.109 12.216 18.316 11.9976C18.5232 11.7794 18.6153 11.5027 18.6153 11.2014V9.54551C18.6153 9.24773 18.5251 8.97264 18.3161 8.75978C18.1113 8.53637 17.8379 8.43668 17.5381 8.43668H11.2943C10.9868 8.43668 10.7016 8.53258 10.492 8.76335C10.2909 8.97754 10.2066 9.25156 10.2066 9.54551V11.2014C10.2066 11.4975 10.2919 11.7718 10.4889 11.9906ZM21.6844 16.0438L21.6845 16.0439L21.6912 16.0368C21.8965 15.8201 21.9797 15.5399 21.9797 15.2408V13.585C21.9797 13.2895 21.8946 13.0142 21.6912 12.7995C21.482 12.5786 21.2028 12.4867 20.9025 12.4867H11.2943C10.9908 12.4867 10.7064 12.5764 10.4951 12.7995C10.2917 13.0142 10.2066 13.2895 10.2066 13.585V15.2514C10.2066 15.5468 10.2917 15.8222 10.4951 16.0368L10.495 16.0369L10.5019 16.0438C10.7143 16.2562 10.9963 16.3391 11.2943 16.3391H20.9025C21.1971 16.3391 21.474 16.2542 21.6844 16.0438ZM7.65269 27.2536L7.90558 27.0038L7.65269 27.2536C8.31928 27.9283 9.28079 28.236 10.4717 28.236H21.7041C22.895 28.236 23.8565 27.9283 24.5231 27.2536C25.1886 26.58 25.4918 25.613 25.4918 24.4166V8.50137C25.4918 7.31174 25.1884 6.34889 24.5239 5.67573C23.8575 4.99359 22.8957 4.68199 21.7041 4.68199H10.4717C9.2801 4.68199 8.3183 4.99357 7.65194 5.67569C6.98737 6.34885 6.68395 7.31172 6.68395 8.50137V24.4166C6.68395 25.613 6.98723 26.58 7.65269 27.2536ZM22.4236 7.75755L22.4236 7.75757L22.4269 7.76101C22.5942 7.93293 22.7046 8.20593 22.7046 8.63848V24.29C22.7046 24.7139 22.5951 24.9841 22.4269 25.157C22.2656 25.3228 21.9923 25.4382 21.5354 25.4382H10.651C10.194 25.4382 9.92074 25.3228 9.75939 25.157C9.59124 24.9841 9.48168 24.7139 9.48168 24.29V8.63848C9.48168 8.20593 9.59212 7.93293 9.75939 7.76101L9.75941 7.76103L9.76271 7.75755C9.92453 7.58674 10.1966 7.46918 10.651 7.46918H21.5354C21.9898 7.46918 22.2618 7.58674 22.4236 7.75755ZM19.1834 16.5261H11.2943C10.9925 16.5261 10.7094 16.6149 10.4985 16.8354C10.2906 17.0454 10.2066 17.3209 10.2066 17.6139V19.2908C10.2066 19.5863 10.2917 19.8616 10.4951 20.0763C10.7064 20.2994 10.9908 20.3891 11.2943 20.3891H19.1834C19.4805 20.3891 19.7545 20.2948 19.9615 20.0763C20.1649 19.8616 20.25 19.5863 20.25 19.2908V17.6139C20.25 17.3209 20.1661 17.0454 19.9582 16.8354C19.7516 16.6194 19.4789 16.5261 19.1834 16.5261ZM15.9455 20.5656H11.2943C10.9868 20.5656 10.7016 20.6615 10.492 20.8923C10.2908 21.1065 10.2066 21.3805 10.2066 21.6744V23.3303C10.2066 23.6257 10.2917 23.9011 10.4951 24.1158C10.7064 24.3388 10.9908 24.4286 11.2943 24.4286H15.9455C16.241 24.4286 16.5137 24.3353 16.7203 24.1193C16.9316 23.906 17.0227 23.6296 17.0227 23.3303V21.6744C17.0227 21.3766 16.9326 21.1015 16.7235 20.8887C16.5187 20.6653 16.2453 20.5656 15.9455 20.5656Z" fill="#F4F4F4" stroke="#636363" stroke-width="0.72"/>
</svg>
