<svg width="328" height="119" viewBox="0 0 328 119" fill="none" xmlns="http://www.w3.org/2000/svg">
<g filter="url(#filter0_d_1297_8878)">
<path d="M0 35.1082C0 30.1376 4.02944 26.1082 9 26.1082L78.7552 26.1082C80.5444 26.1082 82.293 25.5749 83.7777 24.5764L117.18 2.11314C122.54 -1.49163 129.84 1.55673 131.044 7.90293L133.11 18.7866C133.916 23.0341 137.629 26.1082 141.952 26.1082L315 26.1082C319.971 26.1082 324 30.1376 324 35.1082V105.5C324 110.471 319.971 114.5 315 114.5H9C4.02944 114.5 0 110.471 0 105.5V35.1082Z" fill="white"/>
<path d="M323 35.1082V105.5C323 109.918 319.418 113.5 315 113.5H9C4.58173 113.5 1 109.918 1 105.5V35.1082C1 30.6899 4.58172 27.1082 9 27.1082L78.7552 27.1082C80.7432 27.1082 82.6861 26.5157 84.3357 25.4062L117.738 2.94294C122.502 -0.261297 128.991 2.44836 130.062 8.08942L132.128 18.9731C133.024 23.6926 137.149 27.1082 141.952 27.1082L315 27.1082C319.418 27.1082 323 30.6899 323 35.1082Z" stroke="black" stroke-width="2"/>
</g>
<path d="M82.9747 60.56C82.9747 61.1573 82.9054 61.7707 82.7667 62.4C82.628 63.0187 82.388 63.5893 82.0467 64.112C81.7054 64.6347 81.2467 65.0613 80.6707 65.392C80.0947 65.7227 79.3694 65.888 78.4947 65.888C77.8867 65.888 77.3534 65.808 76.8947 65.648C76.436 65.4987 76.0414 65.2907 75.7107 65.024C75.3907 64.768 75.124 64.464 74.9107 64.112C74.708 63.76 74.548 63.3867 74.4307 62.992C74.3134 62.5973 74.228 62.192 74.1747 61.776C74.132 61.36 74.1107 60.9547 74.1107 60.56C74.1107 59.888 74.164 59.2373 74.2707 58.608C74.388 57.968 74.6067 57.3973 74.9267 56.896C75.2467 56.3947 75.6894 55.9947 76.2547 55.696C76.8307 55.3867 77.5774 55.232 78.4947 55.232C79.3694 55.232 80.0947 55.3867 80.6707 55.696C81.2467 55.9947 81.7054 56.3947 82.0467 56.896C82.388 57.3867 82.628 57.952 82.7667 58.592C82.9054 59.232 82.9747 59.888 82.9747 60.56ZM87.4707 59.12V65.056C87.4707 65.344 87.4014 65.5627 87.2627 65.712C87.124 65.872 86.8947 65.952 86.5747 65.952H84.6227C84.3027 65.952 84.0734 65.872 83.9347 65.712C83.796 65.5627 83.7267 65.344 83.7267 65.056V52.704C83.7267 52.416 83.796 52.1973 83.9347 52.048C84.0734 51.888 84.3027 51.808 84.6227 51.808H86.5747C86.8947 51.808 87.124 51.888 87.2627 52.048C87.4014 52.1973 87.4707 52.416 87.4707 52.704V57.52H89.1187C89.2147 57.52 89.3 57.5467 89.3747 57.6C89.4494 57.6427 89.4867 57.728 89.4867 57.856V58.784C89.4867 58.912 89.444 59.0027 89.3587 59.056C89.284 59.0987 89.204 59.12 89.1187 59.12H87.4707ZM74.2067 54.688C74.1214 54.688 74.036 54.6667 73.9507 54.624C73.876 54.5707 73.8387 54.48 73.8387 54.352V53.424C73.8387 53.296 73.876 53.2107 73.9507 53.168C74.0254 53.1147 74.1107 53.088 74.2067 53.088H76.7347V52.224C76.7347 52.0107 76.7934 51.8347 76.9107 51.696C77.0387 51.5573 77.2254 51.488 77.4707 51.488H79.7427C79.988 51.488 80.1694 51.5573 80.2867 51.696C80.4147 51.8347 80.4787 52.0107 80.4787 52.224V53.088H83.0387C83.1347 53.088 83.22 53.1147 83.2947 53.168C83.3694 53.2107 83.4067 53.296 83.4067 53.424V54.352C83.4067 54.48 83.364 54.5707 83.2787 54.624C83.204 54.6667 83.124 54.688 83.0387 54.688H74.2067ZM79.4067 60.56C79.4067 59.2267 79.332 58.2453 79.1827 57.616C79.044 56.9867 78.82 56.672 78.5107 56.672C78.2227 56.672 78.0094 56.9867 77.8707 57.616C77.732 58.2347 77.6627 59.216 77.6627 60.56C77.6627 61.264 77.6787 61.8667 77.7107 62.368C77.7427 62.8587 77.796 63.2587 77.8707 63.568C77.9454 63.8773 78.0307 64.1013 78.1267 64.24C78.2334 64.3787 78.3614 64.448 78.5107 64.448C78.82 64.448 79.044 64.1493 79.1827 63.552C79.332 62.9547 79.4067 61.9573 79.4067 60.56ZM104.367 59.632C104.463 59.632 104.548 59.6587 104.623 59.712C104.697 59.7547 104.735 59.84 104.735 59.968V60.896C104.735 61.024 104.692 61.1147 104.607 61.168C104.532 61.2107 104.452 61.232 104.367 61.232H93.5347C92.8414 61.232 92.3454 61.0827 92.0467 60.784C91.748 60.4853 91.5987 60.032 91.5987 59.424V52.704C91.5987 52.3733 91.6787 52.144 91.8387 52.016C91.9987 51.8773 92.2174 51.808 92.4947 51.808H104.367C104.463 51.808 104.548 51.8347 104.623 51.888C104.697 51.9307 104.735 52.016 104.735 52.144V53.072C104.735 53.2 104.692 53.2907 104.607 53.344C104.532 53.3867 104.452 53.408 104.367 53.408H95.6627C95.5347 53.408 95.4494 53.4293 95.4067 53.472C95.364 53.5147 95.3427 53.6053 95.3427 53.744V55.856H104.207C104.303 55.856 104.388 55.8827 104.463 55.936C104.537 55.9787 104.575 56.064 104.575 56.192V56.96C104.575 57.088 104.532 57.1787 104.447 57.232C104.372 57.2747 104.292 57.296 104.207 57.296H95.3427V59.296C95.3427 59.4347 95.364 59.5253 95.4067 59.568C95.4494 59.6107 95.5347 59.632 95.6627 59.632H104.367ZM91.0867 65.952C91.0014 65.952 90.916 65.9253 90.8307 65.872C90.756 65.8293 90.7187 65.744 90.7187 65.616V64.688C90.7187 64.56 90.756 64.4693 90.8307 64.416C90.9054 64.3733 90.9907 64.352 91.0867 64.352H105.247C105.343 64.352 105.428 64.3733 105.503 64.416C105.577 64.4693 105.615 64.56 105.615 64.688V65.616C105.615 65.744 105.572 65.8293 105.487 65.872C105.412 65.9253 105.332 65.952 105.247 65.952H91.0867ZM107.247 53.536C107.247 53.3013 107.289 53.0827 107.375 52.88C107.471 52.6667 107.593 52.48 107.743 52.32C107.903 52.16 108.084 52.0373 108.287 51.952C108.5 51.856 108.724 51.808 108.959 51.808H109.023H115.615C115.892 51.808 116.095 51.8827 116.223 52.032C116.361 52.1813 116.431 52.3787 116.431 52.624V56.256C116.431 57.536 116.287 58.656 115.999 59.616C115.711 60.576 115.327 61.4027 114.847 62.096C114.377 62.7893 113.833 63.3707 113.215 63.84C112.607 64.2987 111.972 64.672 111.311 64.96C110.66 65.248 110.015 65.4667 109.375 65.616C108.735 65.7653 108.153 65.872 107.631 65.936C107.535 65.9573 107.471 65.9413 107.439 65.888C107.417 65.8347 107.407 65.7813 107.407 65.728V64.896C107.407 64.8427 107.412 64.7947 107.423 64.752C107.444 64.7093 107.497 64.6773 107.583 64.656C107.892 64.56 108.233 64.448 108.607 64.32C108.98 64.192 109.353 64.016 109.727 63.792C110.111 63.5573 110.479 63.2693 110.831 62.928C111.183 62.576 111.497 62.1387 111.775 61.616C112.052 61.0827 112.271 60.448 112.431 59.712C112.601 58.976 112.687 58.1067 112.687 57.104V53.664C112.687 53.5573 112.671 53.488 112.639 53.456C112.607 53.424 112.532 53.408 112.415 53.408H110.671C110.671 53.4293 110.671 53.4507 110.671 53.472C110.681 53.4933 110.687 53.5147 110.687 53.536C110.687 53.7707 110.639 53.9947 110.543 54.208C110.457 54.4107 110.335 54.592 110.175 54.752C110.015 54.9013 109.828 55.024 109.615 55.12C109.412 55.2053 109.193 55.248 108.959 55.248C108.724 55.248 108.5 55.2053 108.287 55.12C108.084 55.024 107.903 54.9013 107.743 54.752C107.593 54.592 107.471 54.4107 107.375 54.208C107.289 53.9947 107.247 53.7707 107.247 53.536ZM120.751 59.12V65.056C120.751 65.344 120.681 65.5627 120.543 65.712C120.404 65.872 120.175 65.952 119.855 65.952H117.903C117.583 65.952 117.353 65.872 117.215 65.712C117.076 65.5627 117.007 65.344 117.007 65.056V52.704C117.007 52.416 117.076 52.1973 117.215 52.048C117.353 51.888 117.583 51.808 117.903 51.808H119.855C120.175 51.808 120.404 51.888 120.543 52.048C120.681 52.1973 120.751 52.416 120.751 52.704V57.52H122.399C122.495 57.52 122.58 57.5467 122.655 57.6C122.729 57.6427 122.767 57.728 122.767 57.856V58.784C122.767 58.912 122.724 59.0027 122.639 59.056C122.564 59.0987 122.484 59.12 122.399 59.12H120.751ZM143.315 61.36C143.315 61.648 143.246 61.872 143.107 62.032C142.968 62.1813 142.739 62.256 142.419 62.256H140.467C140.147 62.256 139.918 62.1813 139.779 62.032C139.64 61.872 139.571 61.648 139.571 61.36V58.352H137.523C137.182 58.896 136.691 59.3387 136.051 59.68C135.411 60.0213 134.584 60.192 133.571 60.192C132.739 60.192 132.03 60.0747 131.443 59.84C130.856 59.5947 130.376 59.2747 130.003 58.88C129.64 58.4853 129.374 58.032 129.203 57.52C129.043 57.008 128.963 56.4853 128.963 55.952C128.963 55.3973 129.043 54.8587 129.203 54.336C129.374 53.8027 129.64 53.3333 130.003 52.928C130.376 52.5227 130.856 52.1973 131.443 51.952C132.03 51.7067 132.739 51.584 133.571 51.584C134.563 51.584 135.374 51.7547 136.003 52.096C136.643 52.4267 137.134 52.8587 137.475 53.392H139.571V52.704C139.571 52.416 139.64 52.1973 139.779 52.048C139.918 51.888 140.147 51.808 140.467 51.808H142.419C142.739 51.808 142.968 51.888 143.107 52.048C143.246 52.1973 143.315 52.416 143.315 52.704V61.36ZM143.635 64.848C143.635 65.0827 143.587 65.3013 143.491 65.504C143.406 65.7173 143.283 65.904 143.123 66.064C142.974 66.224 142.792 66.3467 142.579 66.432C142.376 66.528 142.158 66.576 141.923 66.576H141.843H131.427C130.734 66.576 130.238 66.4267 129.939 66.128C129.64 65.8293 129.491 65.376 129.491 64.768V61.952C129.491 61.664 129.56 61.4453 129.699 61.296C129.838 61.136 130.067 61.056 130.387 61.056H132.339C132.659 61.056 132.888 61.136 133.027 61.296C133.166 61.4453 133.235 61.664 133.235 61.952V64.64C133.235 64.7787 133.256 64.8693 133.299 64.912C133.342 64.9547 133.427 64.976 133.555 64.976H140.195V64.848C140.195 64.6133 140.238 64.3893 140.323 64.176C140.419 63.9733 140.547 63.7973 140.707 63.648C140.867 63.488 141.048 63.3653 141.251 63.28C141.464 63.184 141.688 63.136 141.923 63.136C142.158 63.136 142.376 63.184 142.579 63.28C142.792 63.3653 142.974 63.488 143.123 63.648C143.283 63.7973 143.406 63.9733 143.491 64.176C143.587 64.3893 143.635 64.6133 143.635 64.848ZM133.571 58.752C133.731 58.752 133.875 58.7147 134.003 58.64C134.131 58.5653 134.238 58.4267 134.323 58.224C134.419 58.0107 134.488 57.7227 134.531 57.36C134.574 56.9973 134.595 56.528 134.595 55.952C134.595 55.3547 134.574 54.8693 134.531 54.496C134.488 54.112 134.419 53.8133 134.323 53.6C134.238 53.376 134.131 53.2267 134.003 53.152C133.875 53.0667 133.731 53.024 133.571 53.024C133.411 53.024 133.267 53.0667 133.139 53.152C133.011 53.2267 132.899 53.376 132.803 53.6C132.718 53.8133 132.654 54.112 132.611 54.496C132.568 54.8693 132.547 55.3547 132.547 55.952C132.547 56.528 132.568 56.9973 132.611 57.36C132.654 57.7227 132.718 58.0107 132.803 58.224C132.899 58.4267 133.011 58.5653 133.139 58.64C133.267 58.7147 133.411 58.752 133.571 58.752ZM138.179 55.952C138.179 56.0907 138.174 56.2293 138.163 56.368C138.152 56.496 138.136 56.624 138.115 56.752H139.571V54.992H138.099C138.12 55.152 138.136 55.312 138.147 55.472C138.168 55.632 138.179 55.792 138.179 55.952ZM159.955 58.736C159.955 59.024 159.886 59.248 159.747 59.408C159.608 59.5573 159.379 59.632 159.059 59.632H157.107C156.787 59.632 156.558 59.5573 156.419 59.408C156.28 59.248 156.211 59.024 156.211 58.736V57.76H154.451C154.366 57.76 154.28 57.7387 154.195 57.696C154.12 57.6427 154.083 57.552 154.083 57.424V56.496C154.083 56.368 154.12 56.2827 154.195 56.24C154.27 56.1867 154.355 56.16 154.451 56.16H156.211V54.896H154.499C154.286 55.4187 153.998 55.8933 153.635 56.32C153.272 56.736 152.856 57.1093 152.387 57.44C151.918 57.76 151.416 58.0427 150.883 58.288C150.35 58.5227 149.811 58.7253 149.267 58.896C148.723 59.0667 148.184 59.2053 147.651 59.312C147.128 59.408 146.643 59.4827 146.195 59.536C146.099 59.5467 146.035 59.5307 146.003 59.488C145.982 59.4347 145.971 59.3813 145.971 59.328V58.496C145.971 58.4427 145.976 58.3947 145.987 58.352C146.008 58.3093 146.062 58.2773 146.147 58.256C146.456 58.1707 146.792 58.064 147.155 57.936C147.518 57.808 147.88 57.6587 148.243 57.488C148.616 57.3173 148.974 57.1147 149.315 56.88C149.656 56.6453 149.955 56.3787 150.211 56.08C150.478 55.7813 150.691 55.44 150.851 55.056C151.011 54.6613 151.091 54.224 151.091 53.744V53.664C151.091 53.5573 151.075 53.488 151.043 53.456C151.011 53.424 150.936 53.408 150.819 53.408H148.883C148.872 53.6107 148.824 53.8027 148.739 53.984C148.654 54.1653 148.542 54.3253 148.403 54.464C148.264 54.592 148.104 54.6933 147.923 54.768C147.742 54.8427 147.55 54.88 147.347 54.88C147.134 54.88 146.931 54.8427 146.739 54.768C146.558 54.6827 146.398 54.5707 146.259 54.432C146.12 54.2933 146.008 54.1333 145.923 53.952C145.848 53.7707 145.811 53.5733 145.811 53.36C145.811 53.1467 145.848 52.9493 145.923 52.768C146.008 52.576 146.12 52.4107 146.259 52.272C146.398 52.1227 146.558 52.0107 146.739 51.936C146.931 51.8507 147.134 51.808 147.347 51.808H154.019C154.296 51.808 154.499 51.8827 154.627 52.032C154.766 52.1813 154.835 52.3787 154.835 52.624V53.056C154.835 53.0987 154.83 53.1413 154.819 53.184C154.819 53.216 154.819 53.2533 154.819 53.296H156.211V52.704C156.211 52.416 156.28 52.1973 156.419 52.048C156.558 51.888 156.787 51.808 157.107 51.808H159.059C159.379 51.808 159.608 51.888 159.747 52.048C159.886 52.1973 159.955 52.416 159.955 52.704V58.736ZM147.747 66.576C147.128 66.576 146.702 66.4587 146.467 66.224C146.243 65.9893 146.131 65.6107 146.131 65.088V63.536C146.131 63.2907 146.19 63.0827 146.307 62.912C146.424 62.7307 146.664 62.64 147.027 62.64H156.051C156.158 62.64 156.211 62.5813 156.211 62.464V62.096C156.211 61.9787 156.158 61.92 156.051 61.92H146.499C146.414 61.92 146.328 61.8987 146.243 61.856C146.168 61.8027 146.131 61.712 146.131 61.584V60.656C146.131 60.528 146.168 60.4427 146.243 60.4C146.318 60.3467 146.403 60.32 146.499 60.32H159.059C159.336 60.32 159.555 60.3893 159.715 60.528C159.875 60.656 159.955 60.8853 159.955 61.216V63.344C159.955 63.6747 159.875 63.904 159.715 64.032C159.555 64.1707 159.336 64.24 159.059 64.24H150.035C149.928 64.24 149.875 64.2933 149.875 64.4V64.8C149.875 64.9173 149.939 64.976 150.067 64.976H159.587C159.683 64.976 159.768 64.9973 159.843 65.04C159.918 65.0933 159.955 65.184 159.955 65.312V66.24C159.955 66.368 159.912 66.4533 159.827 66.496C159.752 66.5493 159.672 66.576 159.587 66.576H147.747ZM162.435 65.952C162.35 65.952 162.264 65.9253 162.179 65.872C162.104 65.8293 162.067 65.744 162.067 65.616V64.688C162.067 64.56 162.104 64.4693 162.179 64.416C162.254 64.3733 162.339 64.352 162.435 64.352H165.427V61.232H164.323C163.63 61.232 163.134 61.0827 162.835 60.784C162.536 60.4853 162.387 60.032 162.387 59.424V52.624C162.387 52.336 162.462 52.128 162.611 52C162.76 51.872 162.958 51.808 163.203 51.808H171.523C171.619 51.808 171.704 51.8347 171.779 51.888C171.854 51.9307 171.891 52.016 171.891 52.144V53.072C171.891 53.2 171.848 53.2907 171.763 53.344C171.688 53.3867 171.608 53.408 171.523 53.408H166.595C166.286 53.408 166.131 53.536 166.131 53.792V59.296C166.131 59.4347 166.152 59.5253 166.195 59.568C166.238 59.6107 166.323 59.632 166.451 59.632H171.523C171.619 59.632 171.704 59.6587 171.779 59.712C171.854 59.7547 171.891 59.84 171.891 59.968V60.896C171.891 61.024 171.848 61.1147 171.763 61.168C171.688 61.2107 171.608 61.232 171.523 61.232H169.171V64.352H172.003C172.099 64.352 172.184 64.3733 172.259 64.416C172.334 64.4693 172.371 64.56 172.371 64.688V65.616C172.371 65.744 172.328 65.8293 172.243 65.872C172.168 65.9253 172.088 65.952 172.003 65.952H162.435ZM176.595 65.056C176.595 65.344 176.526 65.5627 176.387 65.712C176.248 65.872 176.019 65.952 175.699 65.952H173.747C173.427 65.952 173.198 65.872 173.059 65.712C172.92 65.5627 172.851 65.344 172.851 65.056V52.704C172.851 52.416 172.92 52.1973 173.059 52.048C173.198 51.888 173.427 51.808 173.747 51.808H175.699C176.019 51.808 176.248 51.888 176.387 52.048C176.526 52.1973 176.595 52.416 176.595 52.704V65.056ZM193.235 59.376C193.235 59.664 193.166 59.888 193.027 60.048C192.888 60.1973 192.659 60.272 192.339 60.272H190.387C190.067 60.272 189.838 60.1973 189.699 60.048C189.56 59.888 189.491 59.664 189.491 59.376V56.704H188.035C187.971 57.1733 187.832 57.6213 187.619 58.048C187.416 58.464 187.128 58.832 186.755 59.152C186.392 59.472 185.939 59.728 185.395 59.92C184.862 60.1013 184.227 60.192 183.491 60.192C182.659 60.192 181.95 60.0747 181.363 59.84C180.776 59.5947 180.296 59.2747 179.923 58.88C179.56 58.4853 179.294 58.032 179.123 57.52C178.963 57.008 178.883 56.4853 178.883 55.952C178.883 55.3973 178.963 54.8587 179.123 54.336C179.294 53.8027 179.56 53.3333 179.923 52.928C180.296 52.5227 180.776 52.1973 181.363 51.952C181.95 51.7067 182.659 51.584 183.491 51.584C184.216 51.584 184.846 51.68 185.379 51.872C185.923 52.0533 186.376 52.304 186.739 52.624C187.112 52.944 187.4 53.3173 187.603 53.744C187.816 54.1707 187.96 54.624 188.035 55.104H189.491V52.704C189.491 52.416 189.56 52.1973 189.699 52.048C189.838 51.888 190.067 51.808 190.387 51.808H192.339C192.659 51.808 192.888 51.888 193.027 52.048C193.166 52.1973 193.235 52.416 193.235 52.704V59.376ZM190.099 61.888C190.099 62.496 189.96 63.0613 189.683 63.584C189.406 64.1067 189.022 64.5707 188.531 64.976C188.04 65.3813 187.459 65.7173 186.787 65.984C186.115 66.2613 185.384 66.448 184.595 66.544C184.424 66.5653 184.339 66.4907 184.339 66.32V65.408C184.339 65.3013 184.355 65.2213 184.387 65.168C184.419 65.1253 184.504 65.0827 184.643 65.04C184.963 64.944 185.235 64.7947 185.459 64.592C185.694 64.3893 185.88 64.16 186.019 63.904C186.168 63.648 186.275 63.376 186.339 63.088C186.414 62.7893 186.451 62.496 186.451 62.208V61.552C186.451 61.3067 186.494 61.1093 186.579 60.96C186.664 60.8107 186.84 60.736 187.107 60.736H189.443C189.72 60.736 189.896 60.816 189.971 60.976C190.056 61.1253 190.099 61.3173 190.099 61.552V61.888ZM185.475 61.888C185.475 62.496 185.336 63.0613 185.059 63.584C184.782 64.1067 184.398 64.5707 183.907 64.976C183.416 65.3813 182.835 65.7173 182.163 65.984C181.491 66.2613 180.76 66.448 179.971 66.544C179.8 66.5653 179.715 66.4907 179.715 66.32V65.408C179.715 65.3013 179.731 65.2213 179.763 65.168C179.795 65.1253 179.88 65.0827 180.019 65.04C180.339 64.944 180.611 64.7947 180.835 64.592C181.07 64.3893 181.256 64.16 181.395 63.904C181.544 63.648 181.651 63.376 181.715 63.088C181.79 62.7893 181.827 62.496 181.827 62.208V61.552C181.827 61.3067 181.87 61.1093 181.955 60.96C182.04 60.8107 182.216 60.736 182.483 60.736H184.819C185.096 60.736 185.272 60.816 185.347 60.976C185.432 61.1253 185.475 61.3173 185.475 61.552V61.888ZM183.491 58.752C183.651 58.752 183.795 58.7147 183.923 58.64C184.051 58.5653 184.158 58.4267 184.243 58.224C184.339 58.0107 184.408 57.7227 184.451 57.36C184.494 56.9973 184.515 56.528 184.515 55.952C184.515 55.3547 184.494 54.8693 184.451 54.496C184.408 54.112 184.339 53.8133 184.243 53.6C184.158 53.376 184.051 53.2267 183.923 53.152C183.795 53.0667 183.651 53.024 183.491 53.024C183.331 53.024 183.187 53.0667 183.059 53.152C182.931 53.2267 182.819 53.376 182.723 53.6C182.638 53.8133 182.574 54.112 182.531 54.496C182.488 54.8693 182.467 55.3547 182.467 55.952C182.467 56.528 182.488 56.9973 182.531 57.36C182.574 57.7227 182.638 58.0107 182.723 58.224C182.819 58.4267 182.931 58.5653 183.059 58.64C183.187 58.7147 183.331 58.752 183.491 58.752ZM193.315 64.848C193.315 65.0827 193.267 65.3013 193.171 65.504C193.086 65.7173 192.963 65.904 192.803 66.064C192.654 66.224 192.472 66.3467 192.259 66.432C192.056 66.528 191.838 66.576 191.603 66.576C191.368 66.576 191.144 66.528 190.931 66.432C190.728 66.3467 190.547 66.224 190.387 66.064C190.227 65.904 190.099 65.7173 190.003 65.504C189.918 65.3013 189.875 65.0827 189.875 64.848C189.875 64.6133 189.918 64.3893 190.003 64.176C190.099 63.9733 190.227 63.7973 190.387 63.648C190.547 63.488 190.728 63.3653 190.931 63.28C191.144 63.184 191.368 63.136 191.603 63.136C191.838 63.136 192.056 63.184 192.259 63.28C192.472 63.3653 192.654 63.488 192.803 63.648C192.963 63.7973 193.086 63.9733 193.171 64.176C193.267 64.3893 193.315 64.6133 193.315 64.848ZM200.307 61.504H205.955V61.12C205.955 60.832 206.024 60.6133 206.163 60.464C206.302 60.304 206.531 60.224 206.851 60.224H208.803C209.123 60.224 209.352 60.304 209.491 60.464C209.63 60.6133 209.699 60.832 209.699 61.12V65.68C209.699 65.968 209.63 66.1867 209.491 66.336C209.352 66.496 209.123 66.576 208.803 66.576H206.851C206.531 66.576 206.302 66.496 206.163 66.336C206.024 66.1867 205.955 65.968 205.955 65.68V65.008C204.92 65.4987 203.795 65.8827 202.579 66.16C201.363 66.4373 200.003 66.576 198.499 66.576C197.806 66.576 197.31 66.4267 197.011 66.128C196.712 65.8293 196.563 65.376 196.563 64.768V61.12C196.563 60.832 196.632 60.6133 196.771 60.464C196.91 60.304 197.139 60.224 197.459 60.224H199.411C199.731 60.224 199.96 60.304 200.099 60.464C200.238 60.6133 200.307 60.832 200.307 61.12V61.504ZM209.699 57.36C209.283 57.3493 208.787 57.312 208.211 57.248C207.646 57.1733 207.059 57.056 206.451 56.896C205.843 56.7253 205.246 56.496 204.659 56.208C204.083 55.92 203.576 55.552 203.139 55.104C202.712 55.5413 202.216 55.904 201.651 56.192C201.086 56.4693 200.499 56.6933 199.891 56.864C199.294 57.0347 198.707 57.1573 198.131 57.232C197.555 57.3067 197.043 57.3493 196.595 57.36C196.51 57.36 196.435 57.344 196.371 57.312C196.318 57.2693 196.291 57.1947 196.291 57.088V56.064C196.291 56.0107 196.302 55.968 196.323 55.936C196.344 55.8933 196.403 55.8667 196.499 55.856C197.267 55.8133 197.928 55.6693 198.483 55.424C199.038 55.1787 199.496 54.896 199.859 54.576C200.222 54.256 200.488 53.9253 200.659 53.584C200.84 53.232 200.931 52.928 200.931 52.672V52.384C200.931 52.1387 200.968 51.984 201.043 51.92C201.128 51.8453 201.31 51.808 201.587 51.808H204.643C204.92 51.808 205.096 51.8453 205.171 51.92C205.256 51.984 205.299 52.1387 205.299 52.384V52.672C205.299 52.8747 205.368 53.1413 205.507 53.472C205.646 53.8027 205.886 54.1333 206.227 54.464C206.579 54.7947 207.043 55.0933 207.619 55.36C208.195 55.6267 208.92 55.792 209.795 55.856C209.891 55.8667 209.95 55.8933 209.971 55.936C209.992 55.968 210.003 56.0107 210.003 56.064V57.088C210.003 57.2693 209.902 57.36 209.699 57.36ZM196.051 59.52C195.966 59.52 195.88 59.4987 195.795 59.456C195.72 59.4027 195.683 59.312 195.683 59.184V58.256C195.683 58.128 195.72 58.0427 195.795 58C195.87 57.9467 195.955 57.92 196.051 57.92H210.211C210.307 57.92 210.392 57.9467 210.467 58C210.542 58.0427 210.579 58.128 210.579 58.256V59.184C210.579 59.312 210.536 59.4027 210.451 59.456C210.376 59.4987 210.296 59.52 210.211 59.52H196.051ZM200.515 64.224C200.899 64.224 201.31 64.2133 201.747 64.192C202.195 64.1813 202.654 64.1493 203.123 64.096C203.592 64.0533 204.067 63.9947 204.547 63.92C205.027 63.8347 205.496 63.728 205.955 63.6V63.104H200.307V63.984C200.307 64.144 200.376 64.224 200.515 64.224ZM216.115 62.496C216.115 62.656 216.136 62.7893 216.179 62.896C216.222 62.992 216.328 63.04 216.499 63.04C216.979 63.04 217.491 62.9493 218.035 62.768C218.579 62.5867 219.128 62.3413 219.683 62.032C220.238 61.7227 220.776 61.3653 221.299 60.96C221.832 60.544 222.323 60.112 222.771 59.664V52.704C222.771 52.416 222.84 52.1973 222.979 52.048C223.118 51.888 223.347 51.808 223.667 51.808H225.619C225.939 51.808 226.168 51.888 226.307 52.048C226.446 52.1973 226.515 52.416 226.515 52.704V65.056C226.515 65.344 226.446 65.5627 226.307 65.712C226.168 65.872 225.939 65.952 225.619 65.952H223.667C223.347 65.952 223.118 65.872 222.979 65.712C222.84 65.5627 222.771 65.344 222.771 65.056V61.28C222.291 61.8667 221.72 62.4427 221.059 63.008C220.408 63.5733 219.699 64.0747 218.931 64.512C218.174 64.96 217.374 65.3173 216.531 65.584C215.699 65.8507 214.856 65.9733 214.003 65.952C213.523 65.9413 213.128 65.792 212.819 65.504C212.52 65.2267 212.371 64.816 212.371 64.272V52.704C212.371 52.416 212.44 52.1973 212.579 52.048C212.718 51.888 212.947 51.808 213.267 51.808H215.219C215.539 51.808 215.768 51.888 215.907 52.048C216.046 52.1973 216.115 52.416 216.115 52.704V62.496ZM237.507 51.808C237.603 51.808 237.688 51.8347 237.763 51.888C237.838 51.9307 237.875 52.016 237.875 52.144V53.072C237.875 53.2 237.832 53.2907 237.747 53.344C237.672 53.3867 237.592 53.408 237.507 53.408H233.219C232.91 53.408 232.755 53.5413 232.755 53.808V62.496C232.755 62.656 232.776 62.7893 232.819 62.896C232.862 62.992 232.968 63.04 233.139 63.04C233.523 63.04 233.944 62.976 234.403 62.848C234.862 62.72 235.331 62.544 235.811 62.32C236.291 62.0853 236.771 61.8027 237.251 61.472C237.731 61.1413 238.184 60.7733 238.611 60.368V52.704C238.611 52.416 238.68 52.1973 238.819 52.048C238.958 51.888 239.187 51.808 239.507 51.808H241.459C241.779 51.808 242.008 51.888 242.147 52.048C242.286 52.1973 242.355 52.416 242.355 52.704V57.52H244.003C244.099 57.52 244.184 57.5467 244.259 57.6C244.334 57.6427 244.371 57.728 244.371 57.856V58.784C244.371 58.912 244.328 59.0027 244.243 59.056C244.168 59.0987 244.088 59.12 244.003 59.12H242.355V65.056C242.355 65.344 242.286 65.5627 242.147 65.712C242.008 65.872 241.779 65.952 241.459 65.952H239.507C239.187 65.952 238.958 65.872 238.819 65.712C238.68 65.5627 238.611 65.344 238.611 65.056V61.984C238.142 62.5173 237.598 63.0293 236.979 63.52C236.371 64 235.715 64.4213 235.011 64.784C234.318 65.1573 233.598 65.4507 232.851 65.664C232.115 65.8773 231.379 65.9733 230.643 65.952C230.163 65.9413 229.768 65.792 229.459 65.504C229.16 65.2267 229.011 64.816 229.011 64.272V52.624C229.011 52.336 229.086 52.128 229.235 52C229.384 51.872 229.582 51.808 229.827 51.808H237.507ZM250.211 61.552C250.211 61.84 250.142 62.064 250.003 62.224C249.864 62.3733 249.635 62.448 249.315 62.448H247.363C247.043 62.448 246.814 62.3733 246.675 62.224C246.536 62.064 246.467 61.84 246.467 61.552V52.704C246.467 52.416 246.536 52.1973 246.675 52.048C246.814 51.888 247.043 51.808 247.363 51.808H249.315C249.635 51.808 249.864 51.888 250.003 52.048C250.142 52.1973 250.211 52.416 250.211 52.704V61.552ZM246.611 64.88C246.611 64.6453 246.654 64.4213 246.739 64.208C246.835 64.0053 246.958 63.824 247.107 63.664C247.267 63.504 247.448 63.3813 247.651 63.296C247.864 63.2 248.088 63.152 248.323 63.152C248.558 63.152 248.776 63.2 248.979 63.296C249.192 63.3813 249.379 63.504 249.539 63.664C249.699 63.824 249.822 64.0053 249.907 64.208C250.003 64.4213 250.051 64.6453 250.051 64.88C250.051 65.1147 250.003 65.3333 249.907 65.536C249.822 65.7493 249.699 65.9307 249.539 66.08C249.379 66.24 249.192 66.3627 248.979 66.448C248.776 66.544 248.558 66.592 248.323 66.592C248.088 66.592 247.864 66.544 247.651 66.448C247.448 66.3627 247.267 66.24 247.107 66.08C246.958 65.9307 246.835 65.7493 246.739 65.536C246.654 65.3333 246.611 65.1147 246.611 64.88ZM80.0448 75.536C80.0448 75.3013 80.0875 75.0827 80.1728 74.88C80.2688 74.6667 80.3915 74.48 80.5408 74.32C80.7008 74.16 80.8821 74.0373 81.0848 73.952C81.2981 73.856 81.5221 73.808 81.7568 73.808H81.8208H88.4128C88.6901 73.808 88.8928 73.8827 89.0208 74.032C89.1595 74.1813 89.2288 74.3787 89.2288 74.624V78.256C89.2288 79.536 89.0848 80.656 88.7968 81.616C88.5088 82.576 88.1248 83.4027 87.6448 84.096C87.1755 84.7893 86.6315 85.3707 86.0128 85.84C85.4048 86.2987 84.7701 86.672 84.1088 86.96C83.4581 87.248 82.8128 87.4667 82.1728 87.616C81.5328 87.7653 80.9515 87.872 80.4288 87.936C80.3328 87.9573 80.2688 87.9413 80.2368 87.888C80.2155 87.8347 80.2048 87.7813 80.2048 87.728V86.896C80.2048 86.8427 80.2101 86.7947 80.2208 86.752C80.2421 86.7093 80.2955 86.6773 80.3808 86.656C80.7861 86.528 81.2395 86.368 81.7408 86.176C82.2528 85.984 82.7435 85.6907 83.2128 85.296C83.6928 84.8907 84.1248 84.3573 84.5088 83.696C84.9035 83.0347 85.1808 82.176 85.3408 81.12H80.5888C80.5035 81.12 80.4181 81.0987 80.3328 81.056C80.2581 81.0027 80.2208 80.912 80.2208 80.784V79.856C80.2208 79.728 80.2581 79.6427 80.3328 79.6C80.4075 79.5467 80.4928 79.52 80.5888 79.52H85.4688C85.4688 79.456 85.4688 79.392 85.4688 79.328C85.4795 79.2533 85.4848 79.1787 85.4848 79.104V75.664C85.4848 75.5573 85.4688 75.488 85.4368 75.456C85.4048 75.424 85.3301 75.408 85.2128 75.408H83.4688C83.4688 75.4293 83.4688 75.4507 83.4688 75.472C83.4795 75.4933 83.4848 75.5147 83.4848 75.536C83.4848 75.7707 83.4368 75.9947 83.3408 76.208C83.2555 76.4107 83.1328 76.592 82.9728 76.752C82.8128 76.9013 82.6261 77.024 82.4128 77.12C82.2101 77.2053 81.9915 77.248 81.7568 77.248C81.5221 77.248 81.2981 77.2053 81.0848 77.12C80.8821 77.024 80.7008 76.9013 80.5408 76.752C80.3915 76.592 80.2688 76.4107 80.1728 76.208C80.0875 75.9947 80.0448 75.7707 80.0448 75.536ZM93.5488 81.12V87.056C93.5488 87.344 93.4795 87.5627 93.3408 87.712C93.2021 87.872 92.9728 87.952 92.6528 87.952H90.7008C90.3808 87.952 90.1515 87.872 90.0128 87.712C89.8741 87.5627 89.8048 87.344 89.8048 87.056V74.704C89.8048 74.416 89.8741 74.1973 90.0128 74.048C90.1515 73.888 90.3808 73.808 90.7008 73.808H92.6528C92.9728 73.808 93.2021 73.888 93.3408 74.048C93.4795 74.1973 93.5488 74.416 93.5488 74.704V79.52H95.1968C95.2928 79.52 95.3781 79.5467 95.4528 79.6C95.5275 79.6427 95.5648 79.728 95.5648 79.856V80.784C95.5648 80.912 95.5221 81.0027 95.4368 81.056C95.3621 81.0987 95.2821 81.12 95.1968 81.12H93.5488ZM101.421 81.296C101.421 81.4347 101.442 81.5253 101.485 81.568C101.527 81.6107 101.613 81.632 101.741 81.632H110.445C110.541 81.632 110.626 81.6587 110.701 81.712C110.775 81.7547 110.813 81.84 110.813 81.968V82.896C110.813 83.024 110.77 83.1147 110.685 83.168C110.61 83.2107 110.53 83.232 110.445 83.232H99.6128C98.9195 83.232 98.4235 83.0827 98.1248 82.784C97.8261 82.4853 97.6768 82.032 97.6768 81.424V74.624C97.6768 74.336 97.7515 74.128 97.9008 74C98.0501 73.872 98.2475 73.808 98.4928 73.808H110.445C110.541 73.808 110.626 73.8347 110.701 73.888C110.775 73.9307 110.813 74.016 110.813 74.144V75.072C110.813 75.2 110.77 75.2907 110.685 75.344C110.61 75.3867 110.53 75.408 110.445 75.408H101.885C101.575 75.408 101.421 75.536 101.421 75.792V81.296ZM97.1648 87.952C97.0795 87.952 96.9941 87.9253 96.9088 87.872C96.8341 87.8293 96.7968 87.744 96.7968 87.616V86.688C96.7968 86.56 96.8341 86.4693 96.9088 86.416C96.9835 86.3733 97.0688 86.352 97.1648 86.352H111.325C111.421 86.352 111.506 86.3733 111.581 86.416C111.655 86.4693 111.693 86.56 111.693 86.688V87.616C111.693 87.744 111.65 87.8293 111.565 87.872C111.49 87.9253 111.41 87.952 111.325 87.952H97.1648ZM115.933 79.808C115.314 79.808 114.887 79.6907 114.653 79.456C114.429 79.2213 114.317 78.8427 114.317 78.32V76.88C114.317 76.6347 114.375 76.4267 114.493 76.256C114.61 76.0747 114.85 75.984 115.213 75.984H123.549C123.655 75.984 123.709 75.9253 123.709 75.808V75.584C123.709 75.4667 123.655 75.408 123.549 75.408H114.685C114.599 75.408 114.514 75.3867 114.429 75.344C114.354 75.2907 114.317 75.2 114.317 75.072V74.144C114.317 74.016 114.354 73.9307 114.429 73.888C114.503 73.8347 114.589 73.808 114.685 73.808H126.557C126.834 73.808 127.053 73.8773 127.213 74.016C127.373 74.144 127.453 74.3733 127.453 74.704V76.688C127.453 77.0187 127.373 77.2533 127.213 77.392C127.053 77.52 126.834 77.584 126.557 77.584H118.221C118.114 77.584 118.061 77.6373 118.061 77.744V78.032C118.061 78.1493 118.125 78.208 118.253 78.208H127.245C127.341 78.208 127.426 78.2347 127.501 78.288C127.575 78.3307 127.613 78.416 127.613 78.544V79.472C127.613 79.6 127.57 79.6907 127.485 79.744C127.41 79.7867 127.33 79.808 127.245 79.808H115.933ZM113.805 82C113.719 82 113.634 81.9787 113.549 81.936C113.474 81.8827 113.437 81.792 113.437 81.664V80.736C113.437 80.608 113.474 80.5227 113.549 80.48C113.623 80.4267 113.709 80.4 113.805 80.4H127.965C128.061 80.4 128.146 80.4267 128.221 80.48C128.295 80.5227 128.333 80.608 128.333 80.736V81.664C128.333 81.792 128.29 81.8827 128.205 81.936C128.13 81.9787 128.05 82 127.965 82H113.805ZM115.933 88.576C115.314 88.576 114.887 88.4587 114.653 88.224C114.429 87.9893 114.317 87.6107 114.317 87.088V85.696C114.317 85.4507 114.375 85.2427 114.493 85.072C114.61 84.8907 114.85 84.8 115.213 84.8H123.549C123.655 84.8 123.709 84.7413 123.709 84.624V84.416C123.709 84.2987 123.655 84.24 123.549 84.24H114.685C114.599 84.24 114.514 84.2187 114.429 84.176C114.354 84.1227 114.317 84.032 114.317 83.904V82.976C114.317 82.848 114.354 82.7627 114.429 82.72C114.503 82.6667 114.589 82.64 114.685 82.64H126.557C126.834 82.64 127.053 82.7093 127.213 82.848C127.373 82.976 127.453 83.2053 127.453 83.536V85.504C127.453 85.8347 127.373 86.064 127.213 86.192C127.053 86.3307 126.834 86.4 126.557 86.4H118.221C118.114 86.4 118.061 86.4533 118.061 86.56V86.8C118.061 86.9173 118.125 86.976 118.253 86.976H127.085C127.181 86.976 127.266 86.9973 127.341 87.04C127.415 87.0933 127.453 87.184 127.453 87.312V88.24C127.453 88.368 127.41 88.4533 127.325 88.496C127.25 88.5493 127.17 88.576 127.085 88.576H115.933ZM135.569 81.36C135.484 81.36 135.399 81.3387 135.313 81.296C135.239 81.2427 135.201 81.152 135.201 81.024V80.096C135.201 79.968 135.239 79.8827 135.313 79.84C135.388 79.7867 135.473 79.76 135.569 79.76H144.849C144.892 79.568 144.929 79.3653 144.961 79.152C144.993 78.9387 145.025 78.7147 145.057 78.48H136.449C136.364 78.48 136.279 78.4587 136.193 78.416C136.119 78.3627 136.081 78.272 136.081 78.144V77.376C136.081 77.248 136.119 77.1627 136.193 77.12C136.268 77.0667 136.353 77.04 136.449 77.04H145.217C145.249 76.592 145.265 76.144 145.265 75.696C145.265 75.5787 145.249 75.504 145.217 75.472C145.185 75.4293 145.121 75.408 145.025 75.408H138.753C138.7 75.7387 138.54 76.016 138.273 76.24C138.017 76.464 137.719 76.576 137.377 76.576C137.185 76.576 137.004 76.5387 136.833 76.464C136.673 76.3893 136.529 76.2933 136.401 76.176C136.284 76.048 136.188 75.904 136.113 75.744C136.039 75.5733 136.001 75.3973 136.001 75.216C136.001 75.024 136.039 74.8427 136.113 74.672C136.188 74.5013 136.284 74.352 136.401 74.224C136.529 74.096 136.673 73.9947 136.833 73.92C137.004 73.8453 137.185 73.808 137.377 73.808H147.441C148.017 73.808 148.46 73.9573 148.769 74.256C149.089 74.5547 149.239 75.008 149.217 75.616C149.196 75.904 149.175 76.2293 149.153 76.592C149.132 76.944 149.1 77.3067 149.057 77.68C149.025 78.0427 148.983 78.4053 148.929 78.768C148.887 79.12 148.839 79.4507 148.785 79.76H149.729C149.825 79.76 149.911 79.7867 149.985 79.84C150.06 79.8827 150.097 79.968 150.097 80.096V81.024C150.097 81.152 150.055 81.2427 149.969 81.296C149.895 81.3387 149.815 81.36 149.729 81.36H135.569ZM137.697 88.576C137.079 88.576 136.652 88.4587 136.417 88.224C136.193 87.9893 136.081 87.6107 136.081 87.088V85.536C136.081 85.2907 136.14 85.0827 136.257 84.912C136.375 84.7307 136.615 84.64 136.977 84.64H145.313C145.42 84.64 145.473 84.5813 145.473 84.464V84.096C145.473 83.9787 145.42 83.92 145.313 83.92H136.449C136.364 83.92 136.279 83.8987 136.193 83.856C136.119 83.8027 136.081 83.712 136.081 83.584V82.656C136.081 82.528 136.119 82.4427 136.193 82.4C136.268 82.3467 136.353 82.32 136.449 82.32H148.321C148.599 82.32 148.817 82.3893 148.977 82.528C149.137 82.656 149.217 82.8853 149.217 83.216V85.344C149.217 85.6747 149.137 85.904 148.977 86.032C148.817 86.1707 148.599 86.24 148.321 86.24H139.985C139.879 86.24 139.825 86.2933 139.825 86.4V86.8C139.825 86.9173 139.889 86.976 140.017 86.976H148.849C148.945 86.976 149.031 86.9973 149.105 87.04C149.18 87.0933 149.217 87.184 149.217 87.312V88.24C149.217 88.368 149.175 88.4533 149.089 88.496C149.015 88.5493 148.935 88.576 148.849 88.576H137.697ZM151.441 75.312C151.441 75.1093 151.479 74.9173 151.553 74.736C151.639 74.5547 151.745 74.3947 151.873 74.256C152.012 74.1173 152.167 74.0107 152.337 73.936C152.519 73.8507 152.711 73.808 152.913 73.808H152.977H159.937C160.215 73.808 160.417 73.8827 160.545 74.032C160.684 74.1813 160.753 74.3787 160.753 74.624V78.064C160.753 78.288 160.689 78.48 160.561 78.64C160.444 78.8 160.231 78.88 159.921 78.88H155.809C155.735 78.88 155.687 78.8907 155.665 78.912C155.644 78.9333 155.633 78.9867 155.633 79.072V80.112C155.633 80.2613 155.708 80.336 155.857 80.336C156.401 80.336 156.956 80.3093 157.521 80.256C158.087 80.2027 158.647 80.1173 159.201 80C159.756 79.8827 160.295 79.7333 160.817 79.552C161.34 79.36 161.831 79.1307 162.289 78.864V74.704C162.289 74.416 162.359 74.1973 162.497 74.048C162.636 73.888 162.865 73.808 163.185 73.808H165.137C165.457 73.808 165.687 73.888 165.825 74.048C165.964 74.1973 166.033 74.416 166.033 74.704V81.696C166.033 81.984 165.964 82.208 165.825 82.368C165.687 82.5173 165.457 82.592 165.137 82.592H163.185C162.865 82.592 162.636 82.5173 162.497 82.368C162.359 82.208 162.289 81.984 162.289 81.696V79.952C161.777 80.3893 161.196 80.7787 160.545 81.12C159.895 81.4507 159.201 81.728 158.465 81.952C157.729 82.176 156.967 82.3413 156.177 82.448C155.399 82.5547 154.625 82.6027 153.857 82.592C153.217 82.5813 152.727 82.4213 152.385 82.112C152.055 81.792 151.889 81.36 151.889 80.816V78.096C151.889 77.872 151.948 77.68 152.065 77.52C152.193 77.36 152.412 77.28 152.721 77.28H156.625C156.775 77.28 156.876 77.2427 156.929 77.168C156.983 77.0933 157.009 76.9973 157.009 76.88V75.808C157.009 75.6907 156.983 75.5947 156.929 75.52C156.876 75.4453 156.775 75.408 156.625 75.408H154.401C154.38 75.6 154.327 75.7813 154.241 75.952C154.167 76.112 154.06 76.256 153.921 76.384C153.793 76.5013 153.639 76.5973 153.457 76.672C153.287 76.736 153.105 76.768 152.913 76.768C152.711 76.768 152.519 76.7307 152.337 76.656C152.167 76.5707 152.012 76.464 151.873 76.336C151.745 76.1973 151.639 76.0427 151.553 75.872C151.479 75.6907 151.441 75.504 151.441 75.312ZM166.033 87.68C166.033 87.968 165.964 88.1867 165.825 88.336C165.687 88.496 165.457 88.576 165.137 88.576H163.185C162.865 88.576 162.636 88.496 162.497 88.336C162.359 88.1867 162.289 87.968 162.289 87.68V85.152C162.289 85.0133 162.268 84.9227 162.225 84.88C162.183 84.8373 162.097 84.816 161.969 84.816H152.577C152.492 84.816 152.407 84.7947 152.321 84.752C152.247 84.6987 152.209 84.608 152.209 84.48V83.552C152.209 83.424 152.247 83.3387 152.321 83.296C152.396 83.2427 152.481 83.216 152.577 83.216H165.137C165.415 83.216 165.633 83.2853 165.793 83.424C165.953 83.552 166.033 83.7813 166.033 84.112V87.68ZM179.137 79.52H179.649V74.704C179.649 74.416 179.719 74.1973 179.857 74.048C179.996 73.888 180.225 73.808 180.545 73.808H181.857C182.177 73.808 182.407 73.888 182.545 74.048C182.684 74.1973 182.753 74.416 182.753 74.704V87.056C182.753 87.344 182.684 87.5627 182.545 87.712C182.407 87.872 182.177 87.952 181.857 87.952H180.545C180.225 87.952 179.996 87.872 179.857 87.712C179.719 87.5627 179.649 87.344 179.649 87.056V81.12H179.137V87.056C179.137 87.344 179.068 87.5627 178.929 87.712C178.791 87.872 178.561 87.952 178.241 87.952H176.929C176.609 87.952 176.38 87.872 176.241 87.712C176.103 87.5627 176.033 87.344 176.033 87.056V74.704C176.033 74.416 176.103 74.1973 176.241 74.048C176.38 73.888 176.609 73.808 176.929 73.808H178.241C178.561 73.808 178.791 73.888 178.929 74.048C179.068 74.1973 179.137 74.416 179.137 74.704V79.52ZM175.393 82.528C175.393 83.1573 175.335 83.792 175.217 84.432C175.111 85.0613 174.919 85.632 174.641 86.144C174.375 86.656 174.017 87.072 173.569 87.392C173.121 87.712 172.567 87.872 171.905 87.872C171.233 87.872 170.668 87.712 170.209 87.392C169.761 87.072 169.399 86.656 169.121 86.144C168.855 85.632 168.663 85.0613 168.545 84.432C168.439 83.792 168.385 83.1573 168.385 82.528C168.385 81.8987 168.439 81.2693 168.545 80.64C168.663 80.0107 168.855 79.4453 169.121 78.944C169.399 78.432 169.761 78.016 170.209 77.696C170.657 77.376 171.217 77.216 171.889 77.216C172.551 77.216 173.105 77.376 173.553 77.696C174.001 78.0053 174.359 78.416 174.625 78.928C174.903 79.4293 175.1 80 175.217 80.64C175.335 81.2693 175.393 81.8987 175.393 82.528ZM168.609 76.688C168.524 76.688 168.439 76.6667 168.353 76.624C168.279 76.5707 168.241 76.48 168.241 76.352V75.424C168.241 75.296 168.279 75.2107 168.353 75.168C168.428 75.1147 168.513 75.088 168.609 75.088H170.017V74.224C170.017 74.0107 170.076 73.8347 170.193 73.696C170.321 73.5573 170.508 73.488 170.753 73.488H173.025C173.271 73.488 173.452 73.5573 173.569 73.696C173.697 73.8347 173.761 74.0107 173.761 74.224V75.088H175.201C175.297 75.088 175.383 75.1147 175.457 75.168C175.532 75.2107 175.569 75.296 175.569 75.424V76.352C175.569 76.48 175.527 76.5707 175.441 76.624C175.367 76.6667 175.287 76.688 175.201 76.688H168.609ZM172.353 82.528C172.353 81.7173 172.343 81.0613 172.321 80.56C172.311 80.0587 172.284 79.6693 172.241 79.392C172.199 79.104 172.145 78.912 172.081 78.816C172.028 78.7093 171.964 78.656 171.889 78.656C171.804 78.656 171.735 78.7093 171.681 78.816C171.628 78.912 171.58 79.104 171.537 79.392C171.495 79.6693 171.463 80.0587 171.441 80.56C171.431 81.0613 171.425 81.7173 171.425 82.528C171.425 83.3387 171.431 84 171.441 84.512C171.463 85.0133 171.495 85.408 171.537 85.696C171.58 85.984 171.628 86.176 171.681 86.272C171.735 86.3787 171.804 86.432 171.889 86.432C171.964 86.432 172.028 86.3787 172.081 86.272C172.145 86.176 172.199 85.984 172.241 85.696C172.284 85.408 172.311 85.0133 172.321 84.512C172.343 84 172.353 83.3387 172.353 82.528ZM199.686 75.408C199.59 76.2293 199.302 77.008 198.822 77.744C198.352 78.4693 197.734 79.1307 196.966 79.728C196.198 80.3147 195.307 80.8267 194.294 81.264C193.28 81.6907 192.182 82.016 190.998 82.24C190.784 82.2827 190.678 82.2133 190.678 82.032V81.216C190.678 81.12 190.688 81.056 190.71 81.024C190.731 80.992 190.784 80.96 190.87 80.928C192.203 80.4373 193.259 79.7333 194.038 78.816C194.816 77.8987 195.248 76.7627 195.334 75.408H191.382C191.296 75.408 191.211 75.3867 191.126 75.344C191.051 75.2907 191.014 75.2 191.014 75.072V74.144C191.014 74.016 191.051 73.9307 191.126 73.888C191.2 73.8347 191.286 73.808 191.382 73.808H204.006C204.102 73.808 204.187 73.8347 204.262 73.888C204.336 73.9307 204.374 74.016 204.374 74.144V75.072C204.374 75.2 204.331 75.2907 204.246 75.344C204.171 75.3867 204.091 75.408 204.006 75.408H199.686ZM199.574 84.496V87.52C199.574 87.808 199.504 88.0267 199.366 88.176C199.227 88.336 198.998 88.416 198.678 88.416H196.726C196.406 88.416 196.176 88.336 196.038 88.176C195.899 88.0267 195.83 87.808 195.83 87.52V84.496H190.614C190.528 84.496 190.443 84.4747 190.358 84.432C190.283 84.3787 190.246 84.288 190.246 84.16V83.232C190.246 83.104 190.283 83.0187 190.358 82.976C190.432 82.9227 190.518 82.896 190.614 82.896H204.774C204.87 82.896 204.955 82.9227 205.03 82.976C205.104 83.0187 205.142 83.104 205.142 83.232V84.16C205.142 84.288 205.099 84.3787 205.014 84.432C204.939 84.4747 204.859 84.496 204.774 84.496H199.574ZM199.222 79.504C199.222 79.152 199.291 78.816 199.43 78.496C199.568 78.176 199.75 77.8987 199.974 77.664C200.208 77.4293 200.48 77.2427 200.79 77.104C201.099 76.9653 201.424 76.896 201.766 76.896C202.118 76.896 202.454 76.9653 202.774 77.104C203.094 77.2427 203.371 77.4293 203.606 77.664C203.84 77.8987 204.027 78.176 204.166 78.496C204.304 78.816 204.374 79.152 204.374 79.504C204.374 79.8453 204.304 80.1707 204.166 80.48C204.027 80.7893 203.84 81.0613 203.606 81.296C203.371 81.52 203.094 81.7013 202.774 81.84C202.454 81.9787 202.118 82.048 201.766 82.048C201.424 82.048 201.099 81.9787 200.79 81.84C200.48 81.7013 200.208 81.52 199.974 81.296C199.75 81.0613 199.568 80.7893 199.43 80.48C199.291 80.1707 199.222 79.8453 199.222 79.504ZM208.182 74.544C208.182 74.256 208.24 74.064 208.358 73.968C208.486 73.8613 208.672 73.808 208.918 73.808H211.174C211.419 73.808 211.6 73.8613 211.718 73.968C211.846 74.064 211.91 74.256 211.91 74.544V82.8C211.91 83.6747 211.75 84.4213 211.43 85.04C211.12 85.6587 210.715 86.1707 210.214 86.576C209.723 86.9813 209.174 87.2907 208.566 87.504C207.968 87.728 207.382 87.872 206.806 87.936C206.688 87.9573 206.598 87.936 206.534 87.872C206.48 87.808 206.454 87.7333 206.454 87.648V86.928C206.454 86.832 206.459 86.768 206.47 86.736C206.491 86.7147 206.544 86.6827 206.63 86.64C206.96 86.4907 207.227 86.3147 207.43 86.112C207.632 85.92 207.787 85.696 207.894 85.44C208.011 85.1733 208.086 84.864 208.118 84.512C208.16 84.16 208.182 83.7493 208.182 83.28V74.544ZM217.59 87.056C217.59 87.344 217.52 87.5627 217.382 87.712C217.243 87.872 217.014 87.952 216.694 87.952H215.382C215.062 87.952 214.832 87.872 214.694 87.712C214.555 87.5627 214.486 87.344 214.486 87.056V80.96H213.286C213.2 80.96 213.115 80.9387 213.03 80.896C212.955 80.8427 212.918 80.752 212.918 80.624V79.696C212.918 79.568 212.955 79.4827 213.03 79.44C213.104 79.3867 213.19 79.36 213.286 79.36H214.486V74.704C214.486 74.416 214.555 74.1973 214.694 74.048C214.832 73.888 215.062 73.808 215.382 73.808H216.694C217.014 73.808 217.243 73.888 217.382 74.048C217.52 74.1973 217.59 74.416 217.59 74.704V87.056ZM221.158 87.056C221.158 87.344 221.088 87.5627 220.95 87.712C220.811 87.872 220.582 87.952 220.262 87.952H218.95C218.63 87.952 218.4 87.872 218.262 87.712C218.123 87.5627 218.054 87.344 218.054 87.056V74.704C218.054 74.416 218.123 74.1973 218.262 74.048C218.4 73.888 218.63 73.808 218.95 73.808H220.262C220.582 73.808 220.811 73.888 220.95 74.048C221.088 74.1973 221.158 74.416 221.158 74.704V87.056ZM214.23 86.48C214.23 86.672 214.187 86.8587 214.102 87.04C214.027 87.2213 213.92 87.376 213.782 87.504C213.654 87.6427 213.494 87.7493 213.302 87.824C213.12 87.9093 212.923 87.952 212.71 87.952C212.518 87.952 212.331 87.9093 212.15 87.824C211.968 87.7493 211.808 87.6427 211.67 87.504C211.542 87.376 211.435 87.2213 211.35 87.04C211.275 86.8587 211.238 86.672 211.238 86.48C211.238 86.2667 211.275 86.0693 211.35 85.888C211.435 85.696 211.542 85.536 211.67 85.408C211.808 85.2693 211.968 85.1627 212.15 85.088C212.331 85.0027 212.518 84.96 212.71 84.96C213.136 84.96 213.494 85.1093 213.782 85.408C214.08 85.696 214.23 86.0533 214.23 86.48ZM237.606 78.736C237.606 79.4507 237.467 80.1227 237.19 80.752C236.923 81.3813 236.512 81.9307 235.958 82.4C235.414 82.8587 234.726 83.2213 233.894 83.488C233.062 83.7547 232.091 83.888 230.982 83.888C229.872 83.888 228.902 83.7547 228.07 83.488C227.238 83.2107 226.544 82.8427 225.99 82.384C225.446 81.9147 225.035 81.3653 224.758 80.736C224.491 80.1067 224.358 79.44 224.358 78.736C224.358 78.032 224.491 77.3653 224.758 76.736C225.035 76.1067 225.446 75.5627 225.99 75.104C226.544 74.6347 227.238 74.2667 228.07 74C228.902 73.7227 229.872 73.584 230.982 73.584C232.091 73.584 233.062 73.7173 233.894 73.984C234.726 74.2507 235.414 74.6187 235.958 75.088C236.512 75.5467 236.923 76.0907 237.19 76.72C237.467 77.3493 237.606 78.0213 237.606 78.736ZM223.894 87.952C223.808 87.952 223.723 87.9253 223.638 87.872C223.563 87.8293 223.526 87.744 223.526 87.616V86.688C223.526 86.56 223.563 86.4693 223.638 86.416C223.712 86.3733 223.798 86.352 223.894 86.352H225.302V84.864C225.302 84.576 225.371 84.3573 225.51 84.208C225.648 84.048 225.878 83.968 226.198 83.968H228.15C228.47 83.968 228.699 84.048 228.838 84.208C228.976 84.3573 229.046 84.576 229.046 84.864V86.352H232.886V84.864C232.886 84.576 232.955 84.3573 233.094 84.208C233.232 84.048 233.462 83.968 233.782 83.968H235.734C236.054 83.968 236.283 84.048 236.422 84.208C236.56 84.3573 236.63 84.576 236.63 84.864V86.352H238.054C238.15 86.352 238.235 86.3733 238.31 86.416C238.384 86.4693 238.422 86.56 238.422 86.688V87.616C238.422 87.744 238.379 87.8293 238.294 87.872C238.219 87.9253 238.139 87.952 238.054 87.952H223.894ZM233.798 78.736C233.798 78.096 233.723 77.5467 233.574 77.088C233.435 76.6187 233.238 76.2347 232.982 75.936C232.736 75.6267 232.443 75.3973 232.102 75.248C231.76 75.0987 231.387 75.024 230.982 75.024C230.587 75.024 230.219 75.0987 229.878 75.248C229.536 75.3973 229.238 75.6267 228.982 75.936C228.726 76.2347 228.523 76.6187 228.374 77.088C228.235 77.5467 228.166 78.096 228.166 78.736C228.166 79.376 228.235 79.9307 228.374 80.4C228.523 80.8693 228.726 81.2587 228.982 81.568C229.238 81.8667 229.536 82.0907 229.878 82.24C230.219 82.3787 230.587 82.448 230.982 82.448C231.387 82.448 231.76 82.3787 232.102 82.24C232.443 82.0907 232.736 81.8667 232.982 81.568C233.238 81.2587 233.435 80.8693 233.574 80.4C233.723 79.9307 233.798 79.376 233.798 78.736ZM240.774 86.96C240.774 86.7253 240.816 86.5013 240.902 86.288C240.998 86.0853 241.12 85.904 241.27 85.744C241.43 85.584 241.611 85.4613 241.814 85.376C242.027 85.28 242.251 85.232 242.486 85.232C242.72 85.232 242.939 85.28 243.142 85.376C243.355 85.4613 243.542 85.584 243.702 85.744C243.862 85.904 243.984 86.0853 244.07 86.288C244.166 86.5013 244.214 86.7253 244.214 86.96C244.214 87.1947 244.166 87.4133 244.07 87.616C243.984 87.8293 243.862 88.0107 243.702 88.16C243.542 88.32 243.355 88.4427 243.142 88.528C242.939 88.624 242.72 88.672 242.486 88.672C242.251 88.672 242.027 88.624 241.814 88.528C241.611 88.4427 241.43 88.32 241.27 88.16C241.12 88.0107 240.998 87.8293 240.902 87.616C240.816 87.4133 240.774 87.1947 240.774 86.96Z" fill="#FF8BC5"/>
<defs>
<filter id="filter0_d_1297_8878" x="0" y="0.573242" width="328" height="117.927" filterUnits="userSpaceOnUse" color-interpolation-filters="sRGB">
<feFlood flood-opacity="0" result="BackgroundImageFix"/>
<feColorMatrix in="SourceAlpha" type="matrix" values="0 0 0 0 0 0 0 0 0 0 0 0 0 0 0 0 0 0 127 0" result="hardAlpha"/>
<feOffset dx="4" dy="4"/>
<feComposite in2="hardAlpha" operator="out"/>
<feColorMatrix type="matrix" values="0 0 0 0 0 0 0 0 0 0 0 0 0 0 0 0 0 0 0.9 0"/>
<feBlend mode="normal" in2="BackgroundImageFix" result="effect1_dropShadow_1297_8878"/>
<feBlend mode="normal" in="SourceGraphic" in2="effect1_dropShadow_1297_8878" result="shape"/>
</filter>
</defs>
</svg>
