<svg width="59" height="59" viewBox="0 0 59 59" fill="none" xmlns="http://www.w3.org/2000/svg">
<g filter="url(#filter0_d_1159_9127)">
<circle cx="28" cy="28" r="28" fill="#96E1ED"/>
<circle cx="28" cy="28" r="27" stroke="black" stroke-width="2"/>
</g>
<path d="M14 28C14 27.4153 14.2096 26.9133 14.6288 26.4941C15.0481 26.0749 15.55 25.8652 16.1348 25.8652H25.8818V16.1348C25.8818 15.55 26.0859 15.0481 26.4941 14.6288C26.9023 14.2096 27.4043 14 28 14C28.5847 14 29.0867 14.2096 29.5059 14.6288C29.9251 15.0481 30.1348 15.55 30.1348 16.1348V25.8652H39.8818C40.4555 25.8652 40.9519 26.0749 41.3712 26.4941C41.7904 26.9133 42 27.4153 42 28C42 28.5957 41.7904 29.1032 41.3712 29.5225C40.9519 29.9307 40.4555 30.1348 39.8818 30.1348H30.1348V39.8818C30.1348 40.4555 29.9251 40.9519 29.5059 41.3712C29.0867 41.7904 28.5847 42 28 42C27.4043 42 26.9023 41.7904 26.4941 41.3712C26.0859 40.9519 25.8818 40.4555 25.8818 39.8818V30.1348H16.1348C15.55 30.1348 15.0481 29.9307 14.6288 29.5225C14.2096 29.1032 14 28.5957 14 28Z" fill="black"/>
<defs>
<filter id="filter0_d_1159_9127" x="0" y="0" width="59" height="59" filterUnits="userSpaceOnUse" color-interpolation-filters="sRGB">
<feFlood flood-opacity="0" result="BackgroundImageFix"/>
<feColorMatrix in="SourceAlpha" type="matrix" values="0 0 0 0 0 0 0 0 0 0 0 0 0 0 0 0 0 0 127 0" result="hardAlpha"/>
<feOffset dx="3" dy="3"/>
<feComposite in2="hardAlpha" operator="out"/>
<feColorMatrix type="matrix" values="0 0 0 0 0 0 0 0 0 0 0 0 0 0 0 0 0 0 0.9 0"/>
<feBlend mode="normal" in2="BackgroundImageFix" result="effect1_dropShadow_1159_9127"/>
<feBlend mode="normal" in="SourceGraphic" in2="effect1_dropShadow_1159_9127" result="shape"/>
</filter>
</defs>
</svg>
