<svg width="393" height="852" viewBox="0 0 393 852" fill="none" xmlns="http://www.w3.org/2000/svg">
<rect width="393" height="852" fill="#FFF2F2"/>
<line x1="1" y1="25.5" x2="393" y2="25.5" stroke="white"/>
<line x1="1" y1="75.5" x2="393" y2="75.5" stroke="white"/>
<line x1="1" y1="125.5" x2="393" y2="125.5" stroke="white"/>
<line x1="1" y1="175.5" x2="393" y2="175.5" stroke="white"/>
<line x1="1" y1="225.5" x2="393" y2="225.5" stroke="white"/>
<line x1="1" y1="275.5" x2="393" y2="275.5" stroke="white"/>
<line x1="1" y1="325.5" x2="393" y2="325.5" stroke="white"/>
<line x1="1" y1="375.5" x2="393" y2="375.5" stroke="white"/>
<line x1="1" y1="425.5" x2="393" y2="425.5" stroke="white"/>
<line x1="1" y1="475.5" x2="393" y2="475.5" stroke="white"/>
<line x1="1" y1="525.5" x2="393" y2="525.5" stroke="white"/>
<line x1="1" y1="575.5" x2="393" y2="575.5" stroke="white"/>
<line x1="1" y1="625.5" x2="393" y2="625.5" stroke="white"/>
<line x1="1" y1="675.5" x2="393" y2="675.5" stroke="white"/>
<line x1="1" y1="725.5" x2="393" y2="725.5" stroke="white"/>
<line x1="1" y1="775.5" x2="393" y2="775.5" stroke="white"/>
<line x1="1" y1="825.5" x2="393" y2="825.5" stroke="white"/>
<line x1="22.5" y1="2.18557e-08" x2="22.5" y2="852" stroke="white"/>
<line x1="72.5" y1="2.18557e-08" x2="72.5" y2="852" stroke="white"/>
<line x1="122.5" y1="2.18557e-08" x2="122.5" y2="852" stroke="white"/>
<line x1="172.5" y1="2.18557e-08" x2="172.5" y2="852" stroke="white"/>
<line x1="222.5" y1="2.18557e-08" x2="222.5" y2="852" stroke="white"/>
<line x1="272.5" y1="2.18557e-08" x2="272.5" y2="852" stroke="white"/>
<line x1="322.5" y1="2.18557e-08" x2="322.5" y2="852" stroke="white"/>
<line x1="372.5" y1="2.18557e-08" x2="372.5" y2="852" stroke="white"/>
</svg>
