<svg width="340" height="550" viewBox="0 0 340 550" fill="none" xmlns="http://www.w3.org/2000/svg">
<g filter="url(#filter0_d_1620_9041)">
<rect width="336" height="546" rx="16" fill="white" shape-rendering="crispEdges"/>
<path d="M24 13H312C318.075 13 323 17.9249 323 24V439H13V24C13 17.9249 17.9249 13 24 13Z" fill="white"/>
<path d="M24 13H312C318.075 13 323 17.9249 323 24V439H13V24C13 17.9249 17.9249 13 24 13Z" stroke="#3D3D3D" stroke-width="2"/>
<path d="M13 445H323V514C323 520.075 318.075 525 312 525H24C17.9249 525 13 520.075 13 514V445Z" fill="white"/>
<path d="M13 445H323V514C323 520.075 318.075 525 312 525H24C17.9249 525 13 520.075 13 514V445Z" stroke="#3D3D3D" stroke-width="2"/>
<rect x="1" y="1" width="334" height="544" rx="15" stroke="#212121" stroke-width="2" shape-rendering="crispEdges"/>
</g>
<defs>
<filter id="filter0_d_1620_9041" x="0" y="0" width="340" height="550" filterUnits="userSpaceOnUse" color-interpolation-filters="sRGB">
<feFlood flood-opacity="0" result="BackgroundImageFix"/>
<feColorMatrix in="SourceAlpha" type="matrix" values="0 0 0 0 0 0 0 0 0 0 0 0 0 0 0 0 0 0 127 0" result="hardAlpha"/>
<feOffset dx="4" dy="4"/>
<feComposite in2="hardAlpha" operator="out"/>
<feColorMatrix type="matrix" values="0 0 0 0 0 0 0 0 0 0 0 0 0 0 0 0 0 0 0.9 0"/>
<feBlend mode="normal" in2="BackgroundImageFix" result="effect1_dropShadow_1620_9041"/>
<feBlend mode="normal" in="SourceGraphic" in2="effect1_dropShadow_1620_9041" result="shape"/>
</filter>
</defs>
</svg>
