<svg width="22" height="22" viewBox="0 0 22 22" fill="none" xmlns="http://www.w3.org/2000/svg">
<path d="M12.6953 21.2891C12.237 21.2891 11.8958 21.1302 11.6719 20.8125C11.4479 20.4948 11.2604 20.0885 11.1094 19.5938L9.50781 14.3359C9.40365 13.9974 9.36979 13.7057 9.40625 13.4609C9.44271 13.2109 9.5625 12.9714 9.76562 12.7422L20.1641 1.52344C20.2214 1.45573 20.25 1.38542 20.25 1.3125C20.25 1.23438 20.224 1.16927 20.1719 1.11719C20.1198 1.0651 20.0547 1.03906 19.9766 1.03906C19.9036 1.03906 19.8307 1.07031 19.7578 1.13281L8.55469 11.5391C8.3099 11.763 8.06771 11.888 7.82812 11.9141C7.59375 11.9401 7.30729 11.901 6.96875 11.7969L1.63281 10.1562C1.15365 10.0104 0.760417 9.82812 0.453125 9.60938C0.151042 9.38542 0 9.04688 0 8.59375C0 8.21354 0.135417 7.89062 0.40625 7.625C0.677083 7.35417 1.02344 7.13802 1.44531 6.97656L19.0547 0.25C19.2578 0.171875 19.4505 0.111979 19.6328 0.0703125C19.8151 0.0234375 19.9844 0 20.1406 0C20.4948 0 20.7734 0.104167 20.9766 0.3125C21.1797 0.520833 21.2812 0.799479 21.2812 1.14844C21.2812 1.30469 21.2604 1.47396 21.2188 1.65625C21.1823 1.83854 21.1224 2.03125 21.0391 2.23438L14.3359 19.7734C14.1589 20.2422 13.9349 20.612 13.6641 20.8828C13.3984 21.1536 13.0755 21.2891 12.6953 21.2891Z" fill="#FFF2F2"/>
</svg>
