<svg width="328" height="119" viewBox="0 0 328 119" fill="none" xmlns="http://www.w3.org/2000/svg">
<g filter="url(#filter0_d_1280_8837)">
<path d="M0 35.1082C0 30.1376 4.02944 26.1082 9 26.1082L78.7552 26.1082C80.5444 26.1082 82.293 25.5749 83.7777 24.5764L117.18 2.11314C122.54 -1.49163 129.84 1.55673 131.044 7.90293L133.11 18.7866C133.916 23.0341 137.629 26.1082 141.952 26.1082L315 26.1082C319.971 26.1082 324 30.1376 324 35.1082V105.5C324 110.471 319.971 114.5 315 114.5H9C4.02944 114.5 0 110.471 0 105.5V35.1082Z" fill="white"/>
<path d="M323 35.1082V105.5C323 109.918 319.418 113.5 315 113.5H9C4.58173 113.5 1 109.918 1 105.5V35.1082C1 30.6899 4.58172 27.1082 9 27.1082L78.7552 27.1082C80.7432 27.1082 82.6861 26.5157 84.3357 25.4062L117.738 2.94294C122.502 -0.261297 128.991 2.44836 130.062 8.08942L132.128 18.9731C133.024 23.6926 137.149 27.1082 141.952 27.1082L315 27.1082C319.418 27.1082 323 30.6899 323 35.1082Z" stroke="black" stroke-width="2"/>
</g>
<path d="M61.3408 76.952C61.0208 76.952 60.7915 76.872 60.6528 76.712C60.5141 76.5627 60.4448 76.344 60.4448 76.056V75.512C59.9648 75.9707 59.4368 76.328 58.8608 76.584C58.2955 76.84 57.6341 76.9627 56.8768 76.952C56.3968 76.9413 56.0021 76.792 55.6928 76.504C55.3941 76.2267 55.2448 75.816 55.2448 75.272V63.624C55.2448 63.336 55.3195 63.128 55.4688 63C55.6181 62.872 55.8155 62.808 56.0608 62.808H63.3728C63.6501 62.808 63.8528 62.8827 63.9808 63.032C64.1195 63.1813 64.1888 63.3787 64.1888 63.624V76.056C64.1888 76.344 64.1195 76.5627 63.9808 76.712C63.8421 76.872 63.6128 76.952 63.2928 76.952H61.3408ZM69.3888 76.056C69.3888 76.344 69.3195 76.5627 69.1808 76.712C69.0421 76.872 68.8128 76.952 68.4928 76.952H66.5408C66.2208 76.952 65.9915 76.872 65.8528 76.712C65.7141 76.5627 65.6448 76.344 65.6448 76.056V63.704C65.6448 63.416 65.7141 63.1973 65.8528 63.048C65.9915 62.888 66.2208 62.808 66.5408 62.808H68.4928C68.8128 62.808 69.0421 62.888 69.1808 63.048C69.3195 63.1973 69.3888 63.416 69.3888 63.704V76.056ZM59.3728 74.04C59.7248 74.04 60.0821 73.9387 60.4448 73.736V64.728C60.4448 64.5147 60.3328 64.408 60.1088 64.408H59.3088C59.0955 64.408 58.9888 64.5147 58.9888 64.728V73.496C58.9888 73.656 59.0101 73.7893 59.0528 73.896C59.0955 73.992 59.2021 74.04 59.3728 74.04ZM86.0288 72.36C86.0288 72.648 85.9595 72.872 85.8208 73.032C85.6821 73.1813 85.4528 73.256 85.1328 73.256H83.1808C82.8608 73.256 82.6315 73.1813 82.4928 73.032C82.3541 72.872 82.2848 72.648 82.2848 72.36V69.064H81.2608C81.2715 69.1173 81.2768 69.176 81.2768 69.24C81.2875 69.2933 81.2928 69.3467 81.2928 69.4C81.2928 69.6453 81.2395 69.8853 81.1328 70.12C81.0368 70.344 80.8981 70.5467 80.7168 70.728C80.5461 70.8987 80.3435 71.0373 80.1088 71.144C79.8741 71.24 79.6235 71.288 79.3568 71.288C79.1115 71.288 78.8715 71.24 78.6368 71.144C78.4128 71.0373 78.2101 70.8987 78.0288 70.728C77.8581 70.5467 77.7195 70.344 77.6128 70.12C77.5168 69.8853 77.4688 69.6453 77.4688 69.4C77.4688 69.1333 77.5168 68.8827 77.6128 68.648C77.7195 68.4133 77.8581 68.2107 78.0288 68.04C78.2101 67.8587 78.4128 67.72 78.6368 67.624C78.8715 67.5173 79.1115 67.464 79.3568 67.464H82.2848V66.184H80.0128C79.9275 66.184 79.8421 66.1627 79.7568 66.12C79.6821 66.0667 79.6448 65.976 79.6448 65.848V64.92C79.6448 64.792 79.6821 64.7067 79.7568 64.664C79.8315 64.6107 79.9168 64.584 80.0128 64.584H82.2848V63.704C82.2848 63.416 82.3541 63.1973 82.4928 63.048C82.6315 62.888 82.8608 62.808 83.1808 62.808H85.1328C85.4528 62.808 85.6821 62.888 85.8208 63.048C85.9595 63.1973 86.0288 63.416 86.0288 63.704V72.36ZM86.3488 75.848C86.3488 76.0827 86.3008 76.3013 86.2048 76.504C86.1195 76.7173 85.9968 76.904 85.8368 77.064C85.6875 77.224 85.5061 77.3467 85.2928 77.432C85.0901 77.528 84.8715 77.576 84.6368 77.576H84.5568H74.1408C73.4475 77.576 72.9515 77.4267 72.6528 77.128C72.3541 76.8293 72.2048 76.376 72.2048 75.768V72.952C72.2048 72.664 72.2741 72.4453 72.4128 72.296C72.5515 72.136 72.7808 72.056 73.1008 72.056H75.0528C75.3728 72.056 75.6021 72.136 75.7408 72.296C75.8795 72.4453 75.9488 72.664 75.9488 72.952V75.64C75.9488 75.7787 75.9701 75.8693 76.0128 75.912C76.0555 75.9547 76.1408 75.976 76.2688 75.976H82.9088V75.848C82.9088 75.6133 82.9515 75.3893 83.0368 75.176C83.1328 74.9733 83.2608 74.7973 83.4208 74.648C83.5808 74.488 83.7621 74.3653 83.9648 74.28C84.1781 74.184 84.4021 74.136 84.6368 74.136C84.8715 74.136 85.0901 74.184 85.2928 74.28C85.5061 74.3653 85.6875 74.488 85.8368 74.648C85.9968 74.7973 86.1195 74.9733 86.2048 75.176C86.3008 75.3893 86.3488 75.6133 86.3488 75.848ZM74.3328 63.704C74.3328 63.416 74.4021 63.1973 74.5408 63.048C74.6795 62.888 74.9088 62.808 75.2288 62.808H77.1808C77.5008 62.808 77.7301 62.888 77.8688 63.048C78.0075 63.1973 78.0768 63.416 78.0768 63.704V64.792C78.0768 65.9547 77.8795 66.9253 77.4848 67.704C77.0901 68.4827 76.5835 69.1173 75.9648 69.608C75.3461 70.0987 74.6635 70.472 73.9168 70.728C73.1701 70.9733 72.4448 71.1493 71.7408 71.256C71.5275 71.288 71.4208 71.2187 71.4208 71.048V70.232C71.4208 70.136 71.4315 70.0773 71.4528 70.056C71.4741 70.024 71.5275 69.992 71.6128 69.96C72.1035 69.7573 72.5195 69.544 72.8608 69.32C73.2128 69.0853 73.4955 68.8027 73.7088 68.472C73.9328 68.1413 74.0928 67.736 74.1888 67.256C74.2848 66.776 74.3328 66.1787 74.3328 65.464V63.704ZM98.6368 65.496C98.6368 65.304 98.5941 65.1227 98.5088 64.952C98.4341 64.7707 98.2955 64.616 98.0928 64.488C97.8901 64.3493 97.6128 64.2427 97.2608 64.168C96.9195 64.0827 96.4768 64.04 95.9328 64.04C95.3995 64.04 94.9568 64.0827 94.6048 64.168C94.2635 64.2427 93.9861 64.3493 93.7728 64.488C93.5701 64.616 93.4261 64.7707 93.3408 64.952C93.2661 65.1227 93.2288 65.304 93.2288 65.496C93.2288 65.688 93.2715 65.8747 93.3568 66.056C93.4421 66.2267 93.5861 66.3813 93.7888 66.52C94.0021 66.648 94.2795 66.7547 94.6208 66.84C94.9621 66.9147 95.3995 66.952 95.9328 66.952C96.4768 66.952 96.9195 66.9147 97.2608 66.84C97.6128 66.7547 97.8901 66.648 98.0928 66.52C98.2955 66.3813 98.4341 66.2267 98.5088 66.056C98.5941 65.8747 98.6368 65.688 98.6368 65.496ZM102.493 65.496C102.493 65.9333 102.381 66.3333 102.157 66.696C101.943 67.048 101.581 67.352 101.069 67.608C100.557 67.8533 99.8795 68.0453 99.0368 68.184C98.2048 68.3227 97.1701 68.392 95.9328 68.392C94.6955 68.392 93.6555 68.3227 92.8128 68.184C91.9701 68.0453 91.2928 67.848 90.7808 67.592C90.2688 67.336 89.9008 67.032 89.6768 66.68C89.4635 66.3173 89.3568 65.9227 89.3568 65.496C89.3568 65.0693 89.4635 64.68 89.6768 64.328C89.9008 63.9653 90.2688 63.656 90.7808 63.4C91.2928 63.144 91.9701 62.9467 92.8128 62.808C93.6555 62.6693 94.6955 62.6 95.9328 62.6C97.1701 62.6 98.2048 62.6693 99.0368 62.808C99.8795 62.9467 100.557 63.144 101.069 63.4C101.581 63.6453 101.943 63.9493 102.157 64.312C102.381 64.664 102.493 65.0587 102.493 65.496ZM88.8448 70.52C88.7595 70.52 88.6741 70.4987 88.5888 70.456C88.5141 70.4027 88.4768 70.312 88.4768 70.184V69.256C88.4768 69.128 88.5141 69.0427 88.5888 69C88.6635 68.9467 88.7488 68.92 88.8448 68.92H103.005C103.101 68.92 103.186 68.9467 103.261 69C103.335 69.0427 103.373 69.128 103.373 69.256V70.184C103.373 70.312 103.33 70.4027 103.245 70.456C103.17 70.4987 103.09 70.52 103.005 70.52H88.8448ZM90.9728 77.576C90.3541 77.576 89.9275 77.4587 89.6928 77.224C89.4688 76.9893 89.3568 76.6107 89.3568 76.088V74.536C89.3568 74.2907 89.4155 74.0827 89.5328 73.912C89.6501 73.7307 89.8901 73.64 90.2528 73.64H98.5888C98.6955 73.64 98.7488 73.5813 98.7488 73.464V73.096C98.7488 72.9787 98.6955 72.92 98.5888 72.92H89.7248C89.6395 72.92 89.5541 72.8987 89.4688 72.856C89.3941 72.8027 89.3568 72.712 89.3568 72.584V71.656C89.3568 71.528 89.3941 71.4427 89.4688 71.4C89.5435 71.3467 89.6288 71.32 89.7248 71.32H101.597C101.874 71.32 102.093 71.3893 102.253 71.528C102.413 71.656 102.493 71.8853 102.493 72.216V74.344C102.493 74.6747 102.413 74.904 102.253 75.032C102.093 75.1707 101.874 75.24 101.597 75.24H93.2608C93.1541 75.24 93.1008 75.2933 93.1008 75.4V75.8C93.1008 75.9173 93.1648 75.976 93.2928 75.976H102.125C102.221 75.976 102.306 75.9973 102.381 76.04C102.455 76.0933 102.493 76.184 102.493 76.312V77.24C102.493 77.368 102.45 77.4533 102.365 77.496C102.29 77.5493 102.21 77.576 102.125 77.576H90.9728ZM110.065 66.024C110.065 65.5867 110.14 65.1653 110.289 64.76C110.449 64.344 110.705 63.976 111.057 63.656C111.42 63.336 111.9 63.08 112.497 62.888C113.095 62.6853 113.841 62.584 114.737 62.584C115.623 62.584 116.364 62.6853 116.961 62.888C117.559 63.08 118.039 63.336 118.401 63.656C118.764 63.976 119.02 64.344 119.169 64.76C119.329 65.1653 119.409 65.5867 119.409 66.024C119.409 66.376 119.361 66.7227 119.265 67.064C119.169 67.4053 119.009 67.72 118.785 68.008C118.572 68.296 118.284 68.552 117.921 68.776C117.569 69 117.137 69.176 116.625 69.304V70.184H119.201C119.297 70.184 119.383 70.2107 119.457 70.264C119.532 70.3067 119.569 70.392 119.569 70.52V71.448C119.569 71.576 119.527 71.6667 119.441 71.72C119.367 71.7627 119.287 71.784 119.201 71.784H110.273C110.188 71.784 110.103 71.7627 110.017 71.72C109.943 71.6667 109.905 71.576 109.905 71.448V70.52C109.905 70.392 109.943 70.3067 110.017 70.264C110.092 70.2107 110.177 70.184 110.273 70.184H112.881V69.304C112.348 69.1867 111.9 69.016 111.537 68.792C111.185 68.568 110.897 68.312 110.673 68.024C110.46 67.7253 110.305 67.4053 110.209 67.064C110.113 66.7227 110.065 66.376 110.065 66.024ZM123.633 68.84V72.344C123.633 72.632 123.564 72.856 123.425 73.016C123.287 73.1653 123.057 73.24 122.737 73.24H120.785C120.465 73.24 120.236 73.1653 120.097 73.016C119.959 72.856 119.889 72.632 119.889 72.344V63.704C119.889 63.416 119.959 63.1973 120.097 63.048C120.236 62.888 120.465 62.808 120.785 62.808H122.737C123.057 62.808 123.287 62.888 123.425 63.048C123.564 63.1973 123.633 63.416 123.633 63.704V67.24H125.281C125.377 67.24 125.463 67.2667 125.537 67.32C125.612 67.3627 125.649 67.448 125.649 67.576V68.504C125.649 68.632 125.607 68.7227 125.521 68.776C125.447 68.8187 125.367 68.84 125.281 68.84H123.633ZM123.793 75.848C123.793 76.0827 123.745 76.3013 123.649 76.504C123.564 76.7173 123.441 76.904 123.281 77.064C123.132 77.224 122.951 77.3467 122.737 77.432C122.535 77.528 122.316 77.576 122.081 77.576H112.641C111.948 77.576 111.452 77.4267 111.153 77.128C110.855 76.8293 110.705 76.376 110.705 75.768V73.432C110.705 73.144 110.775 72.9253 110.913 72.776C111.052 72.616 111.281 72.536 111.601 72.536H113.553C113.873 72.536 114.103 72.616 114.241 72.776C114.38 72.9253 114.449 73.144 114.449 73.432V75.64C114.449 75.7787 114.471 75.8693 114.513 75.912C114.556 75.9547 114.641 75.976 114.769 75.976H120.353V75.848C120.353 75.6133 120.396 75.3893 120.481 75.176C120.577 74.9733 120.705 74.7973 120.865 74.648C121.025 74.488 121.207 74.3653 121.409 74.28C121.623 74.184 121.847 74.136 122.081 74.136C122.316 74.136 122.535 74.184 122.737 74.28C122.951 74.3653 123.132 74.488 123.281 74.648C123.441 74.7973 123.564 74.9733 123.649 75.176C123.745 75.3893 123.793 75.6133 123.793 75.848ZM115.841 66.04C115.841 65.8373 115.831 65.6187 115.809 65.384C115.788 65.1387 115.74 64.92 115.665 64.728C115.601 64.5253 115.495 64.36 115.345 64.232C115.196 64.0933 114.993 64.024 114.737 64.024C114.481 64.024 114.279 64.0933 114.129 64.232C113.98 64.36 113.868 64.5253 113.793 64.728C113.719 64.9307 113.671 65.1493 113.649 65.384C113.628 65.6187 113.617 65.8373 113.617 66.04C113.617 66.2427 113.628 66.4613 113.649 66.696C113.671 66.9307 113.719 67.1493 113.793 67.352C113.868 67.5547 113.98 67.7253 114.129 67.864C114.279 67.992 114.481 68.056 114.737 68.056C114.993 68.056 115.196 67.992 115.345 67.864C115.495 67.7253 115.601 67.56 115.665 67.368C115.74 67.1653 115.788 66.9467 115.809 66.712C115.831 66.4773 115.841 66.2533 115.841 66.04ZM127.249 76.952C127.164 76.952 127.079 76.9253 126.993 76.872C126.919 76.8293 126.881 76.744 126.881 76.616V75.688C126.881 75.56 126.919 75.4693 126.993 75.416C127.068 75.3733 127.153 75.352 127.249 75.352H129.457V72.552H129.377C128.759 72.552 128.332 72.4347 128.097 72.2C127.873 71.9653 127.761 71.5867 127.761 71.064V67.784C127.761 67.5387 127.82 67.3307 127.937 67.16C128.055 66.9787 128.295 66.888 128.657 66.888H136.993C137.1 66.888 137.153 66.8293 137.153 66.712V64.584C137.153 64.4667 137.1 64.408 136.993 64.408H130.497V64.424C130.497 64.648 130.455 64.856 130.369 65.048C130.284 65.24 130.167 65.4107 130.017 65.56C129.868 65.6987 129.697 65.8107 129.505 65.896C129.313 65.9813 129.105 66.024 128.881 66.024C128.433 66.024 128.055 65.8693 127.745 65.56C127.436 65.2507 127.281 64.872 127.281 64.424C127.281 64.2 127.324 63.992 127.409 63.8C127.495 63.608 127.607 63.4373 127.745 63.288C127.895 63.1387 128.065 63.0213 128.257 62.936C128.449 62.8507 128.657 62.808 128.881 62.808H140.001C140.279 62.808 140.497 62.8773 140.657 63.016C140.817 63.144 140.897 63.3733 140.897 63.704V67.592C140.897 67.9227 140.817 68.1573 140.657 68.296C140.497 68.424 140.279 68.488 140.001 68.488H131.665C131.559 68.488 131.505 68.5413 131.505 68.648V70.776C131.505 70.8933 131.569 70.952 131.697 70.952H140.689C140.785 70.952 140.871 70.9787 140.945 71.032C141.02 71.0747 141.057 71.16 141.057 71.288V72.216C141.057 72.344 141.015 72.4347 140.929 72.488C140.855 72.5307 140.775 72.552 140.689 72.552H139.185V75.352H141.409C141.505 75.352 141.591 75.3733 141.665 75.416C141.74 75.4693 141.777 75.56 141.777 75.688V76.616C141.777 76.744 141.735 76.8293 141.649 76.872C141.575 76.9253 141.495 76.952 141.409 76.952H127.249ZM133.201 75.352H135.441V72.552H133.201V75.352ZM152.417 71.56C152.417 72.1573 152.348 72.7707 152.209 73.4C152.071 74.0187 151.831 74.5893 151.489 75.112C151.148 75.6347 150.689 76.0613 150.113 76.392C149.537 76.7227 148.812 76.888 147.937 76.888C147.329 76.888 146.796 76.808 146.337 76.648C145.879 76.4987 145.484 76.2907 145.153 76.024C144.833 75.768 144.567 75.464 144.353 75.112C144.151 74.76 143.991 74.3867 143.873 73.992C143.756 73.5973 143.671 73.192 143.617 72.776C143.575 72.36 143.553 71.9547 143.553 71.56C143.553 70.888 143.607 70.2373 143.713 69.608C143.831 68.968 144.049 68.3973 144.369 67.896C144.689 67.3947 145.132 66.9947 145.697 66.696C146.273 66.3867 147.02 66.232 147.937 66.232C148.812 66.232 149.537 66.3867 150.113 66.696C150.689 66.9947 151.148 67.3947 151.489 67.896C151.831 68.3867 152.071 68.952 152.209 69.592C152.348 70.232 152.417 70.888 152.417 71.56ZM156.913 70.12V76.056C156.913 76.344 156.844 76.5627 156.705 76.712C156.567 76.872 156.337 76.952 156.017 76.952H154.065C153.745 76.952 153.516 76.872 153.377 76.712C153.239 76.5627 153.169 76.344 153.169 76.056V63.704C153.169 63.416 153.239 63.1973 153.377 63.048C153.516 62.888 153.745 62.808 154.065 62.808H156.017C156.337 62.808 156.567 62.888 156.705 63.048C156.844 63.1973 156.913 63.416 156.913 63.704V68.52H158.561C158.657 68.52 158.743 68.5467 158.817 68.6C158.892 68.6427 158.929 68.728 158.929 68.856V69.784C158.929 69.912 158.887 70.0027 158.801 70.056C158.727 70.0987 158.647 70.12 158.561 70.12H156.913ZM143.649 65.688C143.564 65.688 143.479 65.6667 143.393 65.624C143.319 65.5707 143.281 65.48 143.281 65.352V64.424C143.281 64.296 143.319 64.2107 143.393 64.168C143.468 64.1147 143.553 64.088 143.649 64.088H146.177V63.224C146.177 63.0107 146.236 62.8347 146.353 62.696C146.481 62.5573 146.668 62.488 146.913 62.488H149.185C149.431 62.488 149.612 62.5573 149.729 62.696C149.857 62.8347 149.921 63.0107 149.921 63.224V64.088H152.481C152.577 64.088 152.663 64.1147 152.737 64.168C152.812 64.2107 152.849 64.296 152.849 64.424V65.352C152.849 65.48 152.807 65.5707 152.721 65.624C152.647 65.6667 152.567 65.688 152.481 65.688H143.649ZM148.849 71.56C148.849 70.2267 148.775 69.2453 148.625 68.616C148.487 67.9867 148.263 67.672 147.953 67.672C147.665 67.672 147.452 67.9867 147.313 68.616C147.175 69.2347 147.105 70.216 147.105 71.56C147.105 72.264 147.121 72.8667 147.153 73.368C147.185 73.8587 147.239 74.2587 147.313 74.568C147.388 74.8773 147.473 75.1013 147.569 75.24C147.676 75.3787 147.804 75.448 147.953 75.448C148.263 75.448 148.487 75.1493 148.625 74.552C148.775 73.9547 148.849 72.9573 148.849 71.56ZM166.241 64.408V69.976C166.241 70.7547 166.145 71.4587 165.953 72.088C165.772 72.7067 165.521 73.2613 165.201 73.752C164.892 74.2427 164.529 74.6693 164.113 75.032C163.708 75.4053 163.276 75.72 162.817 75.976C162.359 76.232 161.889 76.4347 161.409 76.584C160.94 76.744 160.492 76.8613 160.065 76.936C159.852 76.968 159.745 76.8987 159.745 76.728V75.912C159.745 75.816 159.756 75.752 159.777 75.72C159.799 75.6987 159.852 75.672 159.937 75.64C160.375 75.448 160.753 75.2293 161.073 74.984C161.393 74.7387 161.66 74.4347 161.873 74.072C162.087 73.7093 162.241 73.2773 162.337 72.776C162.444 72.2747 162.497 71.6773 162.497 70.984V64.408H160.449C160.364 64.408 160.279 64.3867 160.193 64.344C160.119 64.2907 160.081 64.2 160.081 64.072V63.144C160.081 63.016 160.119 62.9307 160.193 62.888C160.268 62.8347 160.353 62.808 160.449 62.808H168.801C168.897 62.808 168.983 62.8347 169.057 62.888C169.132 62.9307 169.169 63.016 169.169 63.144V64.072C169.169 64.2 169.127 64.2907 169.041 64.344C168.967 64.3867 168.887 64.408 168.801 64.408H166.241ZM174.353 76.056C174.353 76.344 174.284 76.5627 174.145 76.712C174.007 76.872 173.777 76.952 173.457 76.952H171.505C171.185 76.952 170.956 76.872 170.817 76.712C170.679 76.5627 170.609 76.344 170.609 76.056V63.704C170.609 63.416 170.679 63.1973 170.817 63.048C170.956 62.888 171.185 62.808 171.505 62.808H173.457C173.777 62.808 174.007 62.888 174.145 63.048C174.284 63.1973 174.353 63.416 174.353 63.704V76.056ZM165.217 74.92C165.217 74.6427 165.271 74.3813 165.377 74.136C165.484 73.88 165.628 73.6613 165.809 73.48C165.991 73.288 166.204 73.1387 166.449 73.032C166.705 72.9253 166.972 72.872 167.249 72.872C167.527 72.872 167.788 72.9253 168.033 73.032C168.289 73.1387 168.508 73.288 168.689 73.48C168.881 73.6613 169.031 73.88 169.137 74.136C169.244 74.3813 169.297 74.6427 169.297 74.92C169.297 75.1973 169.244 75.4587 169.137 75.704C169.031 75.96 168.881 76.1787 168.689 76.36C168.508 76.5413 168.289 76.6853 168.033 76.792C167.788 76.8987 167.527 76.952 167.249 76.952C166.972 76.952 166.705 76.8987 166.449 76.792C166.204 76.6853 165.991 76.5413 165.809 76.36C165.628 76.1787 165.484 75.96 165.377 75.704C165.271 75.4587 165.217 75.1973 165.217 74.92ZM186.214 70.552C185.371 70.552 184.656 70.4347 184.07 70.2C183.494 69.9653 183.019 69.6613 182.646 69.288C182.283 68.904 182.016 68.4827 181.846 68.024C181.686 67.5547 181.606 67.0907 181.606 66.632C181.606 66.152 181.686 65.672 181.846 65.192C182.016 64.7013 182.283 64.264 182.646 63.88C183.019 63.496 183.494 63.1867 184.07 62.952C184.656 62.7067 185.371 62.584 186.214 62.584C187.056 62.584 187.766 62.7067 188.342 62.952C188.928 63.1867 189.403 63.496 189.766 63.88C190.139 64.264 190.406 64.7013 190.566 65.192C190.736 65.672 190.822 66.152 190.822 66.632C190.822 67.0907 190.736 67.5547 190.566 68.024C190.406 68.4827 190.139 68.904 189.766 69.288C189.403 69.6613 188.928 69.9653 188.342 70.2C187.766 70.4347 187.056 70.552 186.214 70.552ZM195.318 67.176V69.736C195.318 70.024 195.248 70.248 195.11 70.408C194.971 70.5573 194.742 70.632 194.422 70.632H192.47C192.15 70.632 191.92 70.5573 191.782 70.408C191.643 70.248 191.574 70.024 191.574 69.736V63.704C191.574 63.416 191.643 63.1973 191.782 63.048C191.92 62.888 192.15 62.808 192.47 62.808H194.422C194.742 62.808 194.971 62.888 195.11 63.048C195.248 63.1973 195.318 63.416 195.318 63.704V65.576H196.966C197.062 65.576 197.147 65.6027 197.222 65.656C197.296 65.6987 197.334 65.784 197.334 65.912V66.84C197.334 66.968 197.291 67.0587 197.206 67.112C197.131 67.1547 197.051 67.176 196.966 67.176H195.318ZM184.23 77.576C183.536 77.576 183.04 77.4267 182.742 77.128C182.443 76.8293 182.294 76.376 182.294 75.768V72.472C182.294 72.184 182.363 71.9653 182.502 71.816C182.64 71.656 182.87 71.576 183.19 71.576H184.982C185.302 71.576 185.531 71.656 185.67 71.816C185.808 71.9653 185.878 72.184 185.878 72.472V75.64C185.878 75.7787 185.899 75.8693 185.942 75.912C185.984 75.9547 186.07 75.976 186.198 75.976H188.198C188.294 75.976 188.379 75.9973 188.454 76.04C188.528 76.0933 188.566 76.184 188.566 76.312V77.24C188.566 77.368 188.523 77.4533 188.438 77.496C188.363 77.5493 188.283 77.576 188.198 77.576H184.23ZM192.134 77.656C191.643 77.656 191.2 77.6293 190.806 77.576C190.411 77.5227 190.075 77.4267 189.798 77.288C189.52 77.1493 189.307 76.9627 189.158 76.728C189.008 76.4933 188.934 76.1893 188.934 75.816C188.934 75.464 189.008 75.1707 189.158 74.936C189.307 74.6907 189.52 74.4987 189.798 74.36C190.086 74.2107 190.427 74.104 190.822 74.04C191.216 73.976 191.654 73.944 192.134 73.944C192.624 73.944 193.067 73.976 193.462 74.04C193.856 74.104 194.192 74.2107 194.47 74.36C194.758 74.4987 194.976 74.6907 195.126 74.936C195.275 75.1707 195.35 75.464 195.35 75.816C195.35 76.1893 195.27 76.4933 195.11 76.728C194.96 76.9627 194.747 77.1493 194.47 77.288C194.192 77.4267 193.856 77.5227 193.462 77.576C193.067 77.6293 192.624 77.656 192.134 77.656ZM188.598 73.544C188.512 73.544 188.427 73.5227 188.342 73.48C188.267 73.4267 188.23 73.336 188.23 73.208V72.28C188.23 72.152 188.267 72.0667 188.342 72.024C188.416 71.9707 188.502 71.944 188.598 71.944H190.422V71.704C190.422 71.4907 190.48 71.3147 190.598 71.176C190.726 71.0373 190.912 70.968 191.158 70.968H193.27C193.515 70.968 193.696 71.0373 193.814 71.176C193.942 71.3147 194.006 71.4907 194.006 71.704V71.944H195.846C195.942 71.944 196.027 71.9707 196.102 72.024C196.176 72.0667 196.214 72.152 196.214 72.28V73.208C196.214 73.336 196.171 73.4267 196.086 73.48C196.011 73.5227 195.931 73.544 195.846 73.544H188.598ZM186.214 69.112C186.374 69.112 186.518 69.0747 186.646 69C186.774 68.9253 186.88 68.7973 186.966 68.616C187.051 68.4347 187.115 68.184 187.158 67.864C187.2 67.544 187.222 67.1333 187.222 66.632C187.222 66.1093 187.2 65.6827 187.158 65.352C187.115 65.0107 187.051 64.744 186.966 64.552C186.88 64.3493 186.774 64.2107 186.646 64.136C186.518 64.0613 186.374 64.024 186.214 64.024C186.054 64.024 185.91 64.0613 185.782 64.136C185.654 64.2107 185.547 64.3493 185.462 64.552C185.376 64.744 185.312 65.0107 185.27 65.352C185.227 65.6827 185.206 66.1093 185.206 66.632C185.206 67.1333 185.227 67.544 185.27 67.864C185.312 68.184 185.376 68.4347 185.462 68.616C185.547 68.7973 185.654 68.9253 185.782 69C185.91 69.0747 186.054 69.112 186.214 69.112ZM192.134 76.376C192.23 76.376 192.331 76.344 192.438 76.28C192.555 76.216 192.614 76.056 192.614 75.8C192.614 75.544 192.555 75.384 192.438 75.32C192.331 75.256 192.23 75.224 192.134 75.224C192.038 75.224 191.931 75.2613 191.814 75.336C191.707 75.4213 191.654 75.576 191.654 75.8C191.654 76.0453 191.707 76.2 191.814 76.264C191.931 76.3387 192.038 76.376 192.134 76.376ZM202.854 71.192C202.022 71.192 201.312 71.0747 200.726 70.84C200.139 70.5947 199.659 70.2747 199.286 69.88C198.923 69.4853 198.656 69.032 198.486 68.52C198.326 68.008 198.246 67.4853 198.246 66.952C198.246 66.3973 198.326 65.8587 198.486 65.336C198.656 64.8027 198.923 64.3333 199.286 63.928C199.659 63.5227 200.139 63.1973 200.726 62.952C201.312 62.7067 202.022 62.584 202.854 62.584C203.686 62.584 204.395 62.7067 204.982 62.952C205.568 63.1973 206.043 63.5227 206.406 63.928C206.779 64.3333 207.046 64.8027 207.206 65.336C207.376 65.8587 207.462 66.3973 207.462 66.952C207.462 67.4853 207.376 68.008 207.206 68.52C207.046 69.032 206.779 69.4853 206.406 69.88C206.043 70.2747 205.568 70.5947 204.982 70.84C204.395 71.0747 203.686 71.192 202.854 71.192ZM211.958 67.816V70.376C211.958 70.664 211.888 70.888 211.75 71.048C211.611 71.1973 211.382 71.272 211.062 71.272H209.11C208.79 71.272 208.56 71.1973 208.422 71.048C208.283 70.888 208.214 70.664 208.214 70.376V63.704C208.214 63.416 208.283 63.1973 208.422 63.048C208.56 62.888 208.79 62.808 209.11 62.808H211.062C211.382 62.808 211.611 62.888 211.75 63.048C211.888 63.1973 211.958 63.416 211.958 63.704V66.216H213.606C213.702 66.216 213.787 66.2427 213.862 66.296C213.936 66.3387 213.974 66.424 213.974 66.552V67.48C213.974 67.608 213.931 67.6987 213.846 67.752C213.771 67.7947 213.691 67.816 213.606 67.816H211.958ZM204.518 72.888C204.518 73.496 204.379 74.0613 204.102 74.584C203.824 75.1067 203.44 75.5707 202.95 75.976C202.459 76.3813 201.878 76.7173 201.206 76.984C200.534 77.2613 199.803 77.448 199.014 77.544C198.843 77.5653 198.758 77.4907 198.758 77.32V76.408C198.758 76.3013 198.774 76.2213 198.806 76.168C198.838 76.1253 198.923 76.0827 199.062 76.04C199.382 75.944 199.654 75.7947 199.878 75.592C200.112 75.3893 200.299 75.16 200.438 74.904C200.587 74.648 200.694 74.376 200.758 74.088C200.832 73.7893 200.87 73.496 200.87 73.208V72.552C200.87 72.3067 200.912 72.1093 200.998 71.96C201.083 71.8107 201.259 71.736 201.526 71.736H203.862C204.139 71.736 204.315 71.816 204.39 71.976C204.475 72.1253 204.518 72.3173 204.518 72.552V72.888ZM209.142 72.888C209.142 73.496 209.003 74.0613 208.726 74.584C208.448 75.1067 208.064 75.5707 207.574 75.976C207.083 76.3813 206.502 76.7173 205.83 76.984C205.158 77.2613 204.427 77.448 203.638 77.544C203.467 77.5653 203.382 77.4907 203.382 77.32V76.408C203.382 76.3013 203.398 76.2213 203.43 76.168C203.462 76.1253 203.547 76.0827 203.686 76.04C204.006 75.944 204.278 75.7947 204.502 75.592C204.736 75.3893 204.923 75.16 205.062 74.904C205.211 74.648 205.318 74.376 205.382 74.088C205.456 73.7893 205.494 73.496 205.494 73.208V72.552C205.494 72.3067 205.536 72.1093 205.622 71.96C205.707 71.8107 205.883 71.736 206.15 71.736H208.486C208.763 71.736 208.939 71.816 209.014 71.976C209.099 72.1253 209.142 72.3173 209.142 72.552V72.888ZM202.854 69.752C203.014 69.752 203.158 69.7147 203.286 69.64C203.414 69.5653 203.52 69.4267 203.606 69.224C203.702 69.0107 203.771 68.7227 203.814 68.36C203.856 67.9973 203.878 67.528 203.878 66.952C203.878 66.3547 203.856 65.8693 203.814 65.496C203.771 65.112 203.702 64.8133 203.606 64.6C203.52 64.376 203.414 64.2267 203.286 64.152C203.158 64.0667 203.014 64.024 202.854 64.024C202.694 64.024 202.55 64.0667 202.422 64.152C202.294 64.2267 202.182 64.376 202.086 64.6C202 64.8133 201.936 65.112 201.894 65.496C201.851 65.8693 201.83 66.3547 201.83 66.952C201.83 67.528 201.851 67.9973 201.894 68.36C201.936 68.7227 202 69.0107 202.086 69.224C202.182 69.4267 202.294 69.5653 202.422 69.64C202.55 69.7147 202.694 69.752 202.854 69.752ZM212.358 75.848C212.358 76.0827 212.31 76.3013 212.214 76.504C212.128 76.7173 212.006 76.904 211.846 77.064C211.696 77.224 211.515 77.3467 211.302 77.432C211.099 77.528 210.88 77.576 210.646 77.576C210.411 77.576 210.187 77.528 209.974 77.432C209.771 77.3467 209.59 77.224 209.43 77.064C209.27 76.904 209.142 76.7173 209.046 76.504C208.96 76.3013 208.918 76.0827 208.918 75.848C208.918 75.6133 208.96 75.3893 209.046 75.176C209.142 74.9733 209.27 74.7973 209.43 74.648C209.59 74.488 209.771 74.3653 209.974 74.28C210.187 74.184 210.411 74.136 210.646 74.136C210.88 74.136 211.099 74.184 211.302 74.28C211.515 74.3653 211.696 74.488 211.846 74.648C212.006 74.7973 212.128 74.9733 212.214 75.176C212.31 75.3893 212.358 75.6133 212.358 75.848ZM219.83 72.504H225.478V72.12C225.478 71.832 225.547 71.6133 225.686 71.464C225.824 71.304 226.054 71.224 226.374 71.224H228.326C228.646 71.224 228.875 71.304 229.014 71.464C229.152 71.6133 229.222 71.832 229.222 72.12V76.68C229.222 76.968 229.152 77.1867 229.014 77.336C228.875 77.496 228.646 77.576 228.326 77.576H226.374C226.054 77.576 225.824 77.496 225.686 77.336C225.547 77.1867 225.478 76.968 225.478 76.68V76.008C224.443 76.4987 223.318 76.8827 222.102 77.16C220.886 77.4373 219.526 77.576 218.022 77.576C217.328 77.576 216.832 77.4267 216.534 77.128C216.235 76.8293 216.086 76.376 216.086 75.768V72.12C216.086 71.832 216.155 71.6133 216.294 71.464C216.432 71.304 216.662 71.224 216.982 71.224H218.934C219.254 71.224 219.483 71.304 219.622 71.464C219.76 71.6133 219.83 71.832 219.83 72.12V72.504ZM229.222 68.36C228.806 68.3493 228.31 68.312 227.734 68.248C227.168 68.1733 226.582 68.056 225.974 67.896C225.366 67.7253 224.768 67.496 224.182 67.208C223.606 66.92 223.099 66.552 222.662 66.104C222.235 66.5413 221.739 66.904 221.174 67.192C220.608 67.4693 220.022 67.6933 219.414 67.864C218.816 68.0347 218.23 68.1573 217.654 68.232C217.078 68.3067 216.566 68.3493 216.118 68.36C216.032 68.36 215.958 68.344 215.894 68.312C215.84 68.2693 215.814 68.1947 215.814 68.088V67.064C215.814 67.0107 215.824 66.968 215.846 66.936C215.867 66.8933 215.926 66.8667 216.022 66.856C216.79 66.8133 217.451 66.6693 218.006 66.424C218.56 66.1787 219.019 65.896 219.382 65.576C219.744 65.256 220.011 64.9253 220.182 64.584C220.363 64.232 220.454 63.928 220.454 63.672V63.384C220.454 63.1387 220.491 62.984 220.566 62.92C220.651 62.8453 220.832 62.808 221.11 62.808H224.166C224.443 62.808 224.619 62.8453 224.694 62.92C224.779 62.984 224.822 63.1387 224.822 63.384V63.672C224.822 63.8747 224.891 64.1413 225.03 64.472C225.168 64.8027 225.408 65.1333 225.75 65.464C226.102 65.7947 226.566 66.0933 227.142 66.36C227.718 66.6267 228.443 66.792 229.318 66.856C229.414 66.8667 229.472 66.8933 229.494 66.936C229.515 66.968 229.526 67.0107 229.526 67.064V68.088C229.526 68.2693 229.424 68.36 229.222 68.36ZM215.574 70.52C215.488 70.52 215.403 70.4987 215.318 70.456C215.243 70.4027 215.206 70.312 215.206 70.184V69.256C215.206 69.128 215.243 69.0427 215.318 69C215.392 68.9467 215.478 68.92 215.574 68.92H229.734C229.83 68.92 229.915 68.9467 229.99 69C230.064 69.0427 230.102 69.128 230.102 69.256V70.184C230.102 70.312 230.059 70.4027 229.974 70.456C229.899 70.4987 229.819 70.52 229.734 70.52H215.574ZM220.038 75.224C220.422 75.224 220.832 75.2133 221.27 75.192C221.718 75.1813 222.176 75.1493 222.646 75.096C223.115 75.0533 223.59 74.9947 224.07 74.92C224.55 74.8347 225.019 74.728 225.478 74.6V74.104H219.83V74.984C219.83 75.144 219.899 75.224 220.038 75.224ZM235.638 73.496C235.638 73.656 235.659 73.7893 235.702 73.896C235.744 73.992 235.851 74.04 236.022 74.04C236.502 74.04 237.014 73.9493 237.558 73.768C238.102 73.5867 238.651 73.3413 239.206 73.032C239.76 72.7227 240.299 72.3653 240.822 71.96C241.355 71.544 241.846 71.112 242.294 70.664V63.704C242.294 63.416 242.363 63.1973 242.502 63.048C242.64 62.888 242.87 62.808 243.19 62.808H245.142C245.462 62.808 245.691 62.888 245.83 63.048C245.968 63.1973 246.038 63.416 246.038 63.704V76.056C246.038 76.344 245.968 76.5627 245.83 76.712C245.691 76.872 245.462 76.952 245.142 76.952H243.19C242.87 76.952 242.64 76.872 242.502 76.712C242.363 76.5627 242.294 76.344 242.294 76.056V72.28C241.814 72.8667 241.243 73.4427 240.582 74.008C239.931 74.5733 239.222 75.0747 238.454 75.512C237.696 75.96 236.896 76.3173 236.054 76.584C235.222 76.8507 234.379 76.9733 233.526 76.952C233.046 76.9413 232.651 76.792 232.342 76.504C232.043 76.2267 231.894 75.816 231.894 75.272V63.704C231.894 63.416 231.963 63.1973 232.102 63.048C232.24 62.888 232.47 62.808 232.79 62.808H234.742C235.062 62.808 235.291 62.888 235.43 63.048C235.568 63.1973 235.638 63.416 235.638 63.704V73.496ZM257.03 62.808C257.126 62.808 257.211 62.8347 257.286 62.888C257.36 62.9307 257.398 63.016 257.398 63.144V64.072C257.398 64.2 257.355 64.2907 257.27 64.344C257.195 64.3867 257.115 64.408 257.03 64.408H252.742C252.432 64.408 252.278 64.5413 252.278 64.808V73.496C252.278 73.656 252.299 73.7893 252.342 73.896C252.384 73.992 252.491 74.04 252.662 74.04C253.046 74.04 253.467 73.976 253.926 73.848C254.384 73.72 254.854 73.544 255.334 73.32C255.814 73.0853 256.294 72.8027 256.774 72.472C257.254 72.1413 257.707 71.7733 258.134 71.368V63.704C258.134 63.416 258.203 63.1973 258.342 63.048C258.48 62.888 258.71 62.808 259.03 62.808H260.982C261.302 62.808 261.531 62.888 261.67 63.048C261.808 63.1973 261.878 63.416 261.878 63.704V68.52H263.526C263.622 68.52 263.707 68.5467 263.782 68.6C263.856 68.6427 263.894 68.728 263.894 68.856V69.784C263.894 69.912 263.851 70.0027 263.766 70.056C263.691 70.0987 263.611 70.12 263.526 70.12H261.878V76.056C261.878 76.344 261.808 76.5627 261.67 76.712C261.531 76.872 261.302 76.952 260.982 76.952H259.03C258.71 76.952 258.48 76.872 258.342 76.712C258.203 76.5627 258.134 76.344 258.134 76.056V72.984C257.664 73.5173 257.12 74.0293 256.502 74.52C255.894 75 255.238 75.4213 254.534 75.784C253.84 76.1573 253.12 76.4507 252.374 76.664C251.638 76.8773 250.902 76.9733 250.166 76.952C249.686 76.9413 249.291 76.792 248.982 76.504C248.683 76.2267 248.534 75.816 248.534 75.272V63.624C248.534 63.336 248.608 63.128 248.758 63C248.907 62.872 249.104 62.808 249.35 62.808H257.03ZM265.734 75.96C265.734 75.7253 265.776 75.5013 265.862 75.288C265.958 75.0853 266.08 74.904 266.23 74.744C266.39 74.584 266.571 74.4613 266.774 74.376C266.987 74.28 267.211 74.232 267.446 74.232C267.68 74.232 267.899 74.28 268.102 74.376C268.315 74.4613 268.502 74.584 268.662 74.744C268.822 74.904 268.944 75.0853 269.03 75.288C269.126 75.5013 269.174 75.7253 269.174 75.96C269.174 76.1947 269.126 76.4133 269.03 76.616C268.944 76.8293 268.822 77.0107 268.662 77.16C268.502 77.32 268.315 77.4427 268.102 77.528C267.899 77.624 267.68 77.672 267.446 77.672C267.211 77.672 266.987 77.624 266.774 77.528C266.571 77.4427 266.39 77.32 266.23 77.16C266.08 77.0107 265.958 76.8293 265.862 76.616C265.776 76.4133 265.734 76.1947 265.734 75.96Z" fill="#5A66D6"/>
<defs>
<filter id="filter0_d_1280_8837" x="0" y="0.573242" width="328" height="117.927" filterUnits="userSpaceOnUse" color-interpolation-filters="sRGB">
<feFlood flood-opacity="0" result="BackgroundImageFix"/>
<feColorMatrix in="SourceAlpha" type="matrix" values="0 0 0 0 0 0 0 0 0 0 0 0 0 0 0 0 0 0 127 0" result="hardAlpha"/>
<feOffset dx="4" dy="4"/>
<feComposite in2="hardAlpha" operator="out"/>
<feColorMatrix type="matrix" values="0 0 0 0 0 0 0 0 0 0 0 0 0 0 0 0 0 0 0.9 0"/>
<feBlend mode="normal" in2="BackgroundImageFix" result="effect1_dropShadow_1280_8837"/>
<feBlend mode="normal" in="SourceGraphic" in2="effect1_dropShadow_1280_8837" result="shape"/>
</filter>
</defs>
</svg>
