<svg width="32" height="32" viewBox="0 0 32 32" fill="none" xmlns="http://www.w3.org/2000/svg">
<path d="M5.29815 5.65973L5.29811 5.65969L5.29366 5.66577C4.98167 6.09216 4.84947 6.62751 4.84947 7.22656V26.6445C4.84947 27.161 5.03574 27.6156 5.40021 27.98C5.76964 28.3495 6.22693 28.5425 6.74744 28.5425C7.26276 28.5425 7.71644 28.3571 8.0805 27.9942C8.45478 27.6292 8.64541 27.1692 8.64541 26.6445V20.785C8.78485 20.7512 8.95044 20.7117 9.14253 20.6665C9.49396 20.5838 9.93912 20.5386 10.4857 20.5386C11.491 20.5386 12.434 20.6444 13.3163 20.8538L13.3172 20.854C14.2355 21.07 15.1341 21.3169 16.013 21.5944L16.0142 21.5948C16.9238 21.8796 17.8491 22.1326 18.7898 22.354C19.7583 22.5818 20.7758 22.6948 21.8412 22.6948C22.4411 22.6948 22.977 22.6669 23.4466 22.6092L23.4466 22.6093L23.4548 22.6082C23.9177 22.5432 24.339 22.457 24.7166 22.3479L24.7166 22.348L24.726 22.3451C25.0966 22.2297 25.4489 22.0932 25.7822 21.9351C26.3084 21.6943 26.7199 21.3324 26.9926 20.8471C27.269 20.369 27.3954 19.8101 27.3954 19.1914V7.85938C27.3954 7.2569 27.1998 6.7291 26.7839 6.32245C26.3764 5.91624 25.8501 5.72703 25.2513 5.72703C24.8033 5.72703 24.2916 5.80115 23.7226 5.9392C23.2327 6.05251 22.582 6.11375 21.7592 6.11375C20.7944 6.11375 19.8708 6.00826 18.9872 5.79859C18.0765 5.5825 17.1735 5.33555 16.2782 5.05775C15.3597 4.76482 14.4255 4.5115 13.4757 4.29774C12.5003 4.07031 11.4759 3.9575 10.4037 3.9575C9.82655 3.9575 9.30949 3.9855 8.8548 4.04337C8.40204 4.101 7.98344 4.18829 7.60094 4.30729C7.23078 4.42245 6.86175 4.56194 6.4939 4.72543L6.49384 4.72531L6.4837 4.73011C5.9968 4.96028 5.59492 5.26722 5.29815 5.65973ZM11.6229 10.984V13.4232C11.5628 13.4171 11.5016 13.4112 11.4394 13.4055C11.1659 13.3718 10.8509 13.3559 10.4974 13.3559C9.867 13.3559 9.32094 13.4247 8.88105 13.5838L8.88104 13.5838L8.87792 13.5849C8.84296 13.5978 8.80841 13.611 8.77431 13.6243V11.2807C8.8714 11.226 9.01221 11.1604 9.20909 11.0876C9.5035 10.9814 9.92573 10.9175 10.4974 10.9175C10.6514 10.9175 10.8796 10.9282 11.1881 10.9513L11.1881 10.9515L11.2006 10.9521C11.3488 10.9593 11.4895 10.97 11.6229 10.984ZM20.622 9.89716C20.697 9.90489 20.7721 9.91227 20.8472 9.91931L20.8546 9.92001L20.862 9.92047C21.1223 9.93674 21.3862 9.94484 21.6537 9.94484C22.1204 9.94484 22.5584 9.92474 22.9671 9.88387L22.9671 9.88396L22.9765 9.88283C23.1485 9.86219 23.3132 9.83847 23.4706 9.81154V11.9327C23.3109 11.9645 23.1268 11.995 22.9172 12.0238C22.5419 12.0678 22.1211 12.0903 21.6537 12.0903C21.4951 12.0903 21.291 12.0831 21.0388 12.0678C20.9116 12.0598 20.7727 12.0486 20.622 12.0341V9.89716ZM16.6024 14.5956V12.2024C17.0667 12.3398 17.5419 12.4658 18.0278 12.5805L18.029 12.5807C18.5933 12.7124 19.1377 12.8151 19.662 12.8883V15.31C19.3868 15.2675 19.1175 15.2209 18.8541 15.1701C18.4176 15.0781 17.985 14.9786 17.5563 14.8715C17.2428 14.786 16.9249 14.694 16.6024 14.5956ZM15.6424 15.3115V17.5223C15.2006 17.3986 14.7516 17.2803 14.2955 17.1676C13.7466 17.024 13.1756 16.9124 12.5829 16.8325V14.5296C13.0891 14.6201 13.5619 14.7267 14.0015 14.8491C14.5157 14.9923 15.0627 15.1464 15.6424 15.3115ZM12.5829 10.153V8.0206C13.0652 8.10459 13.537 8.21253 13.9984 8.34434L13.9984 8.34437L14.0035 8.34577C14.5444 8.49388 15.0907 8.64734 15.6424 8.80614V10.9105C15.1878 10.7787 14.7386 10.6505 14.295 10.5261C13.7542 10.3744 13.1834 10.2502 12.5829 10.153ZM20.622 16.4027C20.7752 16.4174 20.923 16.4286 21.0653 16.4363L21.0653 16.4365L21.0786 16.4369C21.3783 16.4448 21.6405 16.4487 21.8646 16.4487C22.3325 16.4487 22.7468 16.4247 23.1037 16.3737C23.2296 16.3561 23.3519 16.3369 23.4706 16.316V18.4895C23.3857 18.537 23.2525 18.5977 23.0518 18.6647C22.7511 18.7602 22.319 18.8169 21.7357 18.8169C21.4843 18.8169 21.2329 18.8058 20.9814 18.7836C20.8634 18.7729 20.7436 18.7604 20.622 18.7463V16.4027Z" fill="#F4F4F4" stroke="#636363" stroke-width="0.96"/>
</svg>
