<svg width="328" height="119" viewBox="0 0 328 119" fill="none" xmlns="http://www.w3.org/2000/svg">
<g filter="url(#filter0_d_1280_8850)">
<path d="M0 35.1082C0 30.1376 4.02944 26.1082 9 26.1082L78.7552 26.1082C80.5444 26.1082 82.293 25.5749 83.7777 24.5764L117.18 2.11314C122.54 -1.49163 129.84 1.55673 131.044 7.90293L133.11 18.7866C133.916 23.0341 137.629 26.1082 141.952 26.1082L315 26.1082C319.971 26.1082 324 30.1376 324 35.1082V105.5C324 110.471 319.971 114.5 315 114.5H9C4.02944 114.5 0 110.471 0 105.5V35.1082Z" fill="white"/>
<path d="M323 35.1082V105.5C323 109.918 319.418 113.5 315 113.5H9C4.58173 113.5 1 109.918 1 105.5V35.1082C1 30.6899 4.58172 27.1082 9 27.1082L78.7552 27.1082C80.7432 27.1082 82.6861 26.5157 84.3357 25.4062L117.738 2.94294C122.502 -0.261297 128.991 2.44836 130.062 8.08942L132.128 18.9731C133.024 23.6926 137.149 27.1082 141.952 27.1082L315 27.1082C319.418 27.1082 323 30.6899 323 35.1082Z" stroke="black" stroke-width="2"/>
</g>
<path d="M92.1032 72.36C92.1032 72.648 92.0339 72.872 91.8952 73.032C91.7565 73.1813 91.5272 73.256 91.2072 73.256H89.2552C88.9352 73.256 88.7059 73.1813 88.5672 73.032C88.4285 72.872 88.3592 72.648 88.3592 72.36V69.352H86.3112C85.9699 69.896 85.4792 70.3387 84.8392 70.68C84.1992 71.0213 83.3725 71.192 82.3592 71.192C81.5272 71.192 80.8179 71.0747 80.2312 70.84C79.6445 70.5947 79.1645 70.2747 78.7912 69.88C78.4285 69.4853 78.1619 69.032 77.9912 68.52C77.8312 68.008 77.7512 67.4853 77.7512 66.952C77.7512 66.3973 77.8312 65.8587 77.9912 65.336C78.1619 64.8027 78.4285 64.3333 78.7912 63.928C79.1645 63.5227 79.6445 63.1973 80.2312 62.952C80.8179 62.7067 81.5272 62.584 82.3592 62.584C83.3512 62.584 84.1619 62.7547 84.7912 63.096C85.4312 63.4267 85.9219 63.8587 86.2632 64.392H88.3592V63.704C88.3592 63.416 88.4285 63.1973 88.5672 63.048C88.7059 62.888 88.9352 62.808 89.2552 62.808H91.2072C91.5272 62.808 91.7565 62.888 91.8952 63.048C92.0339 63.1973 92.1032 63.416 92.1032 63.704V72.36ZM92.4232 75.848C92.4232 76.0827 92.3752 76.3013 92.2792 76.504C92.1939 76.7173 92.0712 76.904 91.9112 77.064C91.7619 77.224 91.5805 77.3467 91.3672 77.432C91.1645 77.528 90.9459 77.576 90.7112 77.576H90.6312H80.2152C79.5219 77.576 79.0259 77.4267 78.7272 77.128C78.4285 76.8293 78.2792 76.376 78.2792 75.768V72.952C78.2792 72.664 78.3485 72.4453 78.4872 72.296C78.6259 72.136 78.8552 72.056 79.1752 72.056H81.1272C81.4472 72.056 81.6765 72.136 81.8152 72.296C81.9539 72.4453 82.0232 72.664 82.0232 72.952V75.64C82.0232 75.7787 82.0445 75.8693 82.0872 75.912C82.1299 75.9547 82.2152 75.976 82.3432 75.976H88.9832V75.848C88.9832 75.6133 89.0259 75.3893 89.1112 75.176C89.2072 74.9733 89.3352 74.7973 89.4952 74.648C89.6552 74.488 89.8365 74.3653 90.0392 74.28C90.2525 74.184 90.4765 74.136 90.7112 74.136C90.9459 74.136 91.1645 74.184 91.3672 74.28C91.5805 74.3653 91.7619 74.488 91.9112 74.648C92.0712 74.7973 92.1939 74.9733 92.2792 75.176C92.3752 75.3893 92.4232 75.6133 92.4232 75.848ZM82.3592 69.752C82.5192 69.752 82.6632 69.7147 82.7912 69.64C82.9192 69.5653 83.0259 69.4267 83.1112 69.224C83.2072 69.0107 83.2765 68.7227 83.3192 68.36C83.3619 67.9973 83.3832 67.528 83.3832 66.952C83.3832 66.3547 83.3619 65.8693 83.3192 65.496C83.2765 65.112 83.2072 64.8133 83.1112 64.6C83.0259 64.376 82.9192 64.2267 82.7912 64.152C82.6632 64.0667 82.5192 64.024 82.3592 64.024C82.1992 64.024 82.0552 64.0667 81.9272 64.152C81.7992 64.2267 81.6872 64.376 81.5912 64.6C81.5059 64.8133 81.4419 65.112 81.3992 65.496C81.3565 65.8693 81.3352 66.3547 81.3352 66.952C81.3352 67.528 81.3565 67.9973 81.3992 68.36C81.4419 68.7227 81.5059 69.0107 81.5912 69.224C81.6872 69.4267 81.7992 69.5653 81.9272 69.64C82.0552 69.7147 82.1992 69.752 82.3592 69.752ZM86.9672 66.952C86.9672 67.0907 86.9619 67.2293 86.9512 67.368C86.9405 67.496 86.9245 67.624 86.9032 67.752H88.3592V65.992H86.8872C86.9085 66.152 86.9245 66.312 86.9352 66.472C86.9565 66.632 86.9672 66.792 86.9672 66.952ZM108.103 69.736C108.103 70.024 108.034 70.248 107.895 70.408C107.757 70.5573 107.527 70.632 107.207 70.632H105.255C104.935 70.632 104.706 70.5573 104.567 70.408C104.429 70.248 104.359 70.024 104.359 69.736V68.76H102.599C102.514 68.76 102.429 68.7387 102.343 68.696C102.269 68.6427 102.231 68.552 102.231 68.424V67.496C102.231 67.368 102.269 67.2827 102.343 67.24C102.418 67.1867 102.503 67.16 102.599 67.16H104.359V65.896H102.647C102.434 66.4187 102.146 66.8933 101.783 67.32C101.421 67.736 101.005 68.1093 100.535 68.44C100.066 68.76 99.5645 69.0427 99.0312 69.288C98.4979 69.5227 97.9592 69.7253 97.4152 69.896C96.8712 70.0667 96.3325 70.2053 95.7992 70.312C95.2765 70.408 94.7912 70.4827 94.3432 70.536C94.2472 70.5467 94.1832 70.5307 94.1512 70.488C94.1299 70.4347 94.1192 70.3813 94.1192 70.328V69.496C94.1192 69.4427 94.1245 69.3947 94.1352 69.352C94.1565 69.3093 94.2099 69.2773 94.2952 69.256C94.6045 69.1707 94.9405 69.064 95.3032 68.936C95.6659 68.808 96.0285 68.6587 96.3912 68.488C96.7645 68.3173 97.1219 68.1147 97.4632 67.88C97.8045 67.6453 98.1032 67.3787 98.3592 67.08C98.6259 66.7813 98.8392 66.44 98.9992 66.056C99.1592 65.6613 99.2392 65.224 99.2392 64.744V64.664C99.2392 64.5573 99.2232 64.488 99.1912 64.456C99.1592 64.424 99.0845 64.408 98.9672 64.408H97.0312C97.0205 64.6107 96.9725 64.8027 96.8872 64.984C96.8019 65.1653 96.6899 65.3253 96.5512 65.464C96.4125 65.592 96.2525 65.6933 96.0712 65.768C95.8899 65.8427 95.6979 65.88 95.4952 65.88C95.2819 65.88 95.0792 65.8427 94.8872 65.768C94.7059 65.6827 94.5459 65.5707 94.4072 65.432C94.2685 65.2933 94.1565 65.1333 94.0712 64.952C93.9965 64.7707 93.9592 64.5733 93.9592 64.36C93.9592 64.1467 93.9965 63.9493 94.0712 63.768C94.1565 63.576 94.2685 63.4107 94.4072 63.272C94.5459 63.1227 94.7059 63.0107 94.8872 62.936C95.0792 62.8507 95.2819 62.808 95.4952 62.808H102.167C102.445 62.808 102.647 62.8827 102.775 63.032C102.914 63.1813 102.983 63.3787 102.983 63.624V64.056C102.983 64.0987 102.978 64.1413 102.967 64.184C102.967 64.216 102.967 64.2533 102.967 64.296H104.359V63.704C104.359 63.416 104.429 63.1973 104.567 63.048C104.706 62.888 104.935 62.808 105.255 62.808H107.207C107.527 62.808 107.757 62.888 107.895 63.048C108.034 63.1973 108.103 63.416 108.103 63.704V69.736ZM95.8952 77.576C95.2765 77.576 94.8499 77.4587 94.6152 77.224C94.3912 76.9893 94.2792 76.6107 94.2792 76.088V74.536C94.2792 74.2907 94.3379 74.0827 94.4552 73.912C94.5725 73.7307 94.8125 73.64 95.1752 73.64H104.199C104.306 73.64 104.359 73.5813 104.359 73.464V73.096C104.359 72.9787 104.306 72.92 104.199 72.92H94.6472C94.5619 72.92 94.4765 72.8987 94.3912 72.856C94.3165 72.8027 94.2792 72.712 94.2792 72.584V71.656C94.2792 71.528 94.3165 71.4427 94.3912 71.4C94.4659 71.3467 94.5512 71.32 94.6472 71.32H107.207C107.485 71.32 107.703 71.3893 107.863 71.528C108.023 71.656 108.103 71.8853 108.103 72.216V74.344C108.103 74.6747 108.023 74.904 107.863 75.032C107.703 75.1707 107.485 75.24 107.207 75.24H98.1832C98.0765 75.24 98.0232 75.2933 98.0232 75.4V75.8C98.0232 75.9173 98.0872 75.976 98.2152 75.976H107.735C107.831 75.976 107.917 75.9973 107.991 76.04C108.066 76.0933 108.103 76.184 108.103 76.312V77.24C108.103 77.368 108.061 77.4533 107.975 77.496C107.901 77.5493 107.821 77.576 107.735 77.576H95.8952ZM109.943 71.944C109.858 71.944 109.773 71.9227 109.687 71.88C109.613 71.8267 109.575 71.736 109.575 71.608V70.68C109.575 70.552 109.613 70.4667 109.687 70.424C109.762 70.3707 109.847 70.344 109.943 70.344H112.935V69.288H111.831C111.138 69.288 110.642 69.1387 110.343 68.84C110.045 68.5413 109.895 68.088 109.895 67.48V63.624C109.895 63.336 109.97 63.128 110.119 63C110.269 62.872 110.466 62.808 110.711 62.808H119.031C119.127 62.808 119.213 62.8347 119.287 62.888C119.362 62.9307 119.399 63.016 119.399 63.144V64.072C119.399 64.2 119.357 64.2907 119.271 64.344C119.197 64.3867 119.117 64.408 119.031 64.408H114.103C113.794 64.408 113.639 64.536 113.639 64.792V67.352C113.639 67.4907 113.661 67.5813 113.703 67.624C113.746 67.6667 113.831 67.688 113.959 67.688H119.031C119.127 67.688 119.213 67.7147 119.287 67.768C119.362 67.8107 119.399 67.896 119.399 68.024V68.952C119.399 69.08 119.357 69.1707 119.271 69.224C119.197 69.2667 119.117 69.288 119.031 69.288H116.679V70.344H119.511C119.607 70.344 119.693 70.3707 119.767 70.424C119.842 70.4667 119.879 70.552 119.879 70.68V71.608C119.879 71.736 119.837 71.8267 119.751 71.88C119.677 71.9227 119.597 71.944 119.511 71.944H109.943ZM124.103 72.344C124.103 72.632 124.034 72.856 123.895 73.016C123.757 73.1653 123.527 73.24 123.207 73.24H121.255C120.935 73.24 120.706 73.1653 120.567 73.016C120.429 72.856 120.359 72.632 120.359 72.344V63.704C120.359 63.416 120.429 63.1973 120.567 63.048C120.706 62.888 120.935 62.808 121.255 62.808H123.207C123.527 62.808 123.757 62.888 123.895 63.048C124.034 63.1973 124.103 63.416 124.103 63.704V72.344ZM124.263 75.848C124.263 76.0827 124.215 76.3013 124.119 76.504C124.034 76.7173 123.911 76.904 123.751 77.064C123.602 77.224 123.421 77.3467 123.207 77.432C123.005 77.528 122.786 77.576 122.551 77.576H112.471C111.778 77.576 111.282 77.4267 110.983 77.128C110.685 76.8293 110.535 76.376 110.535 75.768V73.592C110.535 73.304 110.605 73.0853 110.743 72.936C110.882 72.776 111.111 72.696 111.431 72.696H113.383C113.703 72.696 113.933 72.776 114.071 72.936C114.21 73.0853 114.279 73.304 114.279 73.592V75.64C114.279 75.7787 114.301 75.8693 114.343 75.912C114.386 75.9547 114.471 75.976 114.599 75.976H120.823V75.848C120.823 75.6133 120.866 75.3893 120.951 75.176C121.047 74.9733 121.175 74.7973 121.335 74.648C121.495 74.488 121.677 74.3653 121.879 74.28C122.093 74.184 122.317 74.136 122.551 74.136C122.786 74.136 123.005 74.184 123.207 74.28C123.421 74.3653 123.602 74.488 123.751 74.648C123.911 74.7973 124.034 74.9733 124.119 75.176C124.215 75.3893 124.263 75.6133 124.263 75.848ZM139.292 71.56C139.292 72.1573 139.222 72.7707 139.084 73.4C138.945 74.0187 138.705 74.5893 138.364 75.112C138.022 75.6347 137.564 76.0613 136.988 76.392C136.412 76.7227 135.686 76.888 134.812 76.888C134.204 76.888 133.67 76.808 133.212 76.648C132.753 76.4987 132.358 76.2907 132.028 76.024C131.708 75.768 131.441 75.464 131.228 75.112C131.025 74.76 130.865 74.3867 130.748 73.992C130.63 73.5973 130.545 73.192 130.492 72.776C130.449 72.36 130.428 71.9547 130.428 71.56C130.428 70.888 130.481 70.2373 130.588 69.608C130.705 68.968 130.924 68.3973 131.244 67.896C131.564 67.3947 132.006 66.9947 132.572 66.696C133.148 66.3867 133.894 66.232 134.812 66.232C135.686 66.232 136.412 66.3867 136.988 66.696C137.564 66.9947 138.022 67.3947 138.364 67.896C138.705 68.3867 138.945 68.952 139.084 69.592C139.222 70.232 139.292 70.888 139.292 71.56ZM143.788 70.12V76.056C143.788 76.344 143.718 76.5627 143.58 76.712C143.441 76.872 143.212 76.952 142.892 76.952H140.94C140.62 76.952 140.39 76.872 140.252 76.712C140.113 76.5627 140.044 76.344 140.044 76.056V63.704C140.044 63.416 140.113 63.1973 140.252 63.048C140.39 62.888 140.62 62.808 140.94 62.808H142.892C143.212 62.808 143.441 62.888 143.58 63.048C143.718 63.1973 143.788 63.416 143.788 63.704V68.52H145.436C145.532 68.52 145.617 68.5467 145.692 68.6C145.766 68.6427 145.804 68.728 145.804 68.856V69.784C145.804 69.912 145.761 70.0027 145.676 70.056C145.601 70.0987 145.521 70.12 145.436 70.12H143.788ZM130.524 65.688C130.438 65.688 130.353 65.6667 130.268 65.624C130.193 65.5707 130.156 65.48 130.156 65.352V64.424C130.156 64.296 130.193 64.2107 130.268 64.168C130.342 64.1147 130.428 64.088 130.524 64.088H133.052V63.224C133.052 63.0107 133.11 62.8347 133.228 62.696C133.356 62.5573 133.542 62.488 133.788 62.488H136.06C136.305 62.488 136.486 62.5573 136.604 62.696C136.732 62.8347 136.796 63.0107 136.796 63.224V64.088H139.356C139.452 64.088 139.537 64.1147 139.612 64.168C139.686 64.2107 139.724 64.296 139.724 64.424V65.352C139.724 65.48 139.681 65.5707 139.596 65.624C139.521 65.6667 139.441 65.688 139.356 65.688H130.524ZM135.724 71.56C135.724 70.2267 135.649 69.2453 135.5 68.616C135.361 67.9867 135.137 67.672 134.828 67.672C134.54 67.672 134.326 67.9867 134.188 68.616C134.049 69.2347 133.98 70.216 133.98 71.56C133.98 72.264 133.996 72.8667 134.028 73.368C134.06 73.8587 134.113 74.2587 134.188 74.568C134.262 74.8773 134.348 75.1013 134.444 75.24C134.55 75.3787 134.678 75.448 134.828 75.448C135.137 75.448 135.361 75.1493 135.5 74.552C135.649 73.9547 135.724 72.9573 135.724 71.56ZM160.044 70.632C160.14 70.632 160.225 70.6587 160.3 70.712C160.374 70.7547 160.412 70.84 160.412 70.968V71.896C160.412 72.024 160.369 72.1147 160.284 72.168C160.209 72.2107 160.129 72.232 160.044 72.232H149.212C148.518 72.232 148.022 72.0827 147.724 71.784C147.425 71.4853 147.276 71.032 147.276 70.424V63.704C147.276 63.3733 147.356 63.144 147.516 63.016C147.676 62.8773 147.894 62.808 148.172 62.808H160.044C160.14 62.808 160.225 62.8347 160.3 62.888C160.374 62.9307 160.412 63.016 160.412 63.144V64.072C160.412 64.2 160.369 64.2907 160.284 64.344C160.209 64.3867 160.129 64.408 160.044 64.408H151.34C151.212 64.408 151.126 64.4293 151.084 64.472C151.041 64.5147 151.02 64.6053 151.02 64.744V66.856H159.884C159.98 66.856 160.065 66.8827 160.14 66.936C160.214 66.9787 160.252 67.064 160.252 67.192V67.96C160.252 68.088 160.209 68.1787 160.124 68.232C160.049 68.2747 159.969 68.296 159.884 68.296H151.02V70.296C151.02 70.4347 151.041 70.5253 151.084 70.568C151.126 70.6107 151.212 70.632 151.34 70.632H160.044ZM146.764 76.952C146.678 76.952 146.593 76.9253 146.508 76.872C146.433 76.8293 146.396 76.744 146.396 76.616V75.688C146.396 75.56 146.433 75.4693 146.508 75.416C146.582 75.3733 146.668 75.352 146.764 75.352H160.924C161.02 75.352 161.105 75.3733 161.18 75.416C161.254 75.4693 161.292 75.56 161.292 75.688V76.616C161.292 76.744 161.249 76.8293 161.164 76.872C161.089 76.9253 161.009 76.952 160.924 76.952H146.764ZM162.284 64.536C162.284 64.3013 162.326 64.0827 162.412 63.88C162.508 63.6667 162.63 63.48 162.78 63.32C162.94 63.16 163.121 63.0373 163.324 62.952C163.537 62.856 163.761 62.808 163.996 62.808H164.06H170.652C170.929 62.808 171.132 62.8827 171.26 63.032C171.398 63.1813 171.468 63.3787 171.468 63.624V67.256C171.468 68.536 171.324 69.656 171.036 70.616C170.748 71.576 170.364 72.4027 169.884 73.096C169.414 73.7893 168.87 74.3707 168.252 74.84C167.644 75.2987 167.009 75.672 166.348 75.96C165.697 76.248 165.052 76.4667 164.412 76.616C163.772 76.7653 163.19 76.872 162.668 76.936C162.572 76.9573 162.508 76.9413 162.476 76.888C162.454 76.8347 162.444 76.7813 162.444 76.728V75.896C162.444 75.8427 162.449 75.7947 162.46 75.752C162.481 75.7093 162.534 75.6773 162.62 75.656C162.929 75.56 163.27 75.448 163.644 75.32C164.017 75.192 164.39 75.016 164.764 74.792C165.148 74.5573 165.516 74.2693 165.868 73.928C166.22 73.576 166.534 73.1387 166.812 72.616C167.089 72.0827 167.308 71.448 167.468 70.712C167.638 69.976 167.724 69.1067 167.724 68.104V64.664C167.724 64.5573 167.708 64.488 167.676 64.456C167.644 64.424 167.569 64.408 167.452 64.408H165.708C165.708 64.4293 165.708 64.4507 165.708 64.472C165.718 64.4933 165.724 64.5147 165.724 64.536C165.724 64.7707 165.676 64.9947 165.58 65.208C165.494 65.4107 165.372 65.592 165.212 65.752C165.052 65.9013 164.865 66.024 164.652 66.12C164.449 66.2053 164.23 66.248 163.996 66.248C163.761 66.248 163.537 66.2053 163.324 66.12C163.121 66.024 162.94 65.9013 162.78 65.752C162.63 65.592 162.508 65.4107 162.412 65.208C162.326 64.9947 162.284 64.7707 162.284 64.536ZM175.788 70.12V76.056C175.788 76.344 175.718 76.5627 175.58 76.712C175.441 76.872 175.212 76.952 174.892 76.952H172.94C172.62 76.952 172.39 76.872 172.252 76.712C172.113 76.5627 172.044 76.344 172.044 76.056V63.704C172.044 63.416 172.113 63.1973 172.252 63.048C172.39 62.888 172.62 62.808 172.94 62.808H174.892C175.212 62.808 175.441 62.888 175.58 63.048C175.718 63.1973 175.788 63.416 175.788 63.704V68.52H177.436C177.532 68.52 177.617 68.5467 177.692 68.6C177.766 68.6427 177.804 68.728 177.804 68.856V69.784C177.804 69.912 177.761 70.0027 177.676 70.056C177.601 70.0987 177.521 70.12 177.436 70.12H175.788ZM197.072 69.736C197.072 70.024 197.003 70.248 196.864 70.408C196.725 70.5573 196.496 70.632 196.176 70.632H194.224C193.904 70.632 193.675 70.5573 193.536 70.408C193.397 70.248 193.328 70.024 193.328 69.736V67.224H191.888C191.824 67.64 191.691 68.0507 191.488 68.456C191.285 68.8507 191.003 69.2027 190.64 69.512C190.277 69.8213 189.819 70.072 189.264 70.264C188.72 70.456 188.075 70.552 187.328 70.552C186.485 70.552 185.771 70.4347 185.184 70.2C184.608 69.9653 184.133 69.6613 183.76 69.288C183.397 68.904 183.131 68.4827 182.96 68.024C182.8 67.5547 182.72 67.0907 182.72 66.632C182.72 66.152 182.8 65.672 182.96 65.192C183.131 64.7013 183.397 64.264 183.76 63.88C184.133 63.496 184.608 63.1867 185.184 62.952C185.771 62.7067 186.485 62.584 187.328 62.584C188.021 62.584 188.629 62.6693 189.152 62.84C189.675 63.0107 190.117 63.2347 190.48 63.512C190.843 63.7893 191.131 64.1147 191.344 64.488C191.557 64.8507 191.712 65.2293 191.808 65.624H193.328V63.704C193.328 63.416 193.397 63.1973 193.536 63.048C193.675 62.888 193.904 62.808 194.224 62.808H196.176C196.496 62.808 196.725 62.888 196.864 63.048C197.003 63.1973 197.072 63.416 197.072 63.704V69.736ZM188.16 77.576C187.723 77.576 187.504 77.3573 187.504 76.92V76.44C187.131 76.824 186.709 77.1067 186.24 77.288C185.771 77.48 185.301 77.576 184.832 77.576C184.384 77.576 184.032 77.4747 183.776 77.272C183.531 77.0693 183.408 76.7547 183.408 76.328V71.896C183.408 71.608 183.477 71.3893 183.616 71.24C183.755 71.08 183.984 71 184.304 71H185.504C185.824 71 186.053 71.08 186.192 71.24C186.331 71.3893 186.4 71.608 186.4 71.896V72.296H187.504V71.896C187.504 71.608 187.573 71.3893 187.712 71.24C187.851 71.08 188.08 71 188.4 71H189.6C189.92 71 190.149 71.08 190.288 71.24C190.427 71.3893 190.496 71.608 190.496 71.896V76.92C190.496 77.3573 190.277 77.576 189.84 77.576H188.16ZM195.936 73.112C195.936 73.6987 195.808 74.248 195.552 74.76C195.307 75.2613 194.96 75.704 194.512 76.088C194.075 76.472 193.563 76.792 192.976 77.048C192.389 77.304 191.76 77.4747 191.088 77.56C190.949 77.5707 190.88 77.512 190.88 77.384V76.264C190.88 76.1573 190.891 76.088 190.912 76.056C190.944 76.0347 191.008 76.0027 191.104 75.96C191.339 75.8533 191.531 75.688 191.68 75.464C191.84 75.2507 191.963 75.0053 192.048 74.728C192.133 74.4507 192.192 74.1573 192.224 73.848C192.256 73.5387 192.272 73.24 192.272 72.952V71.768C192.272 71.5227 192.315 71.336 192.4 71.208C192.485 71.0693 192.661 71 192.928 71H195.28C195.557 71 195.733 71.0693 195.808 71.208C195.893 71.3467 195.936 71.5333 195.936 71.768V73.112ZM187.328 69.112C187.488 69.112 187.632 69.0747 187.76 69C187.888 68.9253 187.995 68.7973 188.08 68.616C188.165 68.4347 188.229 68.184 188.272 67.864C188.315 67.544 188.336 67.1333 188.336 66.632C188.336 66.1093 188.315 65.6827 188.272 65.352C188.229 65.0107 188.165 64.744 188.08 64.552C187.995 64.3493 187.888 64.2107 187.76 64.136C187.632 64.0613 187.488 64.024 187.328 64.024C187.168 64.024 187.024 64.0613 186.896 64.136C186.768 64.2107 186.661 64.3493 186.576 64.552C186.491 64.744 186.427 65.0107 186.384 65.352C186.341 65.6827 186.32 66.1093 186.32 66.632C186.32 67.1333 186.341 67.544 186.384 67.864C186.427 68.184 186.491 68.4347 186.576 68.616C186.661 68.7973 186.768 68.9253 186.896 69C187.024 69.0747 187.168 69.112 187.328 69.112ZM197.984 76.232C197.984 76.5947 197.851 76.9093 197.584 77.176C197.317 77.4427 196.987 77.576 196.592 77.576C196.229 77.576 195.915 77.4427 195.648 77.176C195.381 76.9093 195.248 76.5947 195.248 76.232C195.248 75.8373 195.381 75.5067 195.648 75.24C195.915 74.9733 196.229 74.84 196.592 74.84C196.987 74.84 197.317 74.9733 197.584 75.24C197.851 75.5067 197.984 75.8373 197.984 76.232ZM186.528 75.304C186.645 75.304 186.784 75.2827 186.944 75.24C187.104 75.1973 187.291 75.1013 187.504 74.952V73.896H186.4V75.176C186.4 75.2613 186.443 75.304 186.528 75.304ZM213.072 76.056C213.072 76.344 213.003 76.5627 212.864 76.712C212.725 76.872 212.496 76.952 212.176 76.952H210.224C209.904 76.952 209.675 76.872 209.536 76.712C209.397 76.5627 209.328 76.344 209.328 76.056V70.28H208.096C208.075 71.3787 207.989 72.3493 207.84 73.192C207.691 74.024 207.44 74.7173 207.088 75.272C206.747 75.8373 206.283 76.2587 205.696 76.536C205.109 76.824 204.379 76.968 203.504 76.968C202.597 76.968 201.845 76.8133 201.248 76.504C200.661 76.2053 200.192 75.7573 199.84 75.16C199.499 74.5627 199.259 73.8213 199.12 72.936C198.981 72.0507 198.912 71.0213 198.912 69.848C198.912 68.6853 198.981 67.6613 199.12 66.776C199.259 65.88 199.499 65.1333 199.84 64.536C200.192 63.9387 200.661 63.4907 201.248 63.192C201.845 62.8827 202.597 62.728 203.504 62.728C204.336 62.728 205.029 62.856 205.584 63.112C206.149 63.368 206.608 63.7467 206.96 64.248C207.312 64.7387 207.573 65.3573 207.744 66.104C207.915 66.8507 208.021 67.7093 208.064 68.68H209.328V63.704C209.328 63.416 209.397 63.1973 209.536 63.048C209.675 62.888 209.904 62.808 210.224 62.808H212.176C212.496 62.808 212.725 62.888 212.864 63.048C213.003 63.1973 213.072 63.416 213.072 63.704V76.056ZM203.504 64.168C203.291 64.168 203.115 64.2373 202.976 64.376C202.848 64.5147 202.741 64.792 202.656 65.208C202.581 65.6133 202.528 66.1893 202.496 66.936C202.475 67.672 202.464 68.6427 202.464 69.848C202.464 71.0533 202.475 72.0293 202.496 72.776C202.528 73.5227 202.581 74.0987 202.656 74.504C202.741 74.9093 202.848 75.1813 202.976 75.32C203.115 75.4587 203.291 75.528 203.504 75.528C203.717 75.528 203.888 75.4587 204.016 75.32C204.155 75.1813 204.261 74.9093 204.336 74.504C204.421 74.0987 204.475 73.5227 204.496 72.776C204.528 72.0293 204.544 71.0533 204.544 69.848C204.544 68.6427 204.528 67.672 204.496 66.936C204.475 66.1893 204.421 65.6133 204.336 65.208C204.261 64.792 204.155 64.5147 204.016 64.376C203.888 64.2373 203.717 64.168 203.504 64.168ZM228.96 67.736C228.96 68.4507 228.821 69.1227 228.544 69.752C228.277 70.3813 227.867 70.9307 227.312 71.4C226.768 71.8587 226.08 72.2213 225.248 72.488C224.416 72.7547 223.445 72.888 222.336 72.888C221.227 72.888 220.256 72.7547 219.424 72.488C218.592 72.2107 217.899 71.8427 217.344 71.384C216.8 70.9147 216.389 70.3653 216.112 69.736C215.845 69.1067 215.712 68.44 215.712 67.736C215.712 67.032 215.845 66.3653 216.112 65.736C216.389 65.1067 216.8 64.5627 217.344 64.104C217.899 63.6347 218.592 63.2667 219.424 63C220.256 62.7227 221.227 62.584 222.336 62.584C223.445 62.584 224.416 62.7173 225.248 62.984C226.08 63.2507 226.768 63.6187 227.312 64.088C227.867 64.5467 228.277 65.0907 228.544 65.72C228.821 66.3493 228.96 67.0213 228.96 67.736ZM215.248 76.952C215.163 76.952 215.077 76.9253 214.992 76.872C214.917 76.8293 214.88 76.744 214.88 76.616V75.688C214.88 75.56 214.917 75.4693 214.992 75.416C215.067 75.3733 215.152 75.352 215.248 75.352H216.656V73.864C216.656 73.576 216.725 73.3573 216.864 73.208C217.003 73.048 217.232 72.968 217.552 72.968H219.504C219.824 72.968 220.053 73.048 220.192 73.208C220.331 73.3573 220.4 73.576 220.4 73.864V75.352H224.24V73.864C224.24 73.576 224.309 73.3573 224.448 73.208C224.587 73.048 224.816 72.968 225.136 72.968H227.088C227.408 72.968 227.637 73.048 227.776 73.208C227.915 73.3573 227.984 73.576 227.984 73.864V75.352H229.408C229.504 75.352 229.589 75.3733 229.664 75.416C229.739 75.4693 229.776 75.56 229.776 75.688V76.616C229.776 76.744 229.733 76.8293 229.648 76.872C229.573 76.9253 229.493 76.952 229.408 76.952H215.248ZM225.152 67.736C225.152 67.096 225.077 66.5467 224.928 66.088C224.789 65.6187 224.592 65.2347 224.336 64.936C224.091 64.6267 223.797 64.3973 223.456 64.248C223.115 64.0987 222.741 64.024 222.336 64.024C221.941 64.024 221.573 64.0987 221.232 64.248C220.891 64.3973 220.592 64.6267 220.336 64.936C220.08 65.2347 219.877 65.6187 219.728 66.088C219.589 66.5467 219.52 67.096 219.52 67.736C219.52 68.376 219.589 68.9307 219.728 69.4C219.877 69.8693 220.08 70.2587 220.336 70.568C220.592 70.8667 220.891 71.0907 221.232 71.24C221.573 71.3787 221.941 71.448 222.336 71.448C222.741 71.448 223.115 71.3787 223.456 71.24C223.797 71.0907 224.091 70.8667 224.336 70.568C224.592 70.2587 224.789 69.8693 224.928 69.4C225.077 68.9307 225.152 68.376 225.152 67.736ZM231.488 75.96C231.488 75.7253 231.531 75.5013 231.616 75.288C231.712 75.0853 231.835 74.904 231.984 74.744C232.144 74.584 232.325 74.4613 232.528 74.376C232.741 74.28 232.965 74.232 233.2 74.232C233.435 74.232 233.653 74.28 233.856 74.376C234.069 74.4613 234.256 74.584 234.416 74.744C234.576 74.904 234.699 75.0853 234.784 75.288C234.88 75.5013 234.928 75.7253 234.928 75.96C234.928 76.1947 234.88 76.4133 234.784 76.616C234.699 76.8293 234.576 77.0107 234.416 77.16C234.256 77.32 234.069 77.4427 233.856 77.528C233.653 77.624 233.435 77.672 233.2 77.672C232.965 77.672 232.741 77.624 232.528 77.528C232.325 77.4427 232.144 77.32 231.984 77.16C231.835 77.0107 231.712 76.8293 231.616 76.616C231.531 76.4133 231.488 76.1947 231.488 75.96ZM237.254 75.96C237.254 75.7253 237.296 75.5013 237.382 75.288C237.478 75.0853 237.6 74.904 237.75 74.744C237.91 74.584 238.091 74.4613 238.294 74.376C238.507 74.28 238.731 74.232 238.966 74.232C239.2 74.232 239.419 74.28 239.622 74.376C239.835 74.4613 240.022 74.584 240.182 74.744C240.342 74.904 240.464 75.0853 240.55 75.288C240.646 75.5013 240.694 75.7253 240.694 75.96C240.694 76.1947 240.646 76.4133 240.55 76.616C240.464 76.8293 240.342 77.0107 240.182 77.16C240.022 77.32 239.835 77.4427 239.622 77.528C239.419 77.624 239.2 77.672 238.966 77.672C238.731 77.672 238.507 77.624 238.294 77.528C238.091 77.4427 237.91 77.32 237.75 77.16C237.6 77.0107 237.478 76.8293 237.382 76.616C237.296 76.4133 237.254 76.1947 237.254 75.96ZM243.019 75.96C243.019 75.7253 243.062 75.5013 243.147 75.288C243.243 75.0853 243.366 74.904 243.515 74.744C243.675 74.584 243.857 74.4613 244.059 74.376C244.273 74.28 244.497 74.232 244.731 74.232C244.966 74.232 245.185 74.28 245.387 74.376C245.601 74.4613 245.787 74.584 245.947 74.744C246.107 74.904 246.23 75.0853 246.315 75.288C246.411 75.5013 246.459 75.7253 246.459 75.96C246.459 76.1947 246.411 76.4133 246.315 76.616C246.23 76.8293 246.107 77.0107 245.947 77.16C245.787 77.32 245.601 77.4427 245.387 77.528C245.185 77.624 244.966 77.672 244.731 77.672C244.497 77.672 244.273 77.624 244.059 77.528C243.857 77.4427 243.675 77.32 243.515 77.16C243.366 77.0107 243.243 76.8293 243.147 76.616C243.062 76.4133 243.019 76.1947 243.019 75.96Z" fill="#5A66D6"/>
<defs>
<filter id="filter0_d_1280_8850" x="0" y="0.573242" width="328" height="117.927" filterUnits="userSpaceOnUse" color-interpolation-filters="sRGB">
<feFlood flood-opacity="0" result="BackgroundImageFix"/>
<feColorMatrix in="SourceAlpha" type="matrix" values="0 0 0 0 0 0 0 0 0 0 0 0 0 0 0 0 0 0 127 0" result="hardAlpha"/>
<feOffset dx="4" dy="4"/>
<feComposite in2="hardAlpha" operator="out"/>
<feColorMatrix type="matrix" values="0 0 0 0 0 0 0 0 0 0 0 0 0 0 0 0 0 0 0.9 0"/>
<feBlend mode="normal" in2="BackgroundImageFix" result="effect1_dropShadow_1280_8850"/>
<feBlend mode="normal" in="SourceGraphic" in2="effect1_dropShadow_1280_8850" result="shape"/>
</filter>
</defs>
</svg>
