<svg width="33" height="32" viewBox="0 0 33 32" fill="none" xmlns="http://www.w3.org/2000/svg">
<path d="M12.8937 21.004L12.893 21.0052C12.4083 21.8533 12.1547 22.7186 12.1547 23.5953C12.1547 24.4001 12.4515 25.0655 13.0817 25.5071C13.6809 25.927 14.52 26.1003 15.5246 26.1003H28.4972C29.5019 26.1003 30.341 25.927 30.9401 25.5071C31.5703 25.0655 31.8671 24.4001 31.8671 23.5953C31.8671 22.7177 31.6095 21.8522 31.1179 21.0045C30.6336 20.1502 29.9514 19.3748 29.083 18.6757C28.2059 17.9695 27.169 17.407 25.9792 16.9837C24.7746 16.555 23.4501 16.3442 22.0109 16.3442C20.5784 16.3442 19.2575 16.5551 18.0531 16.9837C16.8636 17.4069 15.8239 17.9691 14.9403 18.6745L14.9388 18.6757C14.0702 19.375 13.3848 20.1502 12.8937 21.004ZM27.9924 22.1951C28.1829 22.4809 28.29 22.7156 28.3401 22.9044H15.6911C15.7401 22.7138 15.8454 22.4777 16.0322 22.1909C16.2956 21.7867 16.6938 21.3762 17.2451 20.9643C17.7884 20.5634 18.4591 20.2224 19.2652 19.9469C20.0573 19.6787 20.9704 19.5401 22.0109 19.5401C23.0518 19.5401 23.9651 19.6787 24.7573 19.9472C25.5709 20.2229 26.2406 20.5638 26.7756 20.9634C27.3274 21.3757 27.7261 21.7864 27.9896 22.1909L27.9896 22.1909L27.9924 22.1951ZM19.3753 15.4541L19.3781 15.456C20.1683 15.9645 21.0501 16.2179 22.0109 16.2179C22.978 16.2179 23.8634 15.9649 24.6543 15.456L24.6553 15.4553C25.4417 14.9464 26.0656 14.2673 26.5245 13.4259C26.9875 12.5771 27.2159 11.6394 27.2159 10.6226C27.2159 9.62459 26.9828 8.70586 26.5109 7.87707C26.051 7.0502 25.4264 6.38601 24.6399 5.89234C23.8502 5.39219 22.9698 5.14341 22.0109 5.14341C21.0565 5.14341 20.1759 5.39704 19.3804 5.90384C18.6012 6.39775 17.9775 7.06157 17.5113 7.88696L17.5097 7.88991C17.0458 8.72492 16.8165 9.64615 16.8165 10.6437C16.8165 11.6541 17.0452 12.5882 17.5079 13.4365L17.5079 13.4365L17.5104 13.441C17.9758 14.2726 18.598 14.9462 19.3753 15.4541ZM23.6832 11.8685L23.6832 11.8685L23.6804 11.874C23.495 12.2449 23.2542 12.5247 22.9611 12.7276C22.6768 12.9244 22.3645 13.0219 22.0109 13.0219C21.6747 13.0219 21.3689 12.9263 21.0818 12.7276L20.8086 13.1222L21.0818 12.7276C20.7859 12.5227 20.5407 12.2435 20.3485 11.8778C20.1626 11.517 20.0651 11.1055 20.0651 10.6332C20.0651 10.1825 20.1588 9.79333 20.3363 9.45497C20.5271 9.09774 20.7704 8.8261 21.0643 8.62786C21.36 8.43305 21.6721 8.33935 22.0109 8.33935C22.3589 8.33935 22.6698 8.43421 22.9558 8.62669L22.9557 8.62679L22.9646 8.6325C23.2612 8.82278 23.5011 9.08758 23.6833 9.44023L23.6833 9.44025L23.6862 9.44578C23.8714 9.79307 23.9672 10.1822 23.9672 10.6226C23.9672 11.0955 23.8695 11.5075 23.6832 11.8685ZM1.69628 20.7532L1.69556 20.7546C1.23778 21.6167 1.00669 22.5305 1.00669 23.4898C1.00669 24.2841 1.24707 24.9603 1.79332 25.4335C2.32992 25.9054 3.08212 26.1003 3.96521 26.1003H12.0125H13.7659L12.257 25.2072C12.0147 25.0638 11.8133 24.8346 11.6638 24.4847C11.5158 24.1288 11.4655 23.7948 11.4985 23.4759L11.5533 22.9465H11.0211H4.37527C4.41401 22.6014 4.53143 22.2576 4.73566 21.9118C5.00246 21.4719 5.37323 21.0666 5.85756 20.6983C6.34653 20.3318 6.91443 20.0385 7.56583 19.8214L7.56583 19.8214L7.56855 19.8204C8.21812 19.5996 8.91789 19.4874 9.67107 19.4874C9.95149 19.4874 10.2524 19.5129 10.5746 19.5655L10.5746 19.5656L10.5854 19.5671C10.9165 19.6135 11.2326 19.6795 11.5339 19.7646C11.8329 19.8491 12.0868 19.9473 12.2992 20.0565L12.7067 20.2661L12.9349 19.8688C13.1047 19.5733 13.3088 19.3032 13.5481 19.0576L13.5481 19.0576L13.5523 19.0532C13.7865 18.8066 14.0718 18.5796 14.4121 18.3742L15.1202 17.9467L14.3977 17.544C13.9407 17.2892 13.4425 17.0739 12.9045 16.8968C12.3739 16.7128 11.8321 16.5765 11.2793 16.4878C10.8541 16.4143 10.4378 16.3687 10.0305 16.3517C10.7419 16.2965 11.4034 16.0755 12.0077 15.6886L12.0077 15.6886L12.0109 15.6865C12.7053 15.234 13.255 14.6324 13.6576 13.8895C14.0711 13.1323 14.2749 12.2968 14.2749 11.3926C14.2749 10.5073 14.0701 9.69083 13.6546 8.95345C13.2447 8.21911 12.6913 7.62884 11.9965 7.19108C11.2983 6.73953 10.519 6.51451 9.67107 6.51451C8.82821 6.51451 8.0465 6.7405 7.33651 7.19017L7.33651 7.19016L7.33446 7.19147C6.64001 7.63623 6.08655 8.22995 5.6765 8.96495C5.26162 9.70861 5.05985 10.5253 5.06724 11.4052C5.06756 12.3089 5.2715 13.1441 5.685 13.9008L5.68601 13.9027C6.09506 14.6436 6.64421 15.2415 7.33238 15.6872L7.33446 15.6886C7.93441 16.0728 8.59083 16.2934 9.29651 16.3505C8.25113 16.3862 7.25899 16.572 6.32265 16.9107L6.32162 16.9111C5.28901 17.2872 4.37162 17.8061 3.57388 18.4696L3.57218 18.471C2.78337 19.1333 2.15603 19.894 1.69628 20.7532ZM10.9118 10.5069L10.9116 10.5069L10.9175 10.5175C11.0578 10.7712 11.1317 11.0593 11.1317 11.3926C11.1317 11.7531 11.0585 12.0683 10.9196 12.3469C10.7772 12.6253 10.593 12.836 10.3687 12.9909C10.1517 13.1407 9.92306 13.2118 9.67107 13.2118C9.42819 13.2118 9.20271 13.1419 8.98404 12.9909C8.75923 12.8357 8.57474 12.6244 8.43223 12.3451C8.29453 12.0752 8.22099 11.7646 8.22099 11.4031C8.22099 11.0667 8.29281 10.7761 8.42844 10.5211L8.42846 10.5211L8.43038 10.5174C8.57159 10.2463 8.75434 10.0423 8.97756 9.8935L8.9776 9.89355L8.98404 9.88911C9.20271 9.73812 9.42819 9.66826 9.67107 9.66826C9.92677 9.66826 10.1522 9.73796 10.3601 9.87995L10.3601 9.87998L10.3646 9.88295C10.5878 10.0318 10.7705 10.2357 10.9118 10.5069Z" fill="#F4F4F4" stroke="#636363" stroke-width="0.96"/>
</svg>
