<svg width="71" height="71" viewBox="0 0 71 71" fill="none" xmlns="http://www.w3.org/2000/svg">
<circle cx="35" cy="35" r="34" fill="white" stroke="white" stroke-width="2"/>
<path d="M49.532 24.8288C48.7501 23.9319 47.8217 23.2205 46.7999 22.735C45.7781 22.2496 44.6829 21.9998 43.5769 21.9998C42.4709 21.9998 41.3757 22.2496 40.3539 22.735C39.3321 23.2205 38.4037 23.9319 37.6218 24.8288L35.9991 26.6893L34.3764 24.8288C32.797 23.018 30.6549 22.0007 28.4213 22.0007C26.1877 22.0007 24.0456 23.018 22.4662 24.8288C20.8868 26.6396 19.9995 29.0956 19.9995 31.6564C19.9995 34.2173 20.8868 36.6733 22.4662 38.4841L24.0889 40.3445L35.9991 53.9998L47.9093 40.3445L49.532 38.4841C50.3143 37.5876 50.9348 36.5232 51.3582 35.3517C51.7816 34.1802 51.9995 32.9245 51.9995 31.6564C51.9995 30.3883 51.7816 29.1327 51.3582 27.9612C50.9348 26.7897 50.3143 25.7253 49.532 24.8288Z" fill="#5A66D6"/>
</svg>
