<svg width="43" height="43" viewBox="0 0 43 43" fill="none" xmlns="http://www.w3.org/2000/svg">
<g filter="url(#filter0_d_1050_7759)">
<circle cx="20" cy="20" r="20" fill="#FF8BC5"/>
<circle cx="20" cy="20" r="19" stroke="black" stroke-width="2"/>
</g>
<path d="M20 30C19.8631 30 19.697 29.9473 19.5015 29.8418C19.306 29.7433 19.1202 29.6308 18.9443 29.5042C17.1326 28.2384 15.5556 26.9093 14.2131 25.5169C12.8772 24.1174 11.841 22.6793 11.1046 21.2025C10.3682 19.7187 10 18.2243 10 16.7194C10 15.7208 10.1466 14.8101 10.4399 13.9873C10.7397 13.1646 11.1502 12.4543 11.6716 11.8565C12.1994 11.2588 12.8055 10.8017 13.4897 10.4852C14.1805 10.1617 14.9234 10 15.7185 10C16.7025 10 17.5529 10.2672 18.2698 10.8017C18.9932 11.3361 19.5699 12.0323 20 12.8903C20.4366 12.0253 21.0134 11.3291 21.7302 10.8017C22.4536 10.2672 23.3073 10 24.2913 10C25.0733 10 25.8097 10.1617 26.5005 10.4852C27.1978 10.8017 27.8071 11.2588 28.3284 11.8565C28.8498 12.4543 29.2571 13.1646 29.5503 13.9873C29.8501 14.8101 30 15.7208 30 16.7194C30 18.2243 29.6318 19.7187 28.8954 21.2025C28.159 22.6793 27.1196 24.1174 25.7771 25.5169C24.4412 26.9093 22.8706 28.2384 21.0655 29.5042C20.883 29.6308 20.694 29.7433 20.4985 29.8418C20.3095 29.9473 20.1434 30 20 30Z" fill="white"/>
<defs>
<filter id="filter0_d_1050_7759" x="0" y="0" width="43" height="43" filterUnits="userSpaceOnUse" color-interpolation-filters="sRGB">
<feFlood flood-opacity="0" result="BackgroundImageFix"/>
<feColorMatrix in="SourceAlpha" type="matrix" values="0 0 0 0 0 0 0 0 0 0 0 0 0 0 0 0 0 0 127 0" result="hardAlpha"/>
<feOffset dx="3" dy="3"/>
<feComposite in2="hardAlpha" operator="out"/>
<feColorMatrix type="matrix" values="0 0 0 0 0 0 0 0 0 0 0 0 0 0 0 0 0 0 0.9 0"/>
<feBlend mode="normal" in2="BackgroundImageFix" result="effect1_dropShadow_1050_7759"/>
<feBlend mode="normal" in="SourceGraphic" in2="effect1_dropShadow_1050_7759" result="shape"/>
</filter>
</defs>
</svg>
